G04 #@! TF.GenerationSoftware,KiCad,Pcbnew,(6.0.9)*
G04 #@! TF.CreationDate,2023-02-13T08:52:12+09:00*
G04 #@! TF.ProjectId,AMS_Fuse,414d535f-4675-4736-952e-6b696361645f,rev?*
G04 #@! TF.SameCoordinates,Original*
G04 #@! TF.FileFunction,Copper,L1,Top*
G04 #@! TF.FilePolarity,Positive*
%FSLAX46Y46*%
G04 Gerber Fmt 4.6, Leading zero omitted, Abs format (unit mm)*
G04 Created by KiCad (PCBNEW (6.0.9)) date 2023-02-13 08:52:12*
%MOMM*%
%LPD*%
G01*
G04 APERTURE LIST*
G04 #@! TA.AperFunction,ComponentPad*
%ADD10C,5.600000*%
G04 #@! TD*
G04 #@! TA.AperFunction,ComponentPad*
%ADD11C,1.950000*%
G04 #@! TD*
G04 #@! TA.AperFunction,ComponentPad*
%ADD12R,1.650000X1.650000*%
G04 #@! TD*
G04 #@! TA.AperFunction,ComponentPad*
%ADD13C,1.650000*%
G04 #@! TD*
G04 #@! TA.AperFunction,Conductor*
%ADD14C,0.250000*%
G04 #@! TD*
G04 APERTURE END LIST*
D10*
G04 #@! TO.P,REF\u002A\u002A,1*
G04 #@! TO.N,N/C*
X115000000Y-125000000D03*
G04 #@! TD*
G04 #@! TO.P,REF\u002A\u002A,1*
G04 #@! TO.N,N/C*
X161000000Y-125000000D03*
G04 #@! TD*
G04 #@! TO.P,REF\u002A\u002A,1*
G04 #@! TO.N,N/C*
X161000000Y-69000000D03*
G04 #@! TD*
G04 #@! TO.P,REF\u002A\u002A,1*
G04 #@! TO.N,N/C*
X115000000Y-69000000D03*
G04 #@! TD*
D11*
G04 #@! TO.P,F6,1*
G04 #@! TO.N,Net-(F6-Pad1)*
X128000000Y-114000000D03*
G04 #@! TO.P,F6,2*
G04 #@! TO.N,Net-(F6-Pad2)*
X148000000Y-114000000D03*
G04 #@! TD*
D12*
G04 #@! TO.P,J1,1,1*
G04 #@! TO.N,Net-(F7-Pad1)*
X119450000Y-103500000D03*
D13*
G04 #@! TO.P,J1,2,2*
G04 #@! TO.N,Net-(F6-Pad1)*
X119450000Y-101000000D03*
G04 #@! TO.P,J1,3,3*
G04 #@! TO.N,Net-(F5-Pad1)*
X119450000Y-98500000D03*
G04 #@! TO.P,J1,4,4*
G04 #@! TO.N,Net-(F4-Pad1)*
X119450000Y-96000000D03*
G04 #@! TO.P,J1,5,5*
G04 #@! TO.N,Net-(F3-Pad1)*
X119450000Y-93500000D03*
G04 #@! TO.P,J1,6,6*
G04 #@! TO.N,Net-(F2-Pad1)*
X119450000Y-91000000D03*
G04 #@! TO.P,J1,7,7*
G04 #@! TO.N,Net-(F1-Pad1)*
X119450000Y-88500000D03*
G04 #@! TD*
D12*
G04 #@! TO.P,J2,1,1*
G04 #@! TO.N,Net-(F1-Pad2)*
X156550000Y-88500000D03*
D13*
G04 #@! TO.P,J2,2,2*
G04 #@! TO.N,Net-(F2-Pad2)*
X156550000Y-91000000D03*
G04 #@! TO.P,J2,3,3*
G04 #@! TO.N,Net-(F3-Pad2)*
X156550000Y-93500000D03*
G04 #@! TO.P,J2,4,4*
G04 #@! TO.N,Net-(F4-Pad2)*
X156550000Y-96000000D03*
G04 #@! TO.P,J2,5,5*
G04 #@! TO.N,Net-(F5-Pad2)*
X156550000Y-98500000D03*
G04 #@! TO.P,J2,6,6*
G04 #@! TO.N,Net-(F6-Pad2)*
X156550000Y-101000000D03*
G04 #@! TO.P,J2,7,7*
G04 #@! TO.N,Net-(F7-Pad2)*
X156550000Y-103500000D03*
G04 #@! TD*
D11*
G04 #@! TO.P,F5,1*
G04 #@! TO.N,Net-(F5-Pad1)*
X128000000Y-105000000D03*
G04 #@! TO.P,F5,2*
G04 #@! TO.N,Net-(F5-Pad2)*
X148000000Y-105000000D03*
G04 #@! TD*
G04 #@! TO.P,F1,1*
G04 #@! TO.N,Net-(F1-Pad1)*
X128000000Y-69000000D03*
G04 #@! TO.P,F1,2*
G04 #@! TO.N,Net-(F1-Pad2)*
X148000000Y-69000000D03*
G04 #@! TD*
G04 #@! TO.P,F2,1*
G04 #@! TO.N,Net-(F2-Pad1)*
X128000000Y-78000000D03*
G04 #@! TO.P,F2,2*
G04 #@! TO.N,Net-(F2-Pad2)*
X148000000Y-78000000D03*
G04 #@! TD*
G04 #@! TO.P,F3,1*
G04 #@! TO.N,Net-(F3-Pad1)*
X128000000Y-87000000D03*
G04 #@! TO.P,F3,2*
G04 #@! TO.N,Net-(F3-Pad2)*
X148000000Y-87000000D03*
G04 #@! TD*
G04 #@! TO.P,F7,1*
G04 #@! TO.N,Net-(F7-Pad1)*
X128000000Y-123000000D03*
G04 #@! TO.P,F7,2*
G04 #@! TO.N,Net-(F7-Pad2)*
X148000000Y-123000000D03*
G04 #@! TD*
G04 #@! TO.P,F4,1*
G04 #@! TO.N,Net-(F4-Pad1)*
X128000000Y-96000000D03*
G04 #@! TO.P,F4,2*
G04 #@! TO.N,Net-(F4-Pad2)*
X148000000Y-96000000D03*
G04 #@! TD*
D14*
G04 #@! TO.N,Net-(F1-Pad1)*
X119450000Y-74550000D02*
X125000000Y-69000000D01*
X125000000Y-69000000D02*
X128000000Y-69000000D01*
X119450000Y-88500000D02*
X119450000Y-74550000D01*
G04 #@! TO.N,Net-(F1-Pad2)*
X156550000Y-74550000D02*
X156550000Y-88500000D01*
X151000000Y-69000000D02*
X156550000Y-74550000D01*
X148000000Y-69000000D02*
X151000000Y-69000000D01*
G04 #@! TO.N,Net-(F2-Pad1)*
X123000000Y-87450000D02*
X119450000Y-91000000D01*
X125000000Y-78000000D02*
X123000000Y-80000000D01*
X123000000Y-80000000D02*
X123000000Y-87450000D01*
X128000000Y-78000000D02*
X125000000Y-78000000D01*
G04 #@! TO.N,Net-(F2-Pad2)*
X151000000Y-78000000D02*
X153000000Y-80000000D01*
X153000000Y-87450000D02*
X156550000Y-91000000D01*
X148000000Y-78000000D02*
X151000000Y-78000000D01*
X153000000Y-80000000D02*
X153000000Y-87450000D01*
G04 #@! TO.N,Net-(F3-Pad1)*
X128000000Y-87000000D02*
X126000000Y-87000000D01*
X119500000Y-93500000D02*
X119450000Y-93500000D01*
X126000000Y-87000000D02*
X119500000Y-93500000D01*
G04 #@! TO.N,Net-(F3-Pad2)*
X148000000Y-87000000D02*
X150000000Y-87000000D01*
X150000000Y-87000000D02*
X156500000Y-93500000D01*
X156500000Y-93500000D02*
X156550000Y-93500000D01*
G04 #@! TO.N,Net-(F4-Pad1)*
X128000000Y-96000000D02*
X119450000Y-96000000D01*
G04 #@! TO.N,Net-(F4-Pad2)*
X148000000Y-96000000D02*
X156550000Y-96000000D01*
G04 #@! TO.N,Net-(F5-Pad1)*
X119500000Y-98500000D02*
X126000000Y-105000000D01*
X119450000Y-98500000D02*
X119500000Y-98500000D01*
X126000000Y-105000000D02*
X128000000Y-105000000D01*
G04 #@! TO.N,Net-(F5-Pad2)*
X148000000Y-105000000D02*
X150000000Y-105000000D01*
X156500000Y-98500000D02*
X156550000Y-98500000D01*
X150000000Y-105000000D02*
X156500000Y-98500000D01*
G04 #@! TO.N,Net-(F6-Pad1)*
X119450000Y-101000000D02*
X123000000Y-104550000D01*
X125000000Y-114000000D02*
X128000000Y-114000000D01*
X123000000Y-104550000D02*
X123000000Y-112000000D01*
X123000000Y-112000000D02*
X125000000Y-114000000D01*
G04 #@! TO.N,Net-(F6-Pad2)*
X151000000Y-114000000D02*
X148000000Y-114000000D01*
X153000000Y-104550000D02*
X153000000Y-112000000D01*
X153000000Y-112000000D02*
X151000000Y-114000000D01*
X156550000Y-101000000D02*
X153000000Y-104550000D01*
G04 #@! TO.N,Net-(F7-Pad1)*
X119450000Y-117450000D02*
X125000000Y-123000000D01*
X119450000Y-103500000D02*
X119450000Y-117450000D01*
X125000000Y-123000000D02*
X128000000Y-123000000D01*
G04 #@! TO.N,Net-(F7-Pad2)*
X156550000Y-117450000D02*
X151000000Y-123000000D01*
X156550000Y-103500000D02*
X156550000Y-117450000D01*
X151000000Y-123000000D02*
X148000000Y-123000000D01*
G04 #@! TD*
M02*
