M48
; DRILL file {KiCad (6.0.9)} date Mon Feb 13 08:52:33 2023
; FORMAT={-:-/ absolute / inch / decimal}
; #@! TF.CreationDate,2023-02-13T08:52:33+09:00
; #@! TF.GenerationSoftware,Kicad,Pcbnew,(6.0.9)
; #@! TF.FileFunction,MixedPlating,1,2
FMAT,2
INCH
; #@! TA.AperFunction,Plated,PTH,ComponentDrill
T1C0.0433
; #@! TA.AperFunction,Plated,PTH,ComponentDrill
T2C0.0512
; #@! TA.AperFunction,Plated,PTH,ComponentDrill
T3C0.1260
%
G90
G05
T1
X4.7028Y-3.4843
X4.7028Y-3.5827
X4.7028Y-3.6811
X4.7028Y-3.7795
X4.7028Y-3.878
X4.7028Y-3.9764
X4.7028Y-4.0748
X6.1634Y-3.4843
X6.1634Y-3.5827
X6.1634Y-3.6811
X6.1634Y-3.7795
X6.1634Y-3.878
X6.1634Y-3.9764
X6.1634Y-4.0748
T2
X5.0394Y-2.7165
X5.0394Y-3.0709
X5.0394Y-3.4252
X5.0394Y-3.7795
X5.0394Y-4.1339
X5.0394Y-4.4882
X5.0394Y-4.8425
X5.8268Y-2.7165
X5.8268Y-3.0709
X5.8268Y-3.4252
X5.8268Y-3.7795
X5.8268Y-4.1339
X5.8268Y-4.4882
X5.8268Y-4.8425
T3
X4.5276Y-2.7165
X4.5276Y-4.9213
X6.3386Y-2.7165
X6.3386Y-4.9213
T0
M30
