G04 #@! TF.GenerationSoftware,KiCad,Pcbnew,(6.0.9)*
G04 #@! TF.CreationDate,2023-02-13T08:52:12+09:00*
G04 #@! TF.ProjectId,AMS_Fuse,414d535f-4675-4736-952e-6b696361645f,rev?*
G04 #@! TF.SameCoordinates,Original*
G04 #@! TF.FileFunction,Legend,Top*
G04 #@! TF.FilePolarity,Positive*
%FSLAX46Y46*%
G04 Gerber Fmt 4.6, Leading zero omitted, Abs format (unit mm)*
G04 Created by KiCad (PCBNEW (6.0.9)) date 2023-02-13 08:52:12*
%MOMM*%
%LPD*%
G01*
G04 APERTURE LIST*
%ADD10C,0.254000*%
%ADD11C,0.200000*%
G04 APERTURE END LIST*
D10*
G04 #@! TO.C,F6*
X137177976Y-113959065D02*
X136754643Y-113959065D01*
X136754643Y-114624303D02*
X136754643Y-113354303D01*
X137359405Y-113354303D01*
X138387500Y-113354303D02*
X138145595Y-113354303D01*
X138024643Y-113414780D01*
X137964167Y-113475256D01*
X137843214Y-113656684D01*
X137782738Y-113898589D01*
X137782738Y-114382399D01*
X137843214Y-114503351D01*
X137903690Y-114563827D01*
X138024643Y-114624303D01*
X138266548Y-114624303D01*
X138387500Y-114563827D01*
X138447976Y-114503351D01*
X138508452Y-114382399D01*
X138508452Y-114080018D01*
X138447976Y-113959065D01*
X138387500Y-113898589D01*
X138266548Y-113838113D01*
X138024643Y-113838113D01*
X137903690Y-113898589D01*
X137843214Y-113959065D01*
X137782738Y-114080018D01*
G04 #@! TO.C,J1*
X115576666Y-83304523D02*
X115576666Y-84211666D01*
X115516190Y-84393095D01*
X115395238Y-84514047D01*
X115213809Y-84574523D01*
X115092857Y-84574523D01*
X116846666Y-84574523D02*
X116120952Y-84574523D01*
X116483809Y-84574523D02*
X116483809Y-83304523D01*
X116362857Y-83485952D01*
X116241904Y-83606904D01*
X116120952Y-83667380D01*
G04 #@! TO.C,J2*
X159576666Y-83304523D02*
X159576666Y-84211666D01*
X159516190Y-84393095D01*
X159395238Y-84514047D01*
X159213809Y-84574523D01*
X159092857Y-84574523D01*
X160120952Y-83425476D02*
X160181428Y-83365000D01*
X160302380Y-83304523D01*
X160604761Y-83304523D01*
X160725714Y-83365000D01*
X160786190Y-83425476D01*
X160846666Y-83546428D01*
X160846666Y-83667380D01*
X160786190Y-83848809D01*
X160060476Y-84574523D01*
X160846666Y-84574523D01*
G04 #@! TO.C,F5*
X137177976Y-104959065D02*
X136754643Y-104959065D01*
X136754643Y-105624303D02*
X136754643Y-104354303D01*
X137359405Y-104354303D01*
X138447976Y-104354303D02*
X137843214Y-104354303D01*
X137782738Y-104959065D01*
X137843214Y-104898589D01*
X137964167Y-104838113D01*
X138266548Y-104838113D01*
X138387500Y-104898589D01*
X138447976Y-104959065D01*
X138508452Y-105080018D01*
X138508452Y-105382399D01*
X138447976Y-105503351D01*
X138387500Y-105563827D01*
X138266548Y-105624303D01*
X137964167Y-105624303D01*
X137843214Y-105563827D01*
X137782738Y-105503351D01*
G04 #@! TO.C,F1*
X137177976Y-68959065D02*
X136754643Y-68959065D01*
X136754643Y-69624303D02*
X136754643Y-68354303D01*
X137359405Y-68354303D01*
X138508452Y-69624303D02*
X137782738Y-69624303D01*
X138145595Y-69624303D02*
X138145595Y-68354303D01*
X138024643Y-68535732D01*
X137903690Y-68656684D01*
X137782738Y-68717160D01*
G04 #@! TO.C,F2*
X137177976Y-77959065D02*
X136754643Y-77959065D01*
X136754643Y-78624303D02*
X136754643Y-77354303D01*
X137359405Y-77354303D01*
X137782738Y-77475256D02*
X137843214Y-77414780D01*
X137964167Y-77354303D01*
X138266548Y-77354303D01*
X138387500Y-77414780D01*
X138447976Y-77475256D01*
X138508452Y-77596208D01*
X138508452Y-77717160D01*
X138447976Y-77898589D01*
X137722262Y-78624303D01*
X138508452Y-78624303D01*
G04 #@! TO.C,F3*
X137177976Y-86959065D02*
X136754643Y-86959065D01*
X136754643Y-87624303D02*
X136754643Y-86354303D01*
X137359405Y-86354303D01*
X137722262Y-86354303D02*
X138508452Y-86354303D01*
X138085119Y-86838113D01*
X138266548Y-86838113D01*
X138387500Y-86898589D01*
X138447976Y-86959065D01*
X138508452Y-87080018D01*
X138508452Y-87382399D01*
X138447976Y-87503351D01*
X138387500Y-87563827D01*
X138266548Y-87624303D01*
X137903690Y-87624303D01*
X137782738Y-87563827D01*
X137722262Y-87503351D01*
G04 #@! TO.C,F7*
X137177976Y-122959065D02*
X136754643Y-122959065D01*
X136754643Y-123624303D02*
X136754643Y-122354303D01*
X137359405Y-122354303D01*
X137722262Y-122354303D02*
X138568929Y-122354303D01*
X138024643Y-123624303D01*
G04 #@! TO.C,F4*
X137177976Y-95959065D02*
X136754643Y-95959065D01*
X136754643Y-96624303D02*
X136754643Y-95354303D01*
X137359405Y-95354303D01*
X138387500Y-95777637D02*
X138387500Y-96624303D01*
X138085119Y-95293827D02*
X137782738Y-96200970D01*
X138568929Y-96200970D01*
D11*
G04 #@! TO.C,F6*
X124500000Y-118500000D02*
X124500000Y-109500000D01*
X143000000Y-119900000D02*
X145600000Y-119900000D01*
X130400000Y-119900000D02*
X133000000Y-119900000D01*
X151500000Y-118500000D02*
X124500000Y-118500000D01*
X124500000Y-109500000D02*
X151500000Y-109500000D01*
X133000000Y-119900000D02*
X133000000Y-118500000D01*
X151500000Y-109500000D02*
X151500000Y-118500000D01*
X145600000Y-119900000D02*
X145600000Y-118500000D01*
X143000000Y-118500000D02*
X143000000Y-119900000D01*
X130400000Y-118500000D02*
X130400000Y-119900000D01*
X123679580Y-113888000D02*
G75*
G03*
X123679580Y-113888000I-127580J0D01*
G01*
G04 #@! TO.C,J1*
X110250000Y-86050000D02*
X121750000Y-86050000D01*
X119450000Y-105950000D02*
X110250000Y-105950000D01*
X110250000Y-105950000D02*
X110250000Y-86050000D01*
G04 #@! TO.C,J2*
X165750000Y-86050000D02*
X165750000Y-105950000D01*
X165750000Y-105950000D02*
X154250000Y-105950000D01*
X156550000Y-86050000D02*
X165750000Y-86050000D01*
G04 #@! TO.C,F5*
X143000000Y-110900000D02*
X145600000Y-110900000D01*
X124500000Y-100500000D02*
X151500000Y-100500000D01*
X151500000Y-109500000D02*
X124500000Y-109500000D01*
X151500000Y-100500000D02*
X151500000Y-109500000D01*
X130400000Y-110900000D02*
X133000000Y-110900000D01*
X133000000Y-110900000D02*
X133000000Y-109500000D01*
X145600000Y-110900000D02*
X145600000Y-109500000D01*
X143000000Y-109500000D02*
X143000000Y-110900000D01*
X130400000Y-109500000D02*
X130400000Y-110900000D01*
X124500000Y-109500000D02*
X124500000Y-100500000D01*
X123679580Y-104888000D02*
G75*
G03*
X123679580Y-104888000I-127580J0D01*
G01*
G04 #@! TO.C,F1*
X124500000Y-73500000D02*
X124500000Y-64500000D01*
X133000000Y-74900000D02*
X133000000Y-73500000D01*
X145600000Y-74900000D02*
X145600000Y-73500000D01*
X143000000Y-74900000D02*
X145600000Y-74900000D01*
X130400000Y-74900000D02*
X133000000Y-74900000D01*
X151500000Y-64500000D02*
X151500000Y-73500000D01*
X130400000Y-73500000D02*
X130400000Y-74900000D01*
X151500000Y-73500000D02*
X124500000Y-73500000D01*
X124500000Y-64500000D02*
X151500000Y-64500000D01*
X143000000Y-73500000D02*
X143000000Y-74900000D01*
X123679580Y-68888000D02*
G75*
G03*
X123679580Y-68888000I-127580J0D01*
G01*
G04 #@! TO.C,F2*
X124500000Y-82500000D02*
X124500000Y-73500000D01*
X151500000Y-82500000D02*
X124500000Y-82500000D01*
X143000000Y-82500000D02*
X143000000Y-83900000D01*
X130400000Y-82500000D02*
X130400000Y-83900000D01*
X143000000Y-83900000D02*
X145600000Y-83900000D01*
X145600000Y-83900000D02*
X145600000Y-82500000D01*
X151500000Y-73500000D02*
X151500000Y-82500000D01*
X133000000Y-83900000D02*
X133000000Y-82500000D01*
X130400000Y-83900000D02*
X133000000Y-83900000D01*
X124500000Y-73500000D02*
X151500000Y-73500000D01*
X123679580Y-77888000D02*
G75*
G03*
X123679580Y-77888000I-127580J0D01*
G01*
G04 #@! TO.C,F3*
X130400000Y-91500000D02*
X130400000Y-92900000D01*
X145600000Y-92900000D02*
X145600000Y-91500000D01*
X143000000Y-92900000D02*
X145600000Y-92900000D01*
X133000000Y-92900000D02*
X133000000Y-91500000D01*
X143000000Y-91500000D02*
X143000000Y-92900000D01*
X124500000Y-82500000D02*
X151500000Y-82500000D01*
X151500000Y-82500000D02*
X151500000Y-91500000D01*
X130400000Y-92900000D02*
X133000000Y-92900000D01*
X124500000Y-91500000D02*
X124500000Y-82500000D01*
X151500000Y-91500000D02*
X124500000Y-91500000D01*
X123679580Y-86888000D02*
G75*
G03*
X123679580Y-86888000I-127580J0D01*
G01*
G04 #@! TO.C,F7*
X143000000Y-127500000D02*
X143000000Y-128900000D01*
X130400000Y-127500000D02*
X130400000Y-128900000D01*
X143000000Y-128900000D02*
X145600000Y-128900000D01*
X145600000Y-128900000D02*
X145600000Y-127500000D01*
X124500000Y-118500000D02*
X151500000Y-118500000D01*
X130400000Y-128900000D02*
X133000000Y-128900000D01*
X151500000Y-127500000D02*
X124500000Y-127500000D01*
X133000000Y-128900000D02*
X133000000Y-127500000D01*
X124500000Y-127500000D02*
X124500000Y-118500000D01*
X151500000Y-118500000D02*
X151500000Y-127500000D01*
X123679580Y-122888000D02*
G75*
G03*
X123679580Y-122888000I-127580J0D01*
G01*
G04 #@! TO.C,F4*
X133000000Y-101900000D02*
X133000000Y-100500000D01*
X124500000Y-100500000D02*
X124500000Y-91500000D01*
X143000000Y-100500000D02*
X143000000Y-101900000D01*
X130400000Y-100500000D02*
X130400000Y-101900000D01*
X151500000Y-100500000D02*
X124500000Y-100500000D01*
X145600000Y-101900000D02*
X145600000Y-100500000D01*
X143000000Y-101900000D02*
X145600000Y-101900000D01*
X130400000Y-101900000D02*
X133000000Y-101900000D01*
X151500000Y-91500000D02*
X151500000Y-100500000D01*
X124500000Y-91500000D02*
X151500000Y-91500000D01*
X123679580Y-95888000D02*
G75*
G03*
X123679580Y-95888000I-127580J0D01*
G01*
G04 #@! TD*
M02*
