G04 #@! TF.GenerationSoftware,KiCad,Pcbnew,(6.0.9)*
G04 #@! TF.CreationDate,2023-02-23T12:45:50+09:00*
G04 #@! TF.ProjectId,AMS_Temp_SMD,414d535f-5465-46d7-905f-534d442e6b69,rev?*
G04 #@! TF.SameCoordinates,Original*
G04 #@! TF.FileFunction,Copper,L2,Bot*
G04 #@! TF.FilePolarity,Positive*
%FSLAX46Y46*%
G04 Gerber Fmt 4.6, Leading zero omitted, Abs format (unit mm)*
G04 Created by KiCad (PCBNEW (6.0.9)) date 2023-02-23 12:45:50*
%MOMM*%
%LPD*%
G01*
G04 APERTURE LIST*
G04 Aperture macros list*
%AMRoundRect*
0 Rectangle with rounded corners*
0 $1 Rounding radius*
0 $2 $3 $4 $5 $6 $7 $8 $9 X,Y pos of 4 corners*
0 Add a 4 corners polygon primitive as box body*
4,1,4,$2,$3,$4,$5,$6,$7,$8,$9,$2,$3,0*
0 Add four circle primitives for the rounded corners*
1,1,$1+$1,$2,$3*
1,1,$1+$1,$4,$5*
1,1,$1+$1,$6,$7*
1,1,$1+$1,$8,$9*
0 Add four rect primitives between the rounded corners*
20,1,$1+$1,$2,$3,$4,$5,0*
20,1,$1+$1,$4,$5,$6,$7,0*
20,1,$1+$1,$6,$7,$8,$9,0*
20,1,$1+$1,$8,$9,$2,$3,0*%
G04 Aperture macros list end*
G04 #@! TA.AperFunction,ComponentPad*
%ADD10RoundRect,0.250000X0.600000X0.750000X-0.600000X0.750000X-0.600000X-0.750000X0.600000X-0.750000X0*%
G04 #@! TD*
G04 #@! TA.AperFunction,ComponentPad*
%ADD11O,1.700000X2.000000*%
G04 #@! TD*
G04 #@! TA.AperFunction,ComponentPad*
%ADD12RoundRect,0.250000X0.750000X-0.600000X0.750000X0.600000X-0.750000X0.600000X-0.750000X-0.600000X0*%
G04 #@! TD*
G04 #@! TA.AperFunction,ComponentPad*
%ADD13O,2.000000X1.700000*%
G04 #@! TD*
G04 #@! TA.AperFunction,ComponentPad*
%ADD14C,5.600000*%
G04 #@! TD*
G04 #@! TA.AperFunction,ComponentPad*
%ADD15R,1.700000X1.700000*%
G04 #@! TD*
G04 #@! TA.AperFunction,ComponentPad*
%ADD16RoundRect,0.250000X-0.600000X-0.725000X0.600000X-0.725000X0.600000X0.725000X-0.600000X0.725000X0*%
G04 #@! TD*
G04 #@! TA.AperFunction,ComponentPad*
%ADD17O,1.700000X1.950000*%
G04 #@! TD*
G04 #@! TA.AperFunction,ComponentPad*
%ADD18RoundRect,0.250000X-0.725000X0.600000X-0.725000X-0.600000X0.725000X-0.600000X0.725000X0.600000X0*%
G04 #@! TD*
G04 #@! TA.AperFunction,ComponentPad*
%ADD19O,1.950000X1.700000*%
G04 #@! TD*
G04 #@! TA.AperFunction,ComponentPad*
%ADD20O,1.700000X1.700000*%
G04 #@! TD*
G04 #@! TA.AperFunction,ViaPad*
%ADD21C,0.800000*%
G04 #@! TD*
G04 #@! TA.AperFunction,Conductor*
%ADD22C,0.500000*%
G04 #@! TD*
G04 #@! TA.AperFunction,Conductor*
%ADD23C,0.250000*%
G04 #@! TD*
G04 APERTURE END LIST*
D10*
G04 #@! TO.P,J5,1,Pin_1*
G04 #@! TO.N,GND2*
X122100000Y-63450000D03*
D11*
G04 #@! TO.P,J5,2,Pin_2*
G04 #@! TO.N,/A2*
X119600000Y-63450000D03*
G04 #@! TD*
D10*
G04 #@! TO.P,J4,1,Pin_1*
G04 #@! TO.N,GND2*
X130550000Y-63450000D03*
D11*
G04 #@! TO.P,J4,2,Pin_2*
G04 #@! TO.N,/A1*
X128050000Y-63450000D03*
G04 #@! TD*
D10*
G04 #@! TO.P,J6,1,Pin_1*
G04 #@! TO.N,GND2*
X113650000Y-63450000D03*
D11*
G04 #@! TO.P,J6,2,Pin_2*
G04 #@! TO.N,/A3*
X111150000Y-63450000D03*
G04 #@! TD*
D12*
G04 #@! TO.P,J7,1,Pin_1*
G04 #@! TO.N,GND2*
X135550000Y-92250000D03*
D13*
G04 #@! TO.P,J7,2,Pin_2*
G04 #@! TO.N,/A6*
X135550000Y-89750000D03*
G04 #@! TD*
D14*
G04 #@! TO.P,REF\u002A\u002A,1*
G04 #@! TO.N,N/C*
X141000000Y-58000000D03*
G04 #@! TD*
D12*
G04 #@! TO.P,J3,1,Pin_1*
G04 #@! TO.N,GND2*
X135550000Y-75450000D03*
D13*
G04 #@! TO.P,J3,2,Pin_2*
G04 #@! TO.N,/A0*
X135550000Y-72950000D03*
G04 #@! TD*
D15*
G04 #@! TO.P,J12,1,Pin_1*
G04 #@! TO.N,/SCK*
X110125000Y-97700000D03*
G04 #@! TD*
D14*
G04 #@! TO.P,REF\u002A\u002A,1*
G04 #@! TO.N,N/C*
X100000000Y-58000000D03*
G04 #@! TD*
D15*
G04 #@! TO.P,J10,1,Pin_1*
G04 #@! TO.N,/RESET*
X134700000Y-68175000D03*
G04 #@! TD*
D16*
G04 #@! TO.P,J2,1,Pin_1*
G04 #@! TO.N,GND2*
X122150000Y-98450000D03*
D17*
G04 #@! TO.P,J2,2,Pin_2*
G04 #@! TO.N,SCL*
X124650000Y-98450000D03*
G04 #@! TO.P,J2,3,Pin_3*
G04 #@! TO.N,SDA*
X127150000Y-98450000D03*
G04 #@! TO.P,J2,4,Pin_4*
G04 #@! TO.N,+12V*
X129650000Y-98450000D03*
G04 #@! TD*
D14*
G04 #@! TO.P,REF\u002A\u002A,1*
G04 #@! TO.N,N/C*
X141000000Y-104000000D03*
G04 #@! TD*
G04 #@! TO.P,REF\u002A\u002A,1*
G04 #@! TO.N,N/C*
X100000000Y-104000000D03*
G04 #@! TD*
D18*
G04 #@! TO.P,J1,1,Pin_1*
G04 #@! TO.N,+12V*
X105450000Y-88250000D03*
D19*
G04 #@! TO.P,J1,2,Pin_2*
G04 #@! TO.N,SDA*
X105450000Y-90750000D03*
G04 #@! TO.P,J1,3,Pin_3*
G04 #@! TO.N,SCL*
X105450000Y-93250000D03*
G04 #@! TO.P,J1,4,Pin_4*
G04 #@! TO.N,GND2*
X105450000Y-95750000D03*
G04 #@! TD*
D15*
G04 #@! TO.P,J9,1,Pin_1*
G04 #@! TO.N,/MISO*
X134700000Y-96975000D03*
G04 #@! TD*
G04 #@! TO.P,J11,1,Pin_1*
G04 #@! TO.N,/MOSI*
X106300000Y-67450000D03*
D20*
G04 #@! TO.P,J11,2,Pin_2*
G04 #@! TO.N,GND2*
X106300000Y-69990000D03*
G04 #@! TO.P,J11,3,Pin_3*
X106300000Y-72530000D03*
G04 #@! TO.P,J11,4,Pin_4*
G04 #@! TO.N,VCC*
X106300000Y-75070000D03*
G04 #@! TO.P,J11,5,Pin_5*
G04 #@! TO.N,/RXI*
X106300000Y-77610000D03*
G04 #@! TO.P,J11,6,Pin_6*
G04 #@! TO.N,/TXO*
X106300000Y-80150000D03*
G04 #@! TO.P,J11,7,Pin_7*
G04 #@! TO.N,/DTR*
X106300000Y-82690000D03*
G04 #@! TD*
D12*
G04 #@! TO.P,J8,1,Pin_1*
G04 #@! TO.N,GND2*
X135550000Y-83850000D03*
D13*
G04 #@! TO.P,J8,2,Pin_2*
G04 #@! TO.N,/A7*
X135550000Y-81350000D03*
G04 #@! TD*
D21*
G04 #@! TO.N,GND2*
X109600000Y-94500000D03*
X135200000Y-87800000D03*
X103500000Y-61800000D03*
X102900000Y-75000000D03*
X133800000Y-77300000D03*
X101100000Y-97200000D03*
X135600000Y-64500000D03*
X119200000Y-86100000D03*
X119500000Y-83100000D03*
X107100000Y-97600000D03*
X115600000Y-63400000D03*
X141600000Y-64300000D03*
X133900000Y-94100000D03*
X109100000Y-71200000D03*
X118700000Y-98900000D03*
X129700000Y-74400000D03*
X113500000Y-92000000D03*
X99300000Y-72500000D03*
X133500000Y-73900000D03*
X129900000Y-91300000D03*
X111400000Y-89300000D03*
X138000000Y-61500000D03*
X125500000Y-91900000D03*
X131500000Y-96800000D03*
X99400000Y-64300000D03*
X131000000Y-105400000D03*
X114700000Y-74300000D03*
X134800000Y-105300000D03*
X139300000Y-71300000D03*
X99100000Y-91900000D03*
X125900000Y-72900000D03*
X133500000Y-90800000D03*
X112400000Y-76100000D03*
X99200000Y-77600000D03*
X120600000Y-89800000D03*
X129200000Y-65600000D03*
X119800000Y-76900000D03*
X131700000Y-69300000D03*
X109200000Y-81300000D03*
X114600000Y-82000000D03*
X107300000Y-92000000D03*
X109100000Y-73800000D03*
X114700000Y-79500000D03*
X124100000Y-63500000D03*
X125900000Y-102900000D03*
X129300000Y-88000000D03*
X98700000Y-99900000D03*
X126900000Y-56900000D03*
X132100000Y-59700000D03*
X123600000Y-74700000D03*
X99400000Y-82700000D03*
X120600000Y-65800000D03*
X115300000Y-86100000D03*
X112300000Y-71800000D03*
X134700000Y-100700000D03*
X126200000Y-62100000D03*
X109300000Y-84400000D03*
X119900000Y-74700000D03*
X109600000Y-56600000D03*
X106200000Y-63700000D03*
X113800000Y-105500000D03*
X117300000Y-102800000D03*
X131800000Y-67000000D03*
X123700000Y-77700000D03*
X111400000Y-78000000D03*
X117800000Y-63400000D03*
X141900000Y-85400000D03*
X117300000Y-72700000D03*
X139400000Y-79800000D03*
X131700000Y-88000000D03*
X101100000Y-86800000D03*
X137400000Y-102300000D03*
X126000000Y-95000000D03*
X109300000Y-65200000D03*
X141800000Y-99900000D03*
X120500000Y-93100000D03*
X118600000Y-95600000D03*
X131700000Y-79500000D03*
X123500000Y-59700000D03*
X126500000Y-69900000D03*
X120800000Y-105400000D03*
X129100000Y-71400000D03*
X126200000Y-65100000D03*
X135600000Y-57000000D03*
X112600000Y-80900000D03*
X104300000Y-105500000D03*
X103000000Y-80200000D03*
X103400000Y-100600000D03*
X118200000Y-56600000D03*
X139100000Y-88300000D03*
X114100000Y-99000000D03*
X115000000Y-59900000D03*
X105200000Y-84800000D03*
X107500000Y-89400000D03*
X141900000Y-76900000D03*
X106000000Y-58000000D03*
X141900000Y-93600000D03*
X108000000Y-104200000D03*
X102900000Y-70100000D03*
G04 #@! TO.N,/RESET*
X128774500Y-69800000D03*
G04 #@! TO.N,/DTR*
X113012299Y-74112299D03*
G04 #@! TO.N,/A0*
X129000000Y-73000000D03*
G04 #@! TO.N,/A1*
X128037701Y-73537701D03*
G04 #@! TO.N,/A2*
X125200000Y-69651000D03*
G04 #@! TO.N,/A3*
X123600000Y-69651000D03*
G04 #@! TO.N,/A6*
X128000000Y-78200000D03*
G04 #@! TO.N,/A7*
X128000000Y-75800000D03*
G04 #@! TO.N,SDA*
X122800000Y-70375500D03*
G04 #@! TO.N,SCL*
X122000000Y-71100000D03*
G04 #@! TO.N,/TXO*
X115800000Y-71600000D03*
G04 #@! TO.N,/RXI*
X114550000Y-70850000D03*
G04 #@! TO.N,/MOSI*
X123100000Y-83000000D03*
G04 #@! TO.N,/MISO*
X124900000Y-83000000D03*
X127000000Y-92200000D03*
G04 #@! TD*
D22*
G04 #@! TO.N,+12V*
X102875000Y-90825000D02*
X105450000Y-88250000D01*
X106775432Y-101225000D02*
X102875000Y-97324568D01*
X102875000Y-97324568D02*
X102875000Y-90825000D01*
X106775432Y-101225000D02*
X126875000Y-101225000D01*
X126875000Y-101225000D02*
X129650000Y-98450000D01*
D23*
G04 #@! TO.N,/RESET*
X128774500Y-69800000D02*
X130399500Y-68175000D01*
X130399500Y-68175000D02*
X134700000Y-68175000D01*
G04 #@! TO.N,/DTR*
X108200000Y-78924598D02*
X108200000Y-80775000D01*
X113012299Y-74112299D02*
X108200000Y-78924598D01*
X108200000Y-80775000D02*
X106300000Y-82675000D01*
G04 #@! TO.N,/A0*
X135500000Y-73000000D02*
X135550000Y-72950000D01*
X129000000Y-73000000D02*
X135500000Y-73000000D01*
G04 #@! TO.N,/A1*
X128050000Y-73525402D02*
X128050000Y-63450000D01*
X128037701Y-73537701D02*
X128050000Y-73525402D01*
G04 #@! TO.N,/A2*
X125200000Y-69651000D02*
X125200000Y-63300000D01*
X123900000Y-62000000D02*
X121050000Y-62000000D01*
X125200000Y-63300000D02*
X123900000Y-62000000D01*
X121050000Y-62000000D02*
X119600000Y-63450000D01*
G04 #@! TO.N,/A3*
X122400000Y-64900000D02*
X112600000Y-64900000D01*
X123600000Y-69651000D02*
X123600000Y-66100000D01*
X112600000Y-64900000D02*
X111150000Y-63450000D01*
X123600000Y-66100000D02*
X122400000Y-64900000D01*
G04 #@! TO.N,/A6*
X133600000Y-87800000D02*
X135550000Y-89750000D01*
X128000000Y-78200000D02*
X132400000Y-78200000D01*
X132400000Y-78200000D02*
X133600000Y-79400000D01*
X133600000Y-79400000D02*
X133600000Y-87800000D01*
G04 #@! TO.N,/A7*
X131600000Y-76700000D02*
X135550000Y-80650000D01*
X135550000Y-80650000D02*
X135550000Y-81350000D01*
X128000000Y-75800000D02*
X128900000Y-76700000D01*
X128900000Y-76700000D02*
X131600000Y-76700000D01*
G04 #@! TO.N,SDA*
X103450000Y-92750000D02*
X103450000Y-97086396D01*
X128250000Y-97350000D02*
X127150000Y-98450000D01*
X107013604Y-100650000D02*
X124950000Y-100650000D01*
X122800000Y-70375500D02*
X125575500Y-70375500D01*
X127200000Y-82427208D02*
X128250000Y-83477208D01*
X125575500Y-70375500D02*
X127200000Y-72000000D01*
X103450000Y-97086396D02*
X107013604Y-100650000D01*
X124950000Y-100650000D02*
X127150000Y-98450000D01*
X105450000Y-90750000D02*
X103450000Y-92750000D01*
X128250000Y-83477208D02*
X128250000Y-97350000D01*
X127200000Y-72000000D02*
X127200000Y-82427208D01*
G04 #@! TO.N,SCL*
X122900000Y-100200000D02*
X124650000Y-98450000D01*
X126750000Y-72186396D02*
X126750000Y-82613604D01*
X127800000Y-83663604D02*
X127800000Y-95300000D01*
X105450000Y-93250000D02*
X103900000Y-94800000D01*
X126750000Y-82613604D02*
X127800000Y-83663604D01*
X122000000Y-71100000D02*
X125663604Y-71100000D01*
X127800000Y-95300000D02*
X124650000Y-98450000D01*
X103900000Y-94800000D02*
X103900000Y-96900000D01*
X125663604Y-71100000D02*
X126750000Y-72186396D01*
X107200000Y-100200000D02*
X122900000Y-100200000D01*
X103900000Y-96900000D02*
X107200000Y-100200000D01*
G04 #@! TO.N,/TXO*
X106300000Y-79800000D02*
X106300000Y-80135000D01*
X114500000Y-71600000D02*
X106300000Y-79800000D01*
X115800000Y-71600000D02*
X114500000Y-71600000D01*
G04 #@! TO.N,/RXI*
X114550000Y-70850000D02*
X107805000Y-77595000D01*
X107805000Y-77595000D02*
X106300000Y-77595000D01*
G04 #@! TO.N,/MOSI*
X118900000Y-69500000D02*
X117700000Y-68300000D01*
X121100000Y-83000000D02*
X118900000Y-80800000D01*
X123100000Y-83000000D02*
X121100000Y-83000000D01*
X118900000Y-80800000D02*
X118900000Y-69500000D01*
X117700000Y-68300000D02*
X107150000Y-68300000D01*
X107150000Y-68300000D02*
X106300000Y-67450000D01*
G04 #@! TO.N,/MISO*
X126500000Y-83000000D02*
X124900000Y-83000000D01*
X127000000Y-92200000D02*
X127000000Y-83500000D01*
X127000000Y-83500000D02*
X126500000Y-83000000D01*
G04 #@! TD*
G04 #@! TA.AperFunction,Conductor*
G04 #@! TO.N,GND2*
G36*
X139831052Y-55020002D02*
G01*
X139877545Y-55073658D01*
X139887649Y-55143932D01*
X139858155Y-55208512D01*
X139817176Y-55239726D01*
X139552048Y-55366186D01*
X139258921Y-55550064D01*
X139256087Y-55552334D01*
X139256082Y-55552338D01*
X139087066Y-55687746D01*
X138988871Y-55766415D01*
X138745477Y-56012371D01*
X138531966Y-56284672D01*
X138351168Y-56579709D01*
X138349641Y-56582999D01*
X138349636Y-56583008D01*
X138240435Y-56818262D01*
X138205478Y-56893570D01*
X138096828Y-57222097D01*
X138026658Y-57560935D01*
X137995898Y-57905592D01*
X138004956Y-58251501D01*
X138053712Y-58594076D01*
X138141519Y-58928777D01*
X138267214Y-59251167D01*
X138429130Y-59556974D01*
X138431180Y-59559957D01*
X138431182Y-59559960D01*
X138623065Y-59839152D01*
X138623071Y-59839159D01*
X138625122Y-59842144D01*
X138852592Y-60102898D01*
X139108524Y-60335778D01*
X139389527Y-60537699D01*
X139691876Y-60705985D01*
X140011563Y-60838403D01*
X140015057Y-60839398D01*
X140015059Y-60839399D01*
X140340851Y-60932204D01*
X140340856Y-60932205D01*
X140344352Y-60933201D01*
X140580034Y-60971795D01*
X140682251Y-60988534D01*
X140682255Y-60988534D01*
X140685831Y-60989120D01*
X140689457Y-60989291D01*
X141027847Y-61005249D01*
X141027848Y-61005249D01*
X141031474Y-61005420D01*
X141042346Y-61004679D01*
X141373069Y-60982133D01*
X141373077Y-60982132D01*
X141376700Y-60981885D01*
X141380276Y-60981222D01*
X141380278Y-60981222D01*
X141713368Y-60919488D01*
X141713372Y-60919487D01*
X141716933Y-60918827D01*
X142047663Y-60817081D01*
X142364507Y-60677996D01*
X142663265Y-60503416D01*
X142666174Y-60501232D01*
X142937071Y-60297837D01*
X142937075Y-60297834D01*
X142939978Y-60295654D01*
X143190977Y-60057465D01*
X143412936Y-59792005D01*
X143565361Y-59559960D01*
X143600926Y-59505818D01*
X143600931Y-59505809D01*
X143602913Y-59502792D01*
X143758390Y-59193662D01*
X143758713Y-59192779D01*
X143803772Y-59138626D01*
X143871478Y-59117264D01*
X143939986Y-59135899D01*
X143987543Y-59188613D01*
X144000000Y-59243239D01*
X144000000Y-102768828D01*
X143979998Y-102836949D01*
X143926342Y-102883442D01*
X143856068Y-102893546D01*
X143791488Y-102864052D01*
X143758102Y-102818262D01*
X143693562Y-102666949D01*
X143693560Y-102666946D01*
X143692138Y-102663611D01*
X143520696Y-102363041D01*
X143461030Y-102281815D01*
X143317986Y-102087086D01*
X143315843Y-102084168D01*
X143080295Y-101830688D01*
X142817174Y-101605962D01*
X142529967Y-101412967D01*
X142222482Y-101254261D01*
X141898793Y-101131950D01*
X141563190Y-101047652D01*
X141418981Y-101028667D01*
X141223728Y-101002961D01*
X141223720Y-101002960D01*
X141220124Y-101002487D01*
X141068991Y-101000112D01*
X140877780Y-100997108D01*
X140877776Y-100997108D01*
X140874139Y-100997051D01*
X140870524Y-100997412D01*
X140870520Y-100997412D01*
X140702646Y-101014169D01*
X140529823Y-101031419D01*
X140526286Y-101032190D01*
X140526281Y-101032191D01*
X140195283Y-101104360D01*
X140195278Y-101104361D01*
X140191739Y-101105133D01*
X139864367Y-101217217D01*
X139552048Y-101366186D01*
X139258921Y-101550064D01*
X139256087Y-101552334D01*
X139256082Y-101552338D01*
X139101262Y-101676373D01*
X138988871Y-101766415D01*
X138745477Y-102012371D01*
X138531966Y-102284672D01*
X138351168Y-102579709D01*
X138349641Y-102582999D01*
X138349636Y-102583008D01*
X138240435Y-102818262D01*
X138205478Y-102893570D01*
X138096828Y-103222097D01*
X138026658Y-103560935D01*
X137995898Y-103905592D01*
X138004956Y-104251501D01*
X138053712Y-104594076D01*
X138141519Y-104928777D01*
X138267214Y-105251167D01*
X138429130Y-105556974D01*
X138431180Y-105559957D01*
X138431182Y-105559960D01*
X138623065Y-105839152D01*
X138623071Y-105839159D01*
X138625122Y-105842144D01*
X138852592Y-106102898D01*
X139108524Y-106335778D01*
X139389527Y-106537699D01*
X139691876Y-106705985D01*
X139695225Y-106707372D01*
X139816465Y-106757591D01*
X139871746Y-106802139D01*
X139894167Y-106869502D01*
X139876609Y-106938294D01*
X139824647Y-106986672D01*
X139768247Y-107000000D01*
X101231470Y-107000000D01*
X101163349Y-106979998D01*
X101116856Y-106926342D01*
X101106752Y-106856068D01*
X101136246Y-106791488D01*
X101180823Y-106758628D01*
X101364507Y-106677996D01*
X101663265Y-106503416D01*
X101666174Y-106501232D01*
X101937071Y-106297837D01*
X101937075Y-106297834D01*
X101939978Y-106295654D01*
X102190977Y-106057465D01*
X102412936Y-105792005D01*
X102565361Y-105559960D01*
X102600926Y-105505818D01*
X102600931Y-105505809D01*
X102602913Y-105502792D01*
X102731169Y-105247785D01*
X102756763Y-105196898D01*
X102756766Y-105196890D01*
X102758390Y-105193662D01*
X102759635Y-105190260D01*
X102876057Y-104872122D01*
X102876060Y-104872112D01*
X102877305Y-104868710D01*
X102878150Y-104865188D01*
X102878153Y-104865180D01*
X102957237Y-104535772D01*
X102957238Y-104535768D01*
X102958084Y-104532243D01*
X102958521Y-104528633D01*
X102999318Y-104191501D01*
X102999318Y-104191495D01*
X102999654Y-104188722D01*
X103005585Y-104000000D01*
X103000351Y-103909223D01*
X102985875Y-103658167D01*
X102985874Y-103658162D01*
X102985666Y-103654547D01*
X102985043Y-103650977D01*
X102926798Y-103317245D01*
X102926796Y-103317238D01*
X102926174Y-103313672D01*
X102827897Y-102981894D01*
X102790224Y-102893570D01*
X102693562Y-102666949D01*
X102693560Y-102666946D01*
X102692138Y-102663611D01*
X102520696Y-102363041D01*
X102461030Y-102281815D01*
X102317986Y-102087086D01*
X102315843Y-102084168D01*
X102080295Y-101830688D01*
X101817174Y-101605962D01*
X101529967Y-101412967D01*
X101222482Y-101254261D01*
X100898793Y-101131950D01*
X100563190Y-101047652D01*
X100418981Y-101028667D01*
X100223728Y-101002961D01*
X100223720Y-101002960D01*
X100220124Y-101002487D01*
X100068991Y-101000112D01*
X99877780Y-100997108D01*
X99877776Y-100997108D01*
X99874139Y-100997051D01*
X99870524Y-100997412D01*
X99870520Y-100997412D01*
X99702646Y-101014169D01*
X99529823Y-101031419D01*
X99526286Y-101032190D01*
X99526281Y-101032191D01*
X99195283Y-101104360D01*
X99195278Y-101104361D01*
X99191739Y-101105133D01*
X98864367Y-101217217D01*
X98552048Y-101366186D01*
X98258921Y-101550064D01*
X98256087Y-101552334D01*
X98256082Y-101552338D01*
X98101262Y-101676373D01*
X97988871Y-101766415D01*
X97745477Y-102012371D01*
X97531966Y-102284672D01*
X97351168Y-102579709D01*
X97349641Y-102582999D01*
X97349636Y-102583008D01*
X97240287Y-102818581D01*
X97193463Y-102871948D01*
X97125220Y-102891528D01*
X97057225Y-102871104D01*
X97011065Y-102817162D01*
X97000000Y-102765530D01*
X97000000Y-97338878D01*
X102419636Y-97338878D01*
X102421328Y-97348142D01*
X102421328Y-97348143D01*
X102430172Y-97396569D01*
X102430822Y-97400472D01*
X102437025Y-97441726D01*
X102439551Y-97458530D01*
X102442679Y-97465043D01*
X102443975Y-97472141D01*
X102471025Y-97524215D01*
X102472768Y-97527705D01*
X102498191Y-97580647D01*
X102503077Y-97585933D01*
X102503106Y-97585975D01*
X102506421Y-97592356D01*
X102510725Y-97597396D01*
X102547952Y-97634623D01*
X102551381Y-97638188D01*
X102590146Y-97680124D01*
X102596505Y-97683817D01*
X102602663Y-97689334D01*
X106432679Y-101519350D01*
X106442533Y-101530439D01*
X106456480Y-101548129D01*
X106463560Y-101557110D01*
X106471308Y-101562465D01*
X106471310Y-101562467D01*
X106511832Y-101590474D01*
X106515051Y-101592774D01*
X106532907Y-101605962D01*
X106562249Y-101627634D01*
X106569063Y-101630027D01*
X106575001Y-101634131D01*
X106583981Y-101636971D01*
X106630923Y-101651817D01*
X106634679Y-101653070D01*
X106690063Y-101672520D01*
X106697249Y-101672803D01*
X106697320Y-101672817D01*
X106704162Y-101674980D01*
X106710769Y-101675500D01*
X106763438Y-101675500D01*
X106768384Y-101675597D01*
X106825426Y-101677838D01*
X106832532Y-101675954D01*
X106840779Y-101675500D01*
X126840780Y-101675500D01*
X126855589Y-101676373D01*
X126889310Y-101680364D01*
X126898574Y-101678672D01*
X126898575Y-101678672D01*
X126947001Y-101669828D01*
X126950904Y-101669178D01*
X126999645Y-101661850D01*
X126999646Y-101661850D01*
X127008962Y-101660449D01*
X127015475Y-101657321D01*
X127022573Y-101656025D01*
X127074647Y-101628975D01*
X127078137Y-101627232D01*
X127131079Y-101601809D01*
X127136365Y-101596923D01*
X127136413Y-101596890D01*
X127142788Y-101593579D01*
X127147828Y-101589275D01*
X127185055Y-101552048D01*
X127188621Y-101548618D01*
X127223641Y-101516246D01*
X127230556Y-101509854D01*
X127234249Y-101503495D01*
X127239766Y-101497337D01*
X129147533Y-99589570D01*
X129209845Y-99555544D01*
X129273886Y-99558300D01*
X129437746Y-99609023D01*
X129443871Y-99609667D01*
X129443872Y-99609667D01*
X129636502Y-99629913D01*
X129636504Y-99629913D01*
X129642631Y-99630557D01*
X129729471Y-99622654D01*
X129841658Y-99612445D01*
X129841661Y-99612444D01*
X129847797Y-99611886D01*
X130045428Y-99553720D01*
X130227998Y-99458274D01*
X130232799Y-99454414D01*
X130232802Y-99454412D01*
X130383746Y-99333050D01*
X130383747Y-99333050D01*
X130388553Y-99329185D01*
X130520976Y-99171370D01*
X130523944Y-99165972D01*
X130523947Y-99165967D01*
X130617257Y-98996235D01*
X130620224Y-98990838D01*
X130682516Y-98794468D01*
X130683474Y-98785932D01*
X130694880Y-98684239D01*
X130700500Y-98634136D01*
X130700500Y-98273159D01*
X130685480Y-98119970D01*
X130625935Y-97922749D01*
X130584462Y-97844748D01*
X133649500Y-97844748D01*
X133661133Y-97903231D01*
X133705448Y-97969552D01*
X133771769Y-98013867D01*
X133783938Y-98016288D01*
X133783939Y-98016288D01*
X133824184Y-98024293D01*
X133830252Y-98025500D01*
X135569748Y-98025500D01*
X135575816Y-98024293D01*
X135616061Y-98016288D01*
X135616062Y-98016288D01*
X135628231Y-98013867D01*
X135694552Y-97969552D01*
X135738867Y-97903231D01*
X135750500Y-97844748D01*
X135750500Y-96105252D01*
X135738867Y-96046769D01*
X135694552Y-95980448D01*
X135628231Y-95936133D01*
X135616062Y-95933712D01*
X135616061Y-95933712D01*
X135575816Y-95925707D01*
X135569748Y-95924500D01*
X133830252Y-95924500D01*
X133824184Y-95925707D01*
X133783939Y-95933712D01*
X133783938Y-95933712D01*
X133771769Y-95936133D01*
X133705448Y-95980448D01*
X133661133Y-96046769D01*
X133649500Y-96105252D01*
X133649500Y-97844748D01*
X130584462Y-97844748D01*
X130529218Y-97740849D01*
X130442582Y-97634623D01*
X130402906Y-97585975D01*
X130402903Y-97585972D01*
X130399011Y-97581200D01*
X130394038Y-97577086D01*
X130245025Y-97453811D01*
X130245021Y-97453809D01*
X130240275Y-97449882D01*
X130084685Y-97365755D01*
X130064474Y-97354827D01*
X130059055Y-97351897D01*
X129862254Y-97290977D01*
X129856129Y-97290333D01*
X129856128Y-97290333D01*
X129663498Y-97270087D01*
X129663496Y-97270087D01*
X129657369Y-97269443D01*
X129570529Y-97277346D01*
X129458342Y-97287555D01*
X129458339Y-97287556D01*
X129452203Y-97288114D01*
X129254572Y-97346280D01*
X129072002Y-97441726D01*
X129067201Y-97445586D01*
X129067198Y-97445588D01*
X128969453Y-97524177D01*
X128911447Y-97570815D01*
X128779024Y-97728630D01*
X128776056Y-97734028D01*
X128776053Y-97734033D01*
X128769315Y-97746290D01*
X128679776Y-97909162D01*
X128617484Y-98105532D01*
X128616798Y-98111649D01*
X128616797Y-98111653D01*
X128609368Y-98177885D01*
X128599500Y-98265864D01*
X128599500Y-98626841D01*
X128611506Y-98749293D01*
X128614520Y-98780030D01*
X128612387Y-98780239D01*
X128606871Y-98841281D01*
X128578755Y-98884142D01*
X128316646Y-99146251D01*
X128254334Y-99180277D01*
X128183519Y-99175212D01*
X128126683Y-99132665D01*
X128101872Y-99066145D01*
X128115847Y-99002342D01*
X128114827Y-99001905D01*
X128117110Y-98996578D01*
X128117137Y-98996455D01*
X128117254Y-98996243D01*
X128117259Y-98996231D01*
X128120224Y-98990838D01*
X128182516Y-98794468D01*
X128183474Y-98785932D01*
X128194880Y-98684239D01*
X128200500Y-98634136D01*
X128200500Y-98273159D01*
X128185480Y-98119970D01*
X128156958Y-98025500D01*
X128150431Y-98003881D01*
X128149890Y-97932886D01*
X128181958Y-97878368D01*
X128466215Y-97594111D01*
X128474319Y-97586684D01*
X128494749Y-97569541D01*
X128503194Y-97562455D01*
X128508707Y-97552906D01*
X128522039Y-97529815D01*
X128527945Y-97520544D01*
X128543230Y-97498715D01*
X128549554Y-97489684D01*
X128552408Y-97479034D01*
X128553885Y-97475866D01*
X128555077Y-97472590D01*
X128560588Y-97463045D01*
X128567130Y-97425942D01*
X128569509Y-97415210D01*
X128579264Y-97378807D01*
X128575980Y-97341272D01*
X128575500Y-97330290D01*
X128575500Y-92897095D01*
X134042001Y-92897095D01*
X134042338Y-92903614D01*
X134052257Y-92999206D01*
X134055149Y-93012600D01*
X134106588Y-93166784D01*
X134112761Y-93179962D01*
X134198063Y-93317807D01*
X134207099Y-93329208D01*
X134321829Y-93443739D01*
X134333240Y-93452751D01*
X134471243Y-93537816D01*
X134484424Y-93543963D01*
X134638710Y-93595138D01*
X134652086Y-93598005D01*
X134746438Y-93607672D01*
X134752854Y-93608000D01*
X135277885Y-93608000D01*
X135293124Y-93603525D01*
X135294329Y-93602135D01*
X135296000Y-93594452D01*
X135296000Y-93589884D01*
X135804000Y-93589884D01*
X135808475Y-93605123D01*
X135809865Y-93606328D01*
X135817548Y-93607999D01*
X136347095Y-93607999D01*
X136353614Y-93607662D01*
X136449206Y-93597743D01*
X136462600Y-93594851D01*
X136616784Y-93543412D01*
X136629962Y-93537239D01*
X136767807Y-93451937D01*
X136779208Y-93442901D01*
X136893739Y-93328171D01*
X136902751Y-93316760D01*
X136987816Y-93178757D01*
X136993963Y-93165576D01*
X137045138Y-93011290D01*
X137048005Y-92997914D01*
X137057672Y-92903562D01*
X137058000Y-92897146D01*
X137058000Y-92522115D01*
X137053525Y-92506876D01*
X137052135Y-92505671D01*
X137044452Y-92504000D01*
X135822115Y-92504000D01*
X135806876Y-92508475D01*
X135805671Y-92509865D01*
X135804000Y-92517548D01*
X135804000Y-93589884D01*
X135296000Y-93589884D01*
X135296000Y-92522115D01*
X135291525Y-92506876D01*
X135290135Y-92505671D01*
X135282452Y-92504000D01*
X134060116Y-92504000D01*
X134044877Y-92508475D01*
X134043672Y-92509865D01*
X134042001Y-92517548D01*
X134042001Y-92897095D01*
X128575500Y-92897095D01*
X128575500Y-83496921D01*
X128575979Y-83485940D01*
X128578303Y-83459378D01*
X128578303Y-83459376D01*
X128579263Y-83448401D01*
X128569508Y-83411991D01*
X128567133Y-83401280D01*
X128562501Y-83375014D01*
X128560588Y-83364163D01*
X128555078Y-83354619D01*
X128553886Y-83351343D01*
X128552407Y-83348172D01*
X128549554Y-83337524D01*
X128527940Y-83306656D01*
X128522036Y-83297387D01*
X128508707Y-83274300D01*
X128508704Y-83274296D01*
X128503194Y-83264753D01*
X128474330Y-83240533D01*
X128466227Y-83233108D01*
X128015312Y-82782193D01*
X127562405Y-82329287D01*
X127528380Y-82266974D01*
X127525500Y-82240191D01*
X127525500Y-78842005D01*
X127545502Y-78773884D01*
X127599158Y-78727391D01*
X127669432Y-78717287D01*
X127699718Y-78725596D01*
X127757534Y-78749544D01*
X127843238Y-78785044D01*
X128000000Y-78805682D01*
X128008188Y-78804604D01*
X128148574Y-78786122D01*
X128156762Y-78785044D01*
X128302841Y-78724536D01*
X128428282Y-78628282D01*
X128469323Y-78574796D01*
X128526661Y-78532929D01*
X128569286Y-78525500D01*
X132212984Y-78525500D01*
X132281105Y-78545502D01*
X132302075Y-78562401D01*
X133237597Y-79497924D01*
X133271621Y-79560234D01*
X133274500Y-79587017D01*
X133274500Y-87780290D01*
X133274020Y-87791272D01*
X133270736Y-87828807D01*
X133273590Y-87839456D01*
X133280491Y-87865210D01*
X133282870Y-87875942D01*
X133289412Y-87913045D01*
X133294923Y-87922590D01*
X133296115Y-87925866D01*
X133297592Y-87929034D01*
X133300446Y-87939684D01*
X133306770Y-87948715D01*
X133322055Y-87970544D01*
X133327961Y-87979815D01*
X133341293Y-88002906D01*
X133346806Y-88012455D01*
X133355251Y-88019541D01*
X133375682Y-88036685D01*
X133383785Y-88044111D01*
X134449529Y-89109855D01*
X134483555Y-89172167D01*
X134478490Y-89242982D01*
X134471271Y-89258877D01*
X134426897Y-89340945D01*
X134365977Y-89537746D01*
X134365333Y-89543871D01*
X134365333Y-89543872D01*
X134364458Y-89552203D01*
X134344443Y-89742631D01*
X134363114Y-89947797D01*
X134421280Y-90145428D01*
X134424137Y-90150893D01*
X134444967Y-90190737D01*
X134516726Y-90327998D01*
X134520586Y-90332799D01*
X134520588Y-90332802D01*
X134640745Y-90482247D01*
X134645815Y-90488553D01*
X134803630Y-90620976D01*
X134809031Y-90623945D01*
X134809041Y-90623952D01*
X134866585Y-90655587D01*
X134916644Y-90705932D01*
X134931537Y-90775349D01*
X134906536Y-90841798D01*
X134849579Y-90884182D01*
X134805884Y-90892001D01*
X134752905Y-90892001D01*
X134746386Y-90892338D01*
X134650794Y-90902257D01*
X134637400Y-90905149D01*
X134483216Y-90956588D01*
X134470038Y-90962761D01*
X134332193Y-91048063D01*
X134320792Y-91057099D01*
X134206261Y-91171829D01*
X134197249Y-91183240D01*
X134112184Y-91321243D01*
X134106037Y-91334424D01*
X134054862Y-91488710D01*
X134051995Y-91502086D01*
X134042328Y-91596438D01*
X134042000Y-91602855D01*
X134042000Y-91977885D01*
X134046475Y-91993124D01*
X134047865Y-91994329D01*
X134055548Y-91996000D01*
X137039884Y-91996000D01*
X137055123Y-91991525D01*
X137056328Y-91990135D01*
X137057999Y-91982452D01*
X137057999Y-91602905D01*
X137057662Y-91596386D01*
X137047743Y-91500794D01*
X137044851Y-91487400D01*
X136993412Y-91333216D01*
X136987239Y-91320038D01*
X136901937Y-91182193D01*
X136892901Y-91170792D01*
X136778171Y-91056261D01*
X136766760Y-91047249D01*
X136628757Y-90962184D01*
X136615576Y-90956037D01*
X136461290Y-90904862D01*
X136447914Y-90901995D01*
X136353562Y-90892328D01*
X136347145Y-90892000D01*
X136295289Y-90892000D01*
X136227168Y-90871998D01*
X136180675Y-90818342D01*
X136170571Y-90748068D01*
X136200065Y-90683488D01*
X136236136Y-90654749D01*
X136278702Y-90632116D01*
X136278708Y-90632112D01*
X136284151Y-90629218D01*
X136388795Y-90543872D01*
X136439025Y-90502906D01*
X136439028Y-90502903D01*
X136443800Y-90499011D01*
X136449170Y-90492520D01*
X136571189Y-90345025D01*
X136571191Y-90345021D01*
X136575118Y-90340275D01*
X136673103Y-90159055D01*
X136734023Y-89962254D01*
X136734922Y-89953705D01*
X136754913Y-89763498D01*
X136754913Y-89763496D01*
X136755557Y-89757369D01*
X136736886Y-89552203D01*
X136678720Y-89354572D01*
X136583274Y-89172002D01*
X136461847Y-89020976D01*
X136458050Y-89016254D01*
X136458050Y-89016253D01*
X136454185Y-89011447D01*
X136296370Y-88879024D01*
X136290972Y-88876056D01*
X136290967Y-88876053D01*
X136121235Y-88782743D01*
X136115838Y-88779776D01*
X135919468Y-88717484D01*
X135913351Y-88716798D01*
X135913347Y-88716797D01*
X135837126Y-88708248D01*
X135759136Y-88699500D01*
X135348159Y-88699500D01*
X135194970Y-88714520D01*
X135185153Y-88717484D01*
X135098083Y-88743771D01*
X135027089Y-88744312D01*
X134972571Y-88712244D01*
X133962405Y-87702079D01*
X133928380Y-87639767D01*
X133925500Y-87612984D01*
X133925500Y-84920410D01*
X133945502Y-84852289D01*
X133999158Y-84805796D01*
X134069432Y-84795692D01*
X134134012Y-84825186D01*
X134158644Y-84854107D01*
X134198063Y-84917807D01*
X134207099Y-84929208D01*
X134321829Y-85043739D01*
X134333240Y-85052751D01*
X134471243Y-85137816D01*
X134484424Y-85143963D01*
X134638710Y-85195138D01*
X134652086Y-85198005D01*
X134746438Y-85207672D01*
X134752854Y-85208000D01*
X135277885Y-85208000D01*
X135293124Y-85203525D01*
X135294329Y-85202135D01*
X135296000Y-85194452D01*
X135296000Y-85189884D01*
X135804000Y-85189884D01*
X135808475Y-85205123D01*
X135809865Y-85206328D01*
X135817548Y-85207999D01*
X136347095Y-85207999D01*
X136353614Y-85207662D01*
X136449206Y-85197743D01*
X136462600Y-85194851D01*
X136616784Y-85143412D01*
X136629962Y-85137239D01*
X136767807Y-85051937D01*
X136779208Y-85042901D01*
X136893739Y-84928171D01*
X136902751Y-84916760D01*
X136987816Y-84778757D01*
X136993963Y-84765576D01*
X137045138Y-84611290D01*
X137048005Y-84597914D01*
X137057672Y-84503562D01*
X137058000Y-84497146D01*
X137058000Y-84122115D01*
X137053525Y-84106876D01*
X137052135Y-84105671D01*
X137044452Y-84104000D01*
X135822115Y-84104000D01*
X135806876Y-84108475D01*
X135805671Y-84109865D01*
X135804000Y-84117548D01*
X135804000Y-85189884D01*
X135296000Y-85189884D01*
X135296000Y-83722000D01*
X135316002Y-83653879D01*
X135369658Y-83607386D01*
X135422000Y-83596000D01*
X137039884Y-83596000D01*
X137055123Y-83591525D01*
X137056328Y-83590135D01*
X137057999Y-83582452D01*
X137057999Y-83202905D01*
X137057662Y-83196386D01*
X137047743Y-83100794D01*
X137044851Y-83087400D01*
X136993412Y-82933216D01*
X136987239Y-82920038D01*
X136901937Y-82782193D01*
X136892901Y-82770792D01*
X136778171Y-82656261D01*
X136766760Y-82647249D01*
X136628757Y-82562184D01*
X136615576Y-82556037D01*
X136461290Y-82504862D01*
X136447914Y-82501995D01*
X136353562Y-82492328D01*
X136347145Y-82492000D01*
X136295289Y-82492000D01*
X136227168Y-82471998D01*
X136180675Y-82418342D01*
X136170571Y-82348068D01*
X136200065Y-82283488D01*
X136236136Y-82254749D01*
X136278702Y-82232116D01*
X136278708Y-82232112D01*
X136284151Y-82229218D01*
X136395969Y-82138021D01*
X136439025Y-82102906D01*
X136439028Y-82102903D01*
X136443800Y-82099011D01*
X136452452Y-82088553D01*
X136571189Y-81945025D01*
X136571191Y-81945021D01*
X136575118Y-81940275D01*
X136673103Y-81759055D01*
X136734023Y-81562254D01*
X136734922Y-81553705D01*
X136754913Y-81363498D01*
X136754913Y-81363496D01*
X136755557Y-81357369D01*
X136741680Y-81204879D01*
X136737445Y-81158342D01*
X136737444Y-81158339D01*
X136736886Y-81152203D01*
X136678720Y-80954572D01*
X136643533Y-80887265D01*
X136586131Y-80777467D01*
X136583274Y-80772002D01*
X136573404Y-80759725D01*
X136458050Y-80616254D01*
X136458050Y-80616253D01*
X136454185Y-80611447D01*
X136296370Y-80479024D01*
X136290972Y-80476056D01*
X136290967Y-80476053D01*
X136121235Y-80382743D01*
X136115838Y-80379776D01*
X135919468Y-80317484D01*
X135913351Y-80316798D01*
X135913347Y-80316797D01*
X135837126Y-80308248D01*
X135759136Y-80299500D01*
X135712016Y-80299500D01*
X135643895Y-80279498D01*
X135622921Y-80262595D01*
X131844111Y-76483785D01*
X131836684Y-76475681D01*
X131819541Y-76455251D01*
X131819542Y-76455251D01*
X131812455Y-76446806D01*
X131802906Y-76441293D01*
X131779815Y-76427961D01*
X131770544Y-76422055D01*
X131748715Y-76406770D01*
X131739684Y-76400446D01*
X131729034Y-76397592D01*
X131725866Y-76396115D01*
X131722590Y-76394923D01*
X131713045Y-76389412D01*
X131679301Y-76383462D01*
X131675942Y-76382870D01*
X131665215Y-76380492D01*
X131628807Y-76370736D01*
X131617822Y-76371697D01*
X131617820Y-76371697D01*
X131591272Y-76374020D01*
X131580290Y-76374500D01*
X129087018Y-76374500D01*
X129018897Y-76354498D01*
X128997923Y-76337596D01*
X128757421Y-76097095D01*
X134042001Y-76097095D01*
X134042338Y-76103614D01*
X134052257Y-76199206D01*
X134055149Y-76212600D01*
X134106588Y-76366784D01*
X134112761Y-76379962D01*
X134198063Y-76517807D01*
X134207099Y-76529208D01*
X134321829Y-76643739D01*
X134333240Y-76652751D01*
X134471243Y-76737816D01*
X134484424Y-76743963D01*
X134638710Y-76795138D01*
X134652086Y-76798005D01*
X134746438Y-76807672D01*
X134752854Y-76808000D01*
X135277885Y-76808000D01*
X135293124Y-76803525D01*
X135294329Y-76802135D01*
X135296000Y-76794452D01*
X135296000Y-76789884D01*
X135804000Y-76789884D01*
X135808475Y-76805123D01*
X135809865Y-76806328D01*
X135817548Y-76807999D01*
X136347095Y-76807999D01*
X136353614Y-76807662D01*
X136449206Y-76797743D01*
X136462600Y-76794851D01*
X136616784Y-76743412D01*
X136629962Y-76737239D01*
X136767807Y-76651937D01*
X136779208Y-76642901D01*
X136893739Y-76528171D01*
X136902751Y-76516760D01*
X136987816Y-76378757D01*
X136993963Y-76365576D01*
X137045138Y-76211290D01*
X137048005Y-76197914D01*
X137057672Y-76103562D01*
X137058000Y-76097146D01*
X137058000Y-75722115D01*
X137053525Y-75706876D01*
X137052135Y-75705671D01*
X137044452Y-75704000D01*
X135822115Y-75704000D01*
X135806876Y-75708475D01*
X135805671Y-75709865D01*
X135804000Y-75717548D01*
X135804000Y-76789884D01*
X135296000Y-76789884D01*
X135296000Y-75722115D01*
X135291525Y-75706876D01*
X135290135Y-75705671D01*
X135282452Y-75704000D01*
X134060116Y-75704000D01*
X134044877Y-75708475D01*
X134043672Y-75709865D01*
X134042001Y-75717548D01*
X134042001Y-76097095D01*
X128757421Y-76097095D01*
X128632709Y-75972383D01*
X128598684Y-75910070D01*
X128596882Y-75866840D01*
X128604604Y-75808187D01*
X128605682Y-75800000D01*
X128585044Y-75643238D01*
X128524536Y-75497159D01*
X128428282Y-75371718D01*
X128302841Y-75275464D01*
X128156762Y-75214956D01*
X128000000Y-75194318D01*
X127843238Y-75214956D01*
X127835609Y-75218116D01*
X127699718Y-75274404D01*
X127629128Y-75281993D01*
X127565641Y-75250214D01*
X127529414Y-75189156D01*
X127525500Y-75157995D01*
X127525500Y-74157093D01*
X127545502Y-74088972D01*
X127599158Y-74042479D01*
X127669432Y-74032375D01*
X127720653Y-74053949D01*
X127721155Y-74053080D01*
X127728073Y-74057074D01*
X127728201Y-74057128D01*
X127728306Y-74057208D01*
X127734860Y-74062237D01*
X127880939Y-74122745D01*
X128037701Y-74143383D01*
X128045889Y-74142305D01*
X128186275Y-74123823D01*
X128194463Y-74122745D01*
X128340542Y-74062237D01*
X128465983Y-73965983D01*
X128473999Y-73955537D01*
X128549902Y-73856617D01*
X128562237Y-73840542D01*
X128622745Y-73694463D01*
X128626374Y-73666897D01*
X128655096Y-73601969D01*
X128714360Y-73562877D01*
X128785352Y-73562032D01*
X128799514Y-73566933D01*
X128835608Y-73581884D01*
X128835611Y-73581885D01*
X128843238Y-73585044D01*
X129000000Y-73605682D01*
X129008188Y-73604604D01*
X129148574Y-73586122D01*
X129156762Y-73585044D01*
X129302841Y-73524536D01*
X129428282Y-73428282D01*
X129469323Y-73374796D01*
X129526661Y-73332929D01*
X129569286Y-73325500D01*
X134334554Y-73325500D01*
X134402675Y-73345502D01*
X134446215Y-73393124D01*
X134516726Y-73527998D01*
X134520586Y-73532799D01*
X134520588Y-73532802D01*
X134579185Y-73605682D01*
X134645815Y-73688553D01*
X134803630Y-73820976D01*
X134809031Y-73823945D01*
X134809041Y-73823952D01*
X134866585Y-73855587D01*
X134916644Y-73905932D01*
X134931537Y-73975349D01*
X134906536Y-74041798D01*
X134849579Y-74084182D01*
X134805884Y-74092001D01*
X134752905Y-74092001D01*
X134746386Y-74092338D01*
X134650794Y-74102257D01*
X134637400Y-74105149D01*
X134483216Y-74156588D01*
X134470038Y-74162761D01*
X134332193Y-74248063D01*
X134320792Y-74257099D01*
X134206261Y-74371829D01*
X134197249Y-74383240D01*
X134112184Y-74521243D01*
X134106037Y-74534424D01*
X134054862Y-74688710D01*
X134051995Y-74702086D01*
X134042328Y-74796438D01*
X134042000Y-74802855D01*
X134042000Y-75177885D01*
X134046475Y-75193124D01*
X134047865Y-75194329D01*
X134055548Y-75196000D01*
X137039884Y-75196000D01*
X137055123Y-75191525D01*
X137056328Y-75190135D01*
X137057999Y-75182452D01*
X137057999Y-74802905D01*
X137057662Y-74796386D01*
X137047743Y-74700794D01*
X137044851Y-74687400D01*
X136993412Y-74533216D01*
X136987239Y-74520038D01*
X136901937Y-74382193D01*
X136892901Y-74370792D01*
X136778171Y-74256261D01*
X136766760Y-74247249D01*
X136628757Y-74162184D01*
X136615576Y-74156037D01*
X136461290Y-74104862D01*
X136447914Y-74101995D01*
X136353562Y-74092328D01*
X136347145Y-74092000D01*
X136295289Y-74092000D01*
X136227168Y-74071998D01*
X136180675Y-74018342D01*
X136170571Y-73948068D01*
X136200065Y-73883488D01*
X136236136Y-73854749D01*
X136278702Y-73832116D01*
X136278708Y-73832112D01*
X136284151Y-73829218D01*
X136374098Y-73755859D01*
X136439025Y-73702906D01*
X136439028Y-73702903D01*
X136443800Y-73699011D01*
X136456204Y-73684017D01*
X136571189Y-73545025D01*
X136571191Y-73545021D01*
X136575118Y-73540275D01*
X136673103Y-73359055D01*
X136734023Y-73162254D01*
X136744713Y-73060545D01*
X136754913Y-72963498D01*
X136754913Y-72963496D01*
X136755557Y-72957369D01*
X136740141Y-72787973D01*
X136737445Y-72758342D01*
X136737444Y-72758339D01*
X136736886Y-72752203D01*
X136678720Y-72554572D01*
X136583274Y-72372002D01*
X136573404Y-72359725D01*
X136458050Y-72216254D01*
X136458050Y-72216253D01*
X136454185Y-72211447D01*
X136296370Y-72079024D01*
X136290972Y-72076056D01*
X136290967Y-72076053D01*
X136121235Y-71982743D01*
X136115838Y-71979776D01*
X135919468Y-71917484D01*
X135913351Y-71916798D01*
X135913347Y-71916797D01*
X135823058Y-71906670D01*
X135759136Y-71899500D01*
X135348159Y-71899500D01*
X135194970Y-71914520D01*
X134997749Y-71974065D01*
X134815849Y-72070782D01*
X134746066Y-72127696D01*
X134660975Y-72197094D01*
X134660972Y-72197097D01*
X134656200Y-72200989D01*
X134652273Y-72205736D01*
X134652271Y-72205738D01*
X134528811Y-72354975D01*
X134528809Y-72354979D01*
X134524882Y-72359725D01*
X134426897Y-72540945D01*
X134422679Y-72554572D01*
X134413025Y-72585759D01*
X134373774Y-72644918D01*
X134308770Y-72673466D01*
X134292660Y-72674500D01*
X129569286Y-72674500D01*
X129501165Y-72654498D01*
X129469323Y-72625204D01*
X129433305Y-72578264D01*
X129428282Y-72571718D01*
X129302841Y-72475464D01*
X129156762Y-72414956D01*
X129000000Y-72394318D01*
X128843238Y-72414956D01*
X128697159Y-72475464D01*
X128690608Y-72480491D01*
X128578204Y-72566741D01*
X128511983Y-72592341D01*
X128442435Y-72578076D01*
X128391639Y-72528475D01*
X128375500Y-72466778D01*
X128375500Y-70473278D01*
X128395502Y-70405157D01*
X128449158Y-70358664D01*
X128519432Y-70348560D01*
X128549717Y-70356869D01*
X128617738Y-70385044D01*
X128774500Y-70405682D01*
X128782688Y-70404604D01*
X128923074Y-70386122D01*
X128931262Y-70385044D01*
X129077341Y-70324536D01*
X129202782Y-70228282D01*
X129299036Y-70102841D01*
X129359544Y-69956762D01*
X129360801Y-69947218D01*
X129379104Y-69808188D01*
X129380182Y-69800000D01*
X129371382Y-69733157D01*
X129382321Y-69663010D01*
X129407209Y-69627617D01*
X130497421Y-68537405D01*
X130559733Y-68503379D01*
X130586516Y-68500500D01*
X133523500Y-68500500D01*
X133591621Y-68520502D01*
X133638114Y-68574158D01*
X133649500Y-68626500D01*
X133649500Y-69044748D01*
X133661133Y-69103231D01*
X133705448Y-69169552D01*
X133771769Y-69213867D01*
X133783938Y-69216288D01*
X133783939Y-69216288D01*
X133816266Y-69222718D01*
X133830252Y-69225500D01*
X135569748Y-69225500D01*
X135583734Y-69222718D01*
X135616061Y-69216288D01*
X135616062Y-69216288D01*
X135628231Y-69213867D01*
X135694552Y-69169552D01*
X135738867Y-69103231D01*
X135750500Y-69044748D01*
X135750500Y-67305252D01*
X135738867Y-67246769D01*
X135694552Y-67180448D01*
X135628231Y-67136133D01*
X135616062Y-67133712D01*
X135616061Y-67133712D01*
X135575816Y-67125707D01*
X135569748Y-67124500D01*
X133830252Y-67124500D01*
X133824184Y-67125707D01*
X133783939Y-67133712D01*
X133783938Y-67133712D01*
X133771769Y-67136133D01*
X133705448Y-67180448D01*
X133661133Y-67246769D01*
X133649500Y-67305252D01*
X133649500Y-67723500D01*
X133629498Y-67791621D01*
X133575842Y-67838114D01*
X133523500Y-67849500D01*
X130419210Y-67849500D01*
X130408228Y-67849020D01*
X130381680Y-67846697D01*
X130381678Y-67846697D01*
X130370693Y-67845736D01*
X130334285Y-67855492D01*
X130323558Y-67857870D01*
X130320199Y-67858462D01*
X130286455Y-67864412D01*
X130276910Y-67869923D01*
X130273634Y-67871115D01*
X130270466Y-67872592D01*
X130259816Y-67875446D01*
X130250785Y-67881770D01*
X130228956Y-67897055D01*
X130219685Y-67902961D01*
X130196594Y-67916293D01*
X130187045Y-67921806D01*
X130179959Y-67930251D01*
X130162815Y-67950682D01*
X130155389Y-67958785D01*
X128946883Y-69167291D01*
X128884571Y-69201317D01*
X128841343Y-69203118D01*
X128774500Y-69194318D01*
X128617738Y-69214956D01*
X128583196Y-69229264D01*
X128549718Y-69243131D01*
X128479129Y-69250720D01*
X128415642Y-69218941D01*
X128379414Y-69157883D01*
X128375500Y-69126722D01*
X128375500Y-64691312D01*
X128395502Y-64623191D01*
X128446564Y-64580893D01*
X128445428Y-64578720D01*
X128622533Y-64486131D01*
X128627998Y-64483274D01*
X128632799Y-64479414D01*
X128632802Y-64479412D01*
X128783746Y-64358050D01*
X128783747Y-64358050D01*
X128788553Y-64354185D01*
X128920976Y-64196370D01*
X128923945Y-64190969D01*
X128923952Y-64190959D01*
X128955587Y-64133415D01*
X129005932Y-64083356D01*
X129075349Y-64068463D01*
X129141798Y-64093464D01*
X129184182Y-64150421D01*
X129192001Y-64194116D01*
X129192001Y-64247095D01*
X129192338Y-64253614D01*
X129202257Y-64349206D01*
X129205149Y-64362600D01*
X129256588Y-64516784D01*
X129262761Y-64529962D01*
X129348063Y-64667807D01*
X129357099Y-64679208D01*
X129471829Y-64793739D01*
X129483240Y-64802751D01*
X129621243Y-64887816D01*
X129634424Y-64893963D01*
X129788710Y-64945138D01*
X129802086Y-64948005D01*
X129896438Y-64957672D01*
X129902854Y-64958000D01*
X130277885Y-64958000D01*
X130293124Y-64953525D01*
X130294329Y-64952135D01*
X130296000Y-64944452D01*
X130296000Y-64939884D01*
X130804000Y-64939884D01*
X130808475Y-64955123D01*
X130809865Y-64956328D01*
X130817548Y-64957999D01*
X131197095Y-64957999D01*
X131203614Y-64957662D01*
X131299206Y-64947743D01*
X131312600Y-64944851D01*
X131466784Y-64893412D01*
X131479962Y-64887239D01*
X131617807Y-64801937D01*
X131629208Y-64792901D01*
X131743739Y-64678171D01*
X131752751Y-64666760D01*
X131837816Y-64528757D01*
X131843963Y-64515576D01*
X131895138Y-64361290D01*
X131898005Y-64347914D01*
X131907672Y-64253562D01*
X131908000Y-64247146D01*
X131908000Y-63722115D01*
X131903525Y-63706876D01*
X131902135Y-63705671D01*
X131894452Y-63704000D01*
X130822115Y-63704000D01*
X130806876Y-63708475D01*
X130805671Y-63709865D01*
X130804000Y-63717548D01*
X130804000Y-64939884D01*
X130296000Y-64939884D01*
X130296000Y-63177885D01*
X130804000Y-63177885D01*
X130808475Y-63193124D01*
X130809865Y-63194329D01*
X130817548Y-63196000D01*
X131889884Y-63196000D01*
X131905123Y-63191525D01*
X131906328Y-63190135D01*
X131907999Y-63182452D01*
X131907999Y-62652905D01*
X131907662Y-62646386D01*
X131897743Y-62550794D01*
X131894851Y-62537400D01*
X131843412Y-62383216D01*
X131837239Y-62370038D01*
X131751937Y-62232193D01*
X131742901Y-62220792D01*
X131628171Y-62106261D01*
X131616760Y-62097249D01*
X131478757Y-62012184D01*
X131465576Y-62006037D01*
X131311290Y-61954862D01*
X131297914Y-61951995D01*
X131203562Y-61942328D01*
X131197145Y-61942000D01*
X130822115Y-61942000D01*
X130806876Y-61946475D01*
X130805671Y-61947865D01*
X130804000Y-61955548D01*
X130804000Y-63177885D01*
X130296000Y-63177885D01*
X130296000Y-61960116D01*
X130291525Y-61944877D01*
X130290135Y-61943672D01*
X130282452Y-61942001D01*
X129902905Y-61942001D01*
X129896386Y-61942338D01*
X129800794Y-61952257D01*
X129787400Y-61955149D01*
X129633216Y-62006588D01*
X129620038Y-62012761D01*
X129482193Y-62098063D01*
X129470792Y-62107099D01*
X129356261Y-62221829D01*
X129347249Y-62233240D01*
X129262184Y-62371243D01*
X129256037Y-62384424D01*
X129204862Y-62538710D01*
X129201995Y-62552086D01*
X129192328Y-62646438D01*
X129192000Y-62652855D01*
X129192000Y-62704711D01*
X129171998Y-62772832D01*
X129118342Y-62819325D01*
X129048068Y-62829429D01*
X128983488Y-62799935D01*
X128954749Y-62763864D01*
X128932116Y-62721298D01*
X128932112Y-62721292D01*
X128929218Y-62715849D01*
X128855859Y-62625902D01*
X128802906Y-62560975D01*
X128802903Y-62560972D01*
X128799011Y-62556200D01*
X128794038Y-62552086D01*
X128645025Y-62428811D01*
X128645021Y-62428809D01*
X128640275Y-62424882D01*
X128459055Y-62326897D01*
X128262254Y-62265977D01*
X128256129Y-62265333D01*
X128256128Y-62265333D01*
X128063498Y-62245087D01*
X128063496Y-62245087D01*
X128057369Y-62244443D01*
X127970529Y-62252346D01*
X127858342Y-62262555D01*
X127858339Y-62262556D01*
X127852203Y-62263114D01*
X127654572Y-62321280D01*
X127472002Y-62416726D01*
X127467201Y-62420586D01*
X127467198Y-62420588D01*
X127456971Y-62428811D01*
X127311447Y-62545815D01*
X127179024Y-62703630D01*
X127176056Y-62709028D01*
X127176053Y-62709033D01*
X127082743Y-62878765D01*
X127079776Y-62884162D01*
X127017484Y-63080532D01*
X127016798Y-63086649D01*
X127016797Y-63086653D01*
X127015626Y-63097094D01*
X126999500Y-63240864D01*
X126999500Y-63651841D01*
X127014520Y-63805030D01*
X127074065Y-64002251D01*
X127170782Y-64184151D01*
X127227435Y-64253614D01*
X127297094Y-64339025D01*
X127297097Y-64339028D01*
X127300989Y-64343800D01*
X127305736Y-64347727D01*
X127305738Y-64347729D01*
X127454975Y-64471189D01*
X127454979Y-64471191D01*
X127459725Y-64475118D01*
X127640945Y-64573103D01*
X127646833Y-64574926D01*
X127647324Y-64575132D01*
X127702372Y-64619967D01*
X127724500Y-64691288D01*
X127724500Y-71781952D01*
X127704498Y-71850073D01*
X127650842Y-71896566D01*
X127580568Y-71906670D01*
X127515988Y-71877176D01*
X127495289Y-71854226D01*
X127477945Y-71829456D01*
X127472039Y-71820185D01*
X127458707Y-71797094D01*
X127453194Y-71787545D01*
X127424317Y-71763315D01*
X127416215Y-71755889D01*
X125819611Y-70159285D01*
X125812184Y-70151181D01*
X125795041Y-70130751D01*
X125795042Y-70130751D01*
X125787955Y-70122306D01*
X125775628Y-70115189D01*
X125772159Y-70111550D01*
X125769963Y-70109708D01*
X125770169Y-70109463D01*
X125726635Y-70063805D01*
X125713200Y-69994092D01*
X125725889Y-69954401D01*
X125724536Y-69953841D01*
X125781884Y-69815391D01*
X125785044Y-69807762D01*
X125805682Y-69651000D01*
X125785044Y-69494238D01*
X125724536Y-69348159D01*
X125628282Y-69222718D01*
X125616762Y-69213878D01*
X125574796Y-69181677D01*
X125532929Y-69124339D01*
X125525500Y-69081714D01*
X125525500Y-63319710D01*
X125525980Y-63308728D01*
X125528303Y-63282180D01*
X125528303Y-63282178D01*
X125529264Y-63271193D01*
X125519508Y-63234785D01*
X125517130Y-63224058D01*
X125514190Y-63207386D01*
X125510588Y-63186955D01*
X125505077Y-63177410D01*
X125503885Y-63174134D01*
X125502408Y-63170966D01*
X125499554Y-63160316D01*
X125477945Y-63129456D01*
X125472039Y-63120185D01*
X125458707Y-63097094D01*
X125453194Y-63087545D01*
X125424317Y-63063315D01*
X125416215Y-63055889D01*
X124144111Y-61783785D01*
X124136684Y-61775681D01*
X124119541Y-61755251D01*
X124119542Y-61755251D01*
X124112455Y-61746806D01*
X124102906Y-61741293D01*
X124079815Y-61727961D01*
X124070544Y-61722055D01*
X124048715Y-61706770D01*
X124039684Y-61700446D01*
X124029034Y-61697592D01*
X124025866Y-61696115D01*
X124022590Y-61694923D01*
X124013045Y-61689412D01*
X123979301Y-61683462D01*
X123975942Y-61682870D01*
X123965215Y-61680492D01*
X123928807Y-61670736D01*
X123917822Y-61671697D01*
X123917820Y-61671697D01*
X123891272Y-61674020D01*
X123880290Y-61674500D01*
X121069710Y-61674500D01*
X121058728Y-61674020D01*
X121032180Y-61671697D01*
X121032178Y-61671697D01*
X121021193Y-61670736D01*
X120984785Y-61680492D01*
X120974058Y-61682870D01*
X120970699Y-61683462D01*
X120936955Y-61689412D01*
X120927410Y-61694923D01*
X120924134Y-61696115D01*
X120920966Y-61697592D01*
X120910316Y-61700446D01*
X120901285Y-61706770D01*
X120879456Y-61722055D01*
X120870185Y-61727961D01*
X120847094Y-61741293D01*
X120837545Y-61746806D01*
X120830459Y-61755251D01*
X120813315Y-61775682D01*
X120805889Y-61783785D01*
X120240145Y-62349529D01*
X120177833Y-62383555D01*
X120107018Y-62378490D01*
X120091121Y-62371270D01*
X120091071Y-62371243D01*
X120009055Y-62326897D01*
X119812254Y-62265977D01*
X119806129Y-62265333D01*
X119806128Y-62265333D01*
X119613498Y-62245087D01*
X119613496Y-62245087D01*
X119607369Y-62244443D01*
X119520529Y-62252346D01*
X119408342Y-62262555D01*
X119408339Y-62262556D01*
X119402203Y-62263114D01*
X119204572Y-62321280D01*
X119022002Y-62416726D01*
X119017201Y-62420586D01*
X119017198Y-62420588D01*
X119006971Y-62428811D01*
X118861447Y-62545815D01*
X118729024Y-62703630D01*
X118726056Y-62709028D01*
X118726053Y-62709033D01*
X118632743Y-62878765D01*
X118629776Y-62884162D01*
X118567484Y-63080532D01*
X118566798Y-63086649D01*
X118566797Y-63086653D01*
X118565626Y-63097094D01*
X118549500Y-63240864D01*
X118549500Y-63651841D01*
X118564520Y-63805030D01*
X118624065Y-64002251D01*
X118720782Y-64184151D01*
X118777435Y-64253614D01*
X118847094Y-64339025D01*
X118847097Y-64339028D01*
X118850989Y-64343800D01*
X118855736Y-64347727D01*
X118855738Y-64347729D01*
X118860194Y-64351415D01*
X118899932Y-64410249D01*
X118901555Y-64481227D01*
X118864546Y-64541814D01*
X118800656Y-64572775D01*
X118779879Y-64574500D01*
X115098962Y-64574500D01*
X115030841Y-64554498D01*
X114984348Y-64500842D01*
X114974244Y-64430568D01*
X114979369Y-64408833D01*
X114995137Y-64361293D01*
X114998005Y-64347914D01*
X115007672Y-64253562D01*
X115008000Y-64247146D01*
X115008000Y-63722115D01*
X115003525Y-63706876D01*
X115002135Y-63705671D01*
X114994452Y-63704000D01*
X113522000Y-63704000D01*
X113453879Y-63683998D01*
X113407386Y-63630342D01*
X113396000Y-63578000D01*
X113396000Y-63177885D01*
X113904000Y-63177885D01*
X113908475Y-63193124D01*
X113909865Y-63194329D01*
X113917548Y-63196000D01*
X114989884Y-63196000D01*
X115005123Y-63191525D01*
X115006328Y-63190135D01*
X115007999Y-63182452D01*
X115007999Y-62652905D01*
X115007662Y-62646386D01*
X114997743Y-62550794D01*
X114994851Y-62537400D01*
X114943412Y-62383216D01*
X114937239Y-62370038D01*
X114851937Y-62232193D01*
X114842901Y-62220792D01*
X114728171Y-62106261D01*
X114716760Y-62097249D01*
X114578757Y-62012184D01*
X114565576Y-62006037D01*
X114411290Y-61954862D01*
X114397914Y-61951995D01*
X114303562Y-61942328D01*
X114297145Y-61942000D01*
X113922115Y-61942000D01*
X113906876Y-61946475D01*
X113905671Y-61947865D01*
X113904000Y-61955548D01*
X113904000Y-63177885D01*
X113396000Y-63177885D01*
X113396000Y-61960116D01*
X113391525Y-61944877D01*
X113390135Y-61943672D01*
X113382452Y-61942001D01*
X113002905Y-61942001D01*
X112996386Y-61942338D01*
X112900794Y-61952257D01*
X112887400Y-61955149D01*
X112733216Y-62006588D01*
X112720038Y-62012761D01*
X112582193Y-62098063D01*
X112570792Y-62107099D01*
X112456261Y-62221829D01*
X112447249Y-62233240D01*
X112362184Y-62371243D01*
X112356037Y-62384424D01*
X112304862Y-62538710D01*
X112301995Y-62552086D01*
X112292328Y-62646438D01*
X112292000Y-62652855D01*
X112292000Y-62704711D01*
X112271998Y-62772832D01*
X112218342Y-62819325D01*
X112148068Y-62829429D01*
X112083488Y-62799935D01*
X112054749Y-62763864D01*
X112032116Y-62721298D01*
X112032112Y-62721292D01*
X112029218Y-62715849D01*
X111955859Y-62625902D01*
X111902906Y-62560975D01*
X111902903Y-62560972D01*
X111899011Y-62556200D01*
X111894038Y-62552086D01*
X111745025Y-62428811D01*
X111745021Y-62428809D01*
X111740275Y-62424882D01*
X111559055Y-62326897D01*
X111362254Y-62265977D01*
X111356129Y-62265333D01*
X111356128Y-62265333D01*
X111163498Y-62245087D01*
X111163496Y-62245087D01*
X111157369Y-62244443D01*
X111070529Y-62252346D01*
X110958342Y-62262555D01*
X110958339Y-62262556D01*
X110952203Y-62263114D01*
X110754572Y-62321280D01*
X110572002Y-62416726D01*
X110567201Y-62420586D01*
X110567198Y-62420588D01*
X110556971Y-62428811D01*
X110411447Y-62545815D01*
X110279024Y-62703630D01*
X110276056Y-62709028D01*
X110276053Y-62709033D01*
X110182743Y-62878765D01*
X110179776Y-62884162D01*
X110117484Y-63080532D01*
X110116798Y-63086649D01*
X110116797Y-63086653D01*
X110115626Y-63097094D01*
X110099500Y-63240864D01*
X110099500Y-63651841D01*
X110114520Y-63805030D01*
X110174065Y-64002251D01*
X110270782Y-64184151D01*
X110327435Y-64253614D01*
X110397094Y-64339025D01*
X110397097Y-64339028D01*
X110400989Y-64343800D01*
X110405736Y-64347727D01*
X110405738Y-64347729D01*
X110554975Y-64471189D01*
X110554979Y-64471191D01*
X110559725Y-64475118D01*
X110740945Y-64573103D01*
X110937746Y-64634023D01*
X110943871Y-64634667D01*
X110943872Y-64634667D01*
X111136502Y-64654913D01*
X111136504Y-64654913D01*
X111142631Y-64655557D01*
X111229471Y-64647654D01*
X111341658Y-64637445D01*
X111341661Y-64637444D01*
X111347797Y-64636886D01*
X111545428Y-64578720D01*
X111642659Y-64527889D01*
X111712294Y-64514054D01*
X111778354Y-64540063D01*
X111790129Y-64550455D01*
X112355889Y-65116215D01*
X112363316Y-65124319D01*
X112387545Y-65153194D01*
X112397094Y-65158707D01*
X112420185Y-65172039D01*
X112429456Y-65177945D01*
X112460316Y-65199554D01*
X112470966Y-65202408D01*
X112474134Y-65203885D01*
X112477410Y-65205077D01*
X112486955Y-65210588D01*
X112520699Y-65216538D01*
X112524058Y-65217130D01*
X112534785Y-65219508D01*
X112571193Y-65229264D01*
X112582169Y-65228304D01*
X112582172Y-65228304D01*
X112608743Y-65225979D01*
X112619724Y-65225500D01*
X122212984Y-65225500D01*
X122281105Y-65245502D01*
X122302075Y-65262401D01*
X123237597Y-66197924D01*
X123271621Y-66260234D01*
X123274500Y-66287017D01*
X123274500Y-69081714D01*
X123254498Y-69149835D01*
X123225204Y-69181677D01*
X123183239Y-69213878D01*
X123171718Y-69222718D01*
X123075464Y-69348159D01*
X123014956Y-69494238D01*
X122994318Y-69651000D01*
X122994731Y-69654133D01*
X122975394Y-69719988D01*
X122921738Y-69766481D01*
X122852950Y-69776789D01*
X122808188Y-69770896D01*
X122800000Y-69769818D01*
X122643238Y-69790456D01*
X122497159Y-69850964D01*
X122371718Y-69947218D01*
X122275464Y-70072659D01*
X122214956Y-70218738D01*
X122213878Y-70226926D01*
X122213038Y-70233305D01*
X122194318Y-70375500D01*
X122194731Y-70378633D01*
X122175394Y-70444488D01*
X122121738Y-70490981D01*
X122052950Y-70501289D01*
X122008188Y-70495396D01*
X122000000Y-70494318D01*
X121843238Y-70514956D01*
X121697159Y-70575464D01*
X121571718Y-70671718D01*
X121475464Y-70797159D01*
X121414956Y-70943238D01*
X121394318Y-71100000D01*
X121414956Y-71256762D01*
X121475464Y-71402841D01*
X121571718Y-71528282D01*
X121697159Y-71624536D01*
X121843238Y-71685044D01*
X122000000Y-71705682D01*
X122008188Y-71704604D01*
X122148574Y-71686122D01*
X122156762Y-71685044D01*
X122302841Y-71624536D01*
X122428282Y-71528282D01*
X122469323Y-71474796D01*
X122526661Y-71432929D01*
X122569286Y-71425500D01*
X125476588Y-71425500D01*
X125544709Y-71445502D01*
X125565683Y-71462405D01*
X126387595Y-72284317D01*
X126421621Y-72346629D01*
X126424500Y-72373412D01*
X126424500Y-82548500D01*
X126404498Y-82616621D01*
X126350842Y-82663114D01*
X126298500Y-82674500D01*
X125469286Y-82674500D01*
X125401165Y-82654498D01*
X125369323Y-82625204D01*
X125333305Y-82578264D01*
X125328282Y-82571718D01*
X125202841Y-82475464D01*
X125056762Y-82414956D01*
X124900000Y-82394318D01*
X124743238Y-82414956D01*
X124597159Y-82475464D01*
X124471718Y-82571718D01*
X124375464Y-82697159D01*
X124314956Y-82843238D01*
X124294318Y-83000000D01*
X124314956Y-83156762D01*
X124375464Y-83302841D01*
X124471718Y-83428282D01*
X124597159Y-83524536D01*
X124743238Y-83585044D01*
X124900000Y-83605682D01*
X124908188Y-83604604D01*
X125048574Y-83586122D01*
X125056762Y-83585044D01*
X125202841Y-83524536D01*
X125328282Y-83428282D01*
X125369323Y-83374796D01*
X125426661Y-83332929D01*
X125469286Y-83325500D01*
X126312984Y-83325500D01*
X126381105Y-83345502D01*
X126402079Y-83362405D01*
X126637595Y-83597921D01*
X126671621Y-83660233D01*
X126674500Y-83687016D01*
X126674500Y-91630714D01*
X126654498Y-91698835D01*
X126625204Y-91730677D01*
X126571718Y-91771718D01*
X126475464Y-91897159D01*
X126414956Y-92043238D01*
X126394318Y-92200000D01*
X126414956Y-92356762D01*
X126475464Y-92502841D01*
X126571718Y-92628282D01*
X126697159Y-92724536D01*
X126843238Y-92785044D01*
X127000000Y-92805682D01*
X127008188Y-92804604D01*
X127148574Y-92786122D01*
X127156762Y-92785044D01*
X127300282Y-92725596D01*
X127370872Y-92718007D01*
X127434359Y-92749786D01*
X127470586Y-92810844D01*
X127474500Y-92842005D01*
X127474500Y-95112984D01*
X127454498Y-95181105D01*
X127437595Y-95202079D01*
X125273919Y-97365755D01*
X125211607Y-97399781D01*
X125140792Y-97394716D01*
X125124897Y-97387496D01*
X125064480Y-97354830D01*
X125064478Y-97354829D01*
X125059055Y-97351897D01*
X124862254Y-97290977D01*
X124856129Y-97290333D01*
X124856128Y-97290333D01*
X124663498Y-97270087D01*
X124663496Y-97270087D01*
X124657369Y-97269443D01*
X124570529Y-97277346D01*
X124458342Y-97287555D01*
X124458339Y-97287556D01*
X124452203Y-97288114D01*
X124254572Y-97346280D01*
X124072002Y-97441726D01*
X124067201Y-97445586D01*
X124067198Y-97445588D01*
X123969453Y-97524177D01*
X123911447Y-97570815D01*
X123779024Y-97728630D01*
X123776055Y-97734031D01*
X123776048Y-97734041D01*
X123744413Y-97791585D01*
X123694068Y-97841644D01*
X123624651Y-97856537D01*
X123558202Y-97831536D01*
X123515818Y-97774579D01*
X123507999Y-97730884D01*
X123507999Y-97677905D01*
X123507662Y-97671386D01*
X123497743Y-97575794D01*
X123494851Y-97562400D01*
X123443412Y-97408216D01*
X123437239Y-97395038D01*
X123351937Y-97257193D01*
X123342901Y-97245792D01*
X123228171Y-97131261D01*
X123216760Y-97122249D01*
X123078757Y-97037184D01*
X123065576Y-97031037D01*
X122911290Y-96979862D01*
X122897914Y-96976995D01*
X122803562Y-96967328D01*
X122797145Y-96967000D01*
X122422115Y-96967000D01*
X122406876Y-96971475D01*
X122405671Y-96972865D01*
X122404000Y-96980548D01*
X122404000Y-98578000D01*
X122383998Y-98646121D01*
X122330342Y-98692614D01*
X122278000Y-98704000D01*
X120810116Y-98704000D01*
X120794877Y-98708475D01*
X120793672Y-98709865D01*
X120792001Y-98717548D01*
X120792001Y-99222095D01*
X120792338Y-99228614D01*
X120802257Y-99324206D01*
X120805149Y-99337600D01*
X120856588Y-99491784D01*
X120862761Y-99504962D01*
X120948063Y-99642807D01*
X120957099Y-99654208D01*
X120962227Y-99659327D01*
X120996306Y-99721609D01*
X120991303Y-99792429D01*
X120948806Y-99849302D01*
X120882308Y-99874171D01*
X120873209Y-99874500D01*
X107387016Y-99874500D01*
X107318895Y-99854498D01*
X107297921Y-99837595D01*
X106030074Y-98569748D01*
X109074500Y-98569748D01*
X109086133Y-98628231D01*
X109130448Y-98694552D01*
X109196769Y-98738867D01*
X109208938Y-98741288D01*
X109208939Y-98741288D01*
X109249184Y-98749293D01*
X109255252Y-98750500D01*
X110994748Y-98750500D01*
X111000816Y-98749293D01*
X111041061Y-98741288D01*
X111041062Y-98741288D01*
X111053231Y-98738867D01*
X111119552Y-98694552D01*
X111163867Y-98628231D01*
X111175500Y-98569748D01*
X111175500Y-98177885D01*
X120792000Y-98177885D01*
X120796475Y-98193124D01*
X120797865Y-98194329D01*
X120805548Y-98196000D01*
X121877885Y-98196000D01*
X121893124Y-98191525D01*
X121894329Y-98190135D01*
X121896000Y-98182452D01*
X121896000Y-96985116D01*
X121891525Y-96969877D01*
X121890135Y-96968672D01*
X121882452Y-96967001D01*
X121502905Y-96967001D01*
X121496386Y-96967338D01*
X121400794Y-96977257D01*
X121387400Y-96980149D01*
X121233216Y-97031588D01*
X121220038Y-97037761D01*
X121082193Y-97123063D01*
X121070792Y-97132099D01*
X120956261Y-97246829D01*
X120947249Y-97258240D01*
X120862184Y-97396243D01*
X120856037Y-97409424D01*
X120804862Y-97563710D01*
X120801995Y-97577086D01*
X120792328Y-97671438D01*
X120792000Y-97677855D01*
X120792000Y-98177885D01*
X111175500Y-98177885D01*
X111175500Y-96830252D01*
X111172496Y-96815150D01*
X111166288Y-96783939D01*
X111166288Y-96783938D01*
X111163867Y-96771769D01*
X111119552Y-96705448D01*
X111053231Y-96661133D01*
X111041062Y-96658712D01*
X111041061Y-96658712D01*
X111000816Y-96650707D01*
X110994748Y-96649500D01*
X109255252Y-96649500D01*
X109249184Y-96650707D01*
X109208939Y-96658712D01*
X109208938Y-96658712D01*
X109196769Y-96661133D01*
X109130448Y-96705448D01*
X109086133Y-96771769D01*
X109083712Y-96783938D01*
X109083712Y-96783939D01*
X109077504Y-96815150D01*
X109074500Y-96830252D01*
X109074500Y-98569748D01*
X106030074Y-98569748D01*
X104674361Y-97214035D01*
X104640335Y-97151723D01*
X104645400Y-97080908D01*
X104687947Y-97024072D01*
X104754467Y-96999261D01*
X104806447Y-97006501D01*
X104964941Y-97064031D01*
X104975208Y-97066802D01*
X105178174Y-97103504D01*
X105191414Y-97102085D01*
X105196000Y-97087450D01*
X105196000Y-97083849D01*
X105704000Y-97083849D01*
X105708310Y-97098527D01*
X105720193Y-97100590D01*
X105799325Y-97093876D01*
X105809797Y-97092086D01*
X106022535Y-97036870D01*
X106032575Y-97033335D01*
X106232970Y-96943063D01*
X106242256Y-96937894D01*
X106424575Y-96815150D01*
X106432870Y-96808481D01*
X106591900Y-96656772D01*
X106598941Y-96648814D01*
X106730141Y-96472475D01*
X106735745Y-96463438D01*
X106835357Y-96267516D01*
X106839357Y-96257665D01*
X106904534Y-96047760D01*
X106906817Y-96037376D01*
X106908861Y-96021957D01*
X106906665Y-96007793D01*
X106893478Y-96004000D01*
X105722115Y-96004000D01*
X105706876Y-96008475D01*
X105705671Y-96009865D01*
X105704000Y-96017548D01*
X105704000Y-97083849D01*
X105196000Y-97083849D01*
X105196000Y-95622000D01*
X105216002Y-95553879D01*
X105269658Y-95507386D01*
X105322000Y-95496000D01*
X106891192Y-95496000D01*
X106904723Y-95492027D01*
X106906248Y-95481420D01*
X106881523Y-95363579D01*
X106878463Y-95353383D01*
X106797737Y-95148971D01*
X106793006Y-95139439D01*
X106678984Y-94951538D01*
X106672720Y-94942948D01*
X106628730Y-94892254D01*
X106599191Y-94827695D01*
X106600170Y-94800000D01*
X106600000Y-94800000D01*
X106600000Y-93510458D01*
X106605635Y-93473199D01*
X106607201Y-93468139D01*
X106609023Y-93462254D01*
X106610107Y-93451937D01*
X106629913Y-93263498D01*
X106629913Y-93263496D01*
X106630557Y-93257369D01*
X106611886Y-93052203D01*
X106610148Y-93046297D01*
X106610146Y-93046288D01*
X106605127Y-93029236D01*
X106600000Y-92993660D01*
X106600000Y-91010458D01*
X106605635Y-90973199D01*
X106607201Y-90968139D01*
X106609023Y-90962254D01*
X106609667Y-90956128D01*
X106629913Y-90763498D01*
X106629913Y-90763496D01*
X106630557Y-90757369D01*
X106619289Y-90633551D01*
X106612445Y-90558342D01*
X106612444Y-90558339D01*
X106611886Y-90552203D01*
X106610148Y-90546297D01*
X106610146Y-90546288D01*
X106605127Y-90529236D01*
X106600000Y-90493660D01*
X106600000Y-89020976D01*
X106607117Y-88979228D01*
X106619974Y-88942616D01*
X106622519Y-88935369D01*
X106625500Y-88903834D01*
X106625500Y-87596166D01*
X106622519Y-87564631D01*
X106577634Y-87436816D01*
X106572042Y-87429246D01*
X106572041Y-87429243D01*
X106502742Y-87335421D01*
X106497150Y-87327850D01*
X106480206Y-87315335D01*
X106395757Y-87252959D01*
X106395754Y-87252958D01*
X106388184Y-87247366D01*
X106260369Y-87202481D01*
X106252723Y-87201758D01*
X106252722Y-87201758D01*
X106246752Y-87201194D01*
X106228834Y-87199500D01*
X104671166Y-87199500D01*
X104653248Y-87201194D01*
X104647278Y-87201758D01*
X104647277Y-87201758D01*
X104639631Y-87202481D01*
X104511816Y-87247366D01*
X104504246Y-87252958D01*
X104504243Y-87252959D01*
X104419794Y-87315335D01*
X104402850Y-87327850D01*
X104397258Y-87335421D01*
X104327959Y-87429243D01*
X104327958Y-87429246D01*
X104322366Y-87436816D01*
X104277481Y-87564631D01*
X104274500Y-87596166D01*
X104274500Y-88736207D01*
X104254498Y-88804328D01*
X104237595Y-88825302D01*
X102580650Y-90482247D01*
X102569561Y-90492101D01*
X102550291Y-90507293D01*
X102550289Y-90507295D01*
X102542890Y-90513128D01*
X102537535Y-90520875D01*
X102537534Y-90520877D01*
X102509545Y-90561375D01*
X102507250Y-90564587D01*
X102472366Y-90611816D01*
X102469973Y-90618632D01*
X102465869Y-90624569D01*
X102463029Y-90633549D01*
X102463028Y-90633551D01*
X102448182Y-90680495D01*
X102446929Y-90684250D01*
X102432291Y-90725935D01*
X102427481Y-90739631D01*
X102427199Y-90746819D01*
X102427188Y-90746878D01*
X102425020Y-90753730D01*
X102424500Y-90760337D01*
X102424500Y-90813016D01*
X102424403Y-90817962D01*
X102422162Y-90874994D01*
X102424046Y-90882100D01*
X102424500Y-90890347D01*
X102424500Y-97290348D01*
X102423627Y-97305157D01*
X102419636Y-97338878D01*
X97000000Y-97338878D01*
X97000000Y-72797966D01*
X104968257Y-72797966D01*
X104998565Y-72932446D01*
X105001645Y-72942275D01*
X105081769Y-73139601D01*
X105086464Y-73148894D01*
X105100000Y-73205708D01*
X105100000Y-76700000D01*
X105421984Y-76700000D01*
X105490105Y-76720002D01*
X105536598Y-76773658D01*
X105546702Y-76843932D01*
X105518505Y-76906991D01*
X105429024Y-77013630D01*
X105426056Y-77019028D01*
X105426053Y-77019033D01*
X105332743Y-77188765D01*
X105329776Y-77194162D01*
X105267484Y-77390532D01*
X105244520Y-77595262D01*
X105245036Y-77601406D01*
X105259338Y-77771718D01*
X105261759Y-77800553D01*
X105318544Y-77998586D01*
X105321359Y-78004063D01*
X105321360Y-78004066D01*
X105409897Y-78176341D01*
X105412712Y-78181818D01*
X105540677Y-78343270D01*
X105697564Y-78476791D01*
X105877398Y-78577297D01*
X105972238Y-78608113D01*
X106067471Y-78639056D01*
X106067475Y-78639057D01*
X106073329Y-78640959D01*
X106277894Y-78665351D01*
X106284029Y-78664879D01*
X106284031Y-78664879D01*
X106340039Y-78660569D01*
X106483300Y-78649546D01*
X106489230Y-78647890D01*
X106489232Y-78647890D01*
X106675797Y-78595800D01*
X106675796Y-78595800D01*
X106681725Y-78594145D01*
X106687218Y-78591370D01*
X106687224Y-78591368D01*
X106714739Y-78577469D01*
X106784561Y-78564609D01*
X106850252Y-78591538D01*
X106890955Y-78649708D01*
X106893748Y-78720650D01*
X106860644Y-78779030D01*
X106565106Y-79074568D01*
X106502794Y-79108594D01*
X106462841Y-79110783D01*
X106313498Y-79095087D01*
X106313496Y-79095087D01*
X106307369Y-79094443D01*
X106220529Y-79102346D01*
X106108342Y-79112555D01*
X106108339Y-79112556D01*
X106102203Y-79113114D01*
X105904572Y-79171280D01*
X105722002Y-79266726D01*
X105717201Y-79270586D01*
X105717198Y-79270588D01*
X105576649Y-79383592D01*
X105561447Y-79395815D01*
X105429024Y-79553630D01*
X105426056Y-79559028D01*
X105426053Y-79559033D01*
X105419315Y-79571290D01*
X105329776Y-79734162D01*
X105267484Y-79930532D01*
X105266798Y-79936649D01*
X105266797Y-79936653D01*
X105245207Y-80129137D01*
X105244520Y-80135262D01*
X105245036Y-80141406D01*
X105258345Y-80299893D01*
X105261759Y-80340553D01*
X105263458Y-80346478D01*
X105299102Y-80470782D01*
X105318544Y-80538586D01*
X105321359Y-80544063D01*
X105321360Y-80544066D01*
X105409897Y-80716341D01*
X105412712Y-80721818D01*
X105540677Y-80883270D01*
X105545370Y-80887264D01*
X105545371Y-80887265D01*
X105575663Y-80913045D01*
X105697564Y-81016791D01*
X105877398Y-81117297D01*
X105972238Y-81148113D01*
X106067471Y-81179056D01*
X106067475Y-81179057D01*
X106073329Y-81180959D01*
X106277894Y-81205351D01*
X106284029Y-81204879D01*
X106284031Y-81204879D01*
X106340039Y-81200569D01*
X106483300Y-81189546D01*
X106489230Y-81187890D01*
X106489232Y-81187890D01*
X106638208Y-81146295D01*
X106681725Y-81134145D01*
X106687214Y-81131372D01*
X106687220Y-81131370D01*
X106860116Y-81044033D01*
X106865610Y-81041258D01*
X106902477Y-81012455D01*
X106956120Y-80970544D01*
X107027951Y-80914424D01*
X107060090Y-80877191D01*
X107158540Y-80763134D01*
X107158540Y-80763133D01*
X107162564Y-80758472D01*
X107183387Y-80721818D01*
X107215565Y-80665174D01*
X107264323Y-80579344D01*
X107329351Y-80383863D01*
X107355171Y-80179474D01*
X107355583Y-80150000D01*
X107335480Y-79944970D01*
X107275935Y-79747749D01*
X107179218Y-79565849D01*
X107175326Y-79561077D01*
X107175322Y-79561071D01*
X107168188Y-79552325D01*
X107140632Y-79486894D01*
X107152826Y-79416952D01*
X107176734Y-79383592D01*
X107659405Y-78900921D01*
X107721717Y-78866895D01*
X107792532Y-78871960D01*
X107849368Y-78914507D01*
X107874179Y-78981027D01*
X107874500Y-78990016D01*
X107874500Y-80587984D01*
X107854498Y-80656105D01*
X107837595Y-80677079D01*
X106830551Y-81684123D01*
X106768239Y-81718149D01*
X106704197Y-81715393D01*
X106603179Y-81684123D01*
X106512254Y-81655977D01*
X106506129Y-81655333D01*
X106506128Y-81655333D01*
X106313498Y-81635087D01*
X106313496Y-81635087D01*
X106307369Y-81634443D01*
X106220529Y-81642346D01*
X106108342Y-81652555D01*
X106108339Y-81652556D01*
X106102203Y-81653114D01*
X105904572Y-81711280D01*
X105899107Y-81714137D01*
X105828800Y-81750893D01*
X105722002Y-81806726D01*
X105717201Y-81810586D01*
X105717198Y-81810588D01*
X105571169Y-81927998D01*
X105561447Y-81935815D01*
X105429024Y-82093630D01*
X105426056Y-82099028D01*
X105426053Y-82099033D01*
X105361196Y-82217009D01*
X105329776Y-82274162D01*
X105267484Y-82470532D01*
X105266798Y-82476649D01*
X105266797Y-82476653D01*
X105250135Y-82625204D01*
X105244520Y-82675262D01*
X105247937Y-82715949D01*
X105258831Y-82845681D01*
X105261759Y-82880553D01*
X105318544Y-83078586D01*
X105321359Y-83084063D01*
X105321360Y-83084066D01*
X105382435Y-83202905D01*
X105412712Y-83261818D01*
X105540677Y-83423270D01*
X105545370Y-83427264D01*
X105545371Y-83427265D01*
X105653758Y-83519509D01*
X105697564Y-83556791D01*
X105702942Y-83559797D01*
X105702944Y-83559798D01*
X105757226Y-83590135D01*
X105877398Y-83657297D01*
X105968863Y-83687016D01*
X106067471Y-83719056D01*
X106067475Y-83719057D01*
X106073329Y-83720959D01*
X106277894Y-83745351D01*
X106284029Y-83744879D01*
X106284031Y-83744879D01*
X106340039Y-83740569D01*
X106483300Y-83729546D01*
X106489230Y-83727890D01*
X106489232Y-83727890D01*
X106675797Y-83675800D01*
X106675796Y-83675800D01*
X106681725Y-83674145D01*
X106687214Y-83671372D01*
X106687220Y-83671370D01*
X106845285Y-83591525D01*
X106865610Y-83581258D01*
X107027951Y-83454424D01*
X107046181Y-83433305D01*
X107158540Y-83303134D01*
X107158540Y-83303133D01*
X107162564Y-83298472D01*
X107183387Y-83261818D01*
X107207079Y-83220112D01*
X107264323Y-83119344D01*
X107329351Y-82923863D01*
X107355171Y-82719474D01*
X107355583Y-82690000D01*
X107335480Y-82484970D01*
X107275935Y-82287749D01*
X107273042Y-82282309D01*
X107270693Y-82276608D01*
X107272967Y-82275671D01*
X107260828Y-82216737D01*
X107286374Y-82150495D01*
X107297305Y-82138021D01*
X108416215Y-81019111D01*
X108424319Y-81011684D01*
X108444749Y-80994541D01*
X108453194Y-80987455D01*
X108460354Y-80975054D01*
X108472039Y-80954815D01*
X108477945Y-80945544D01*
X108493230Y-80923715D01*
X108499554Y-80914684D01*
X108502408Y-80904034D01*
X108503885Y-80900866D01*
X108505077Y-80897590D01*
X108510588Y-80888045D01*
X108517130Y-80850942D01*
X108519509Y-80840210D01*
X108519711Y-80839456D01*
X108529264Y-80803807D01*
X108528168Y-80791272D01*
X108525979Y-80766257D01*
X108525500Y-80755276D01*
X108525500Y-79111614D01*
X108545502Y-79043493D01*
X108562405Y-79022519D01*
X112839916Y-74745008D01*
X112902228Y-74710982D01*
X112945456Y-74709181D01*
X113012299Y-74717981D01*
X113020487Y-74716903D01*
X113160873Y-74698421D01*
X113169061Y-74697343D01*
X113315140Y-74636835D01*
X113440581Y-74540581D01*
X113536835Y-74415140D01*
X113597343Y-74269061D01*
X113617981Y-74112299D01*
X113597343Y-73955537D01*
X113536835Y-73809458D01*
X113452086Y-73699011D01*
X113445604Y-73690563D01*
X113440581Y-73684017D01*
X113315140Y-73587763D01*
X113247120Y-73559588D01*
X113191839Y-73515039D01*
X113169418Y-73447676D01*
X113186976Y-73378885D01*
X113206243Y-73354084D01*
X114597922Y-71962405D01*
X114660234Y-71928379D01*
X114687017Y-71925500D01*
X115230714Y-71925500D01*
X115298835Y-71945502D01*
X115330677Y-71974796D01*
X115371718Y-72028282D01*
X115497159Y-72124536D01*
X115643238Y-72185044D01*
X115800000Y-72205682D01*
X115808188Y-72204604D01*
X115948574Y-72186122D01*
X115956762Y-72185044D01*
X116102841Y-72124536D01*
X116228282Y-72028282D01*
X116324536Y-71902841D01*
X116385044Y-71756762D01*
X116405682Y-71600000D01*
X116385044Y-71443238D01*
X116324536Y-71297159D01*
X116228282Y-71171718D01*
X116102841Y-71075464D01*
X115956762Y-71014956D01*
X115800000Y-70994318D01*
X115643238Y-71014956D01*
X115497159Y-71075464D01*
X115371718Y-71171718D01*
X115366695Y-71178264D01*
X115330677Y-71225204D01*
X115273339Y-71267071D01*
X115230714Y-71274500D01*
X115212716Y-71274500D01*
X115144595Y-71254498D01*
X115098102Y-71200842D01*
X115087998Y-71130568D01*
X115096307Y-71100282D01*
X115131884Y-71014392D01*
X115131885Y-71014389D01*
X115135044Y-71006762D01*
X115155682Y-70850000D01*
X115135044Y-70693238D01*
X115074536Y-70547159D01*
X114978282Y-70421718D01*
X114852841Y-70325464D01*
X114706762Y-70264956D01*
X114685183Y-70262115D01*
X114581576Y-70248475D01*
X114550000Y-70244318D01*
X114518424Y-70248475D01*
X114414818Y-70262115D01*
X114393238Y-70264956D01*
X114247159Y-70325464D01*
X114121718Y-70421718D01*
X114025464Y-70547159D01*
X113964956Y-70693238D01*
X113944318Y-70850000D01*
X113945396Y-70858187D01*
X113953118Y-70916840D01*
X113942179Y-70986989D01*
X113917291Y-71022382D01*
X112034694Y-72904980D01*
X110176579Y-74763095D01*
X110114267Y-74797121D01*
X110087484Y-74800000D01*
X107726000Y-74800000D01*
X107657879Y-74779998D01*
X107611386Y-74726342D01*
X107600000Y-74674000D01*
X107600000Y-72941609D01*
X107605442Y-72904980D01*
X107630377Y-72822910D01*
X107632555Y-72812837D01*
X107633986Y-72801962D01*
X107631775Y-72787778D01*
X107618617Y-72784000D01*
X104983225Y-72784000D01*
X104969694Y-72787973D01*
X104968257Y-72797966D01*
X97000000Y-72797966D01*
X97000000Y-72264183D01*
X104964389Y-72264183D01*
X104965912Y-72272607D01*
X104978292Y-72276000D01*
X106027885Y-72276000D01*
X106043124Y-72271525D01*
X106044329Y-72270135D01*
X106046000Y-72262452D01*
X106046000Y-72257885D01*
X106554000Y-72257885D01*
X106558475Y-72273124D01*
X106559865Y-72274329D01*
X106567548Y-72276000D01*
X107618344Y-72276000D01*
X107631875Y-72272027D01*
X107633180Y-72262947D01*
X107591214Y-72095875D01*
X107587894Y-72086124D01*
X107502972Y-71890814D01*
X107498105Y-71881739D01*
X107382426Y-71702926D01*
X107376136Y-71694757D01*
X107232806Y-71537240D01*
X107225273Y-71530215D01*
X107058139Y-71398222D01*
X107049552Y-71392517D01*
X107012116Y-71371851D01*
X106962146Y-71321419D01*
X106947374Y-71251976D01*
X106972490Y-71185571D01*
X106999842Y-71158964D01*
X107175327Y-71033792D01*
X107183200Y-71027139D01*
X107334052Y-70876812D01*
X107340730Y-70868965D01*
X107465003Y-70696020D01*
X107470313Y-70687183D01*
X107564670Y-70496267D01*
X107568469Y-70486672D01*
X107630377Y-70282910D01*
X107632555Y-70272837D01*
X107633986Y-70261962D01*
X107631775Y-70247778D01*
X107618617Y-70244000D01*
X106572115Y-70244000D01*
X106556876Y-70248475D01*
X106555671Y-70249865D01*
X106554000Y-70257548D01*
X106554000Y-72257885D01*
X106046000Y-72257885D01*
X106046000Y-70262115D01*
X106041525Y-70246876D01*
X106040135Y-70245671D01*
X106032452Y-70244000D01*
X104983225Y-70244000D01*
X104969694Y-70247973D01*
X104968257Y-70257966D01*
X104998565Y-70392446D01*
X105001645Y-70402275D01*
X105081770Y-70599603D01*
X105086413Y-70608794D01*
X105197694Y-70790388D01*
X105203777Y-70798699D01*
X105343213Y-70959667D01*
X105350580Y-70966883D01*
X105514434Y-71102916D01*
X105522881Y-71108831D01*
X105592479Y-71149501D01*
X105641203Y-71201140D01*
X105654274Y-71270923D01*
X105627543Y-71336694D01*
X105587087Y-71370053D01*
X105578462Y-71374542D01*
X105569738Y-71380036D01*
X105399433Y-71507905D01*
X105391726Y-71514748D01*
X105244590Y-71668717D01*
X105238104Y-71676727D01*
X105118098Y-71852649D01*
X105113000Y-71861623D01*
X105023338Y-72054783D01*
X105019775Y-72064470D01*
X104964389Y-72264183D01*
X97000000Y-72264183D01*
X97000000Y-69724183D01*
X104964389Y-69724183D01*
X104965912Y-69732607D01*
X104978292Y-69736000D01*
X107618344Y-69736000D01*
X107631875Y-69732027D01*
X107633180Y-69722947D01*
X107591214Y-69555875D01*
X107587894Y-69546124D01*
X107502972Y-69350814D01*
X107498105Y-69341739D01*
X107382426Y-69162926D01*
X107376136Y-69154757D01*
X107232806Y-68997240D01*
X107225273Y-68990215D01*
X107054081Y-68855017D01*
X107055162Y-68853648D01*
X107014431Y-68805160D01*
X107005405Y-68734739D01*
X107035884Y-68670618D01*
X107096191Y-68633154D01*
X107121333Y-68630848D01*
X107121194Y-68629264D01*
X107158744Y-68625979D01*
X107169725Y-68625500D01*
X117512984Y-68625500D01*
X117581105Y-68645502D01*
X117602075Y-68662401D01*
X118537597Y-69597924D01*
X118571621Y-69660234D01*
X118574500Y-69687017D01*
X118574500Y-80780290D01*
X118574020Y-80791272D01*
X118570736Y-80828807D01*
X118580491Y-80865210D01*
X118582870Y-80875942D01*
X118589412Y-80913045D01*
X118594923Y-80922590D01*
X118596115Y-80925866D01*
X118597592Y-80929034D01*
X118600446Y-80939684D01*
X118610871Y-80954572D01*
X118622055Y-80970544D01*
X118627961Y-80979815D01*
X118641293Y-81002906D01*
X118646806Y-81012455D01*
X118655251Y-81019541D01*
X118675682Y-81036685D01*
X118683785Y-81044111D01*
X120855889Y-83216215D01*
X120863316Y-83224319D01*
X120887545Y-83253194D01*
X120897094Y-83258707D01*
X120920185Y-83272039D01*
X120929456Y-83277945D01*
X120960316Y-83299554D01*
X120970966Y-83302408D01*
X120974134Y-83303885D01*
X120977410Y-83305077D01*
X120986955Y-83310588D01*
X121020699Y-83316538D01*
X121024058Y-83317130D01*
X121034785Y-83319508D01*
X121071193Y-83329264D01*
X121082169Y-83328304D01*
X121082172Y-83328304D01*
X121108743Y-83325979D01*
X121119724Y-83325500D01*
X122530714Y-83325500D01*
X122598835Y-83345502D01*
X122630677Y-83374796D01*
X122671718Y-83428282D01*
X122797159Y-83524536D01*
X122943238Y-83585044D01*
X123100000Y-83605682D01*
X123108188Y-83604604D01*
X123248574Y-83586122D01*
X123256762Y-83585044D01*
X123402841Y-83524536D01*
X123528282Y-83428282D01*
X123624536Y-83302841D01*
X123685044Y-83156762D01*
X123705682Y-83000000D01*
X123685044Y-82843238D01*
X123624536Y-82697159D01*
X123528282Y-82571718D01*
X123402841Y-82475464D01*
X123256762Y-82414956D01*
X123100000Y-82394318D01*
X122943238Y-82414956D01*
X122797159Y-82475464D01*
X122671718Y-82571718D01*
X122666695Y-82578264D01*
X122630677Y-82625204D01*
X122573339Y-82667071D01*
X122530714Y-82674500D01*
X121287016Y-82674500D01*
X121218895Y-82654498D01*
X121197921Y-82637595D01*
X119262405Y-80702079D01*
X119228379Y-80639767D01*
X119225500Y-80612984D01*
X119225500Y-69519713D01*
X119225979Y-69508732D01*
X119228303Y-69482170D01*
X119228303Y-69482168D01*
X119229263Y-69471193D01*
X119219508Y-69434783D01*
X119217133Y-69424072D01*
X119212501Y-69397806D01*
X119210588Y-69386955D01*
X119205078Y-69377411D01*
X119203886Y-69374135D01*
X119202407Y-69370964D01*
X119199554Y-69360316D01*
X119177940Y-69329448D01*
X119172036Y-69320179D01*
X119158707Y-69297092D01*
X119158704Y-69297088D01*
X119153194Y-69287545D01*
X119124324Y-69263320D01*
X119116221Y-69255894D01*
X117944110Y-68083784D01*
X117936683Y-68075680D01*
X117919541Y-68055251D01*
X117919542Y-68055251D01*
X117912455Y-68046806D01*
X117902906Y-68041293D01*
X117879815Y-68027961D01*
X117870544Y-68022055D01*
X117848715Y-68006770D01*
X117839684Y-68000446D01*
X117829034Y-67997592D01*
X117825866Y-67996115D01*
X117822590Y-67994923D01*
X117813045Y-67989412D01*
X117779301Y-67983462D01*
X117775942Y-67982870D01*
X117765215Y-67980492D01*
X117728807Y-67970736D01*
X117717822Y-67971697D01*
X117717820Y-67971697D01*
X117691272Y-67974020D01*
X117680290Y-67974500D01*
X107476500Y-67974500D01*
X107408379Y-67954498D01*
X107361886Y-67900842D01*
X107350500Y-67848500D01*
X107350500Y-66580252D01*
X107338867Y-66521769D01*
X107294552Y-66455448D01*
X107228231Y-66411133D01*
X107216062Y-66408712D01*
X107216061Y-66408712D01*
X107175816Y-66400707D01*
X107169748Y-66399500D01*
X105430252Y-66399500D01*
X105424184Y-66400707D01*
X105383939Y-66408712D01*
X105383938Y-66408712D01*
X105371769Y-66411133D01*
X105305448Y-66455448D01*
X105261133Y-66521769D01*
X105249500Y-66580252D01*
X105249500Y-68319748D01*
X105261133Y-68378231D01*
X105305448Y-68444552D01*
X105371769Y-68488867D01*
X105383938Y-68491288D01*
X105383939Y-68491288D01*
X105424184Y-68499293D01*
X105430252Y-68500500D01*
X105705233Y-68500500D01*
X105773354Y-68520502D01*
X105819847Y-68574158D01*
X105829951Y-68644432D01*
X105800457Y-68709012D01*
X105763413Y-68738263D01*
X105578463Y-68834542D01*
X105569738Y-68840036D01*
X105399433Y-68967905D01*
X105391726Y-68974748D01*
X105244590Y-69128717D01*
X105238104Y-69136727D01*
X105118098Y-69312649D01*
X105113000Y-69321623D01*
X105023338Y-69514783D01*
X105019775Y-69524470D01*
X104964389Y-69724183D01*
X97000000Y-69724183D01*
X97000000Y-59235839D01*
X97020002Y-59167718D01*
X97073658Y-59121225D01*
X97143932Y-59111121D01*
X97208512Y-59140615D01*
X97243393Y-59190070D01*
X97261238Y-59235839D01*
X97267214Y-59251167D01*
X97429130Y-59556974D01*
X97431180Y-59559957D01*
X97431182Y-59559960D01*
X97623065Y-59839152D01*
X97623071Y-59839159D01*
X97625122Y-59842144D01*
X97852592Y-60102898D01*
X98108524Y-60335778D01*
X98389527Y-60537699D01*
X98691876Y-60705985D01*
X99011563Y-60838403D01*
X99015057Y-60839398D01*
X99015059Y-60839399D01*
X99340851Y-60932204D01*
X99340856Y-60932205D01*
X99344352Y-60933201D01*
X99580034Y-60971795D01*
X99682251Y-60988534D01*
X99682255Y-60988534D01*
X99685831Y-60989120D01*
X99689457Y-60989291D01*
X100027847Y-61005249D01*
X100027848Y-61005249D01*
X100031474Y-61005420D01*
X100042346Y-61004679D01*
X100373069Y-60982133D01*
X100373077Y-60982132D01*
X100376700Y-60981885D01*
X100380276Y-60981222D01*
X100380278Y-60981222D01*
X100713368Y-60919488D01*
X100713372Y-60919487D01*
X100716933Y-60918827D01*
X101047663Y-60817081D01*
X101364507Y-60677996D01*
X101663265Y-60503416D01*
X101666174Y-60501232D01*
X101937071Y-60297837D01*
X101937075Y-60297834D01*
X101939978Y-60295654D01*
X102190977Y-60057465D01*
X102412936Y-59792005D01*
X102565361Y-59559960D01*
X102600926Y-59505818D01*
X102600931Y-59505809D01*
X102602913Y-59502792D01*
X102731169Y-59247785D01*
X102756763Y-59196898D01*
X102756766Y-59196890D01*
X102758390Y-59193662D01*
X102759635Y-59190260D01*
X102876057Y-58872122D01*
X102876060Y-58872112D01*
X102877305Y-58868710D01*
X102878150Y-58865188D01*
X102878153Y-58865180D01*
X102957237Y-58535772D01*
X102957238Y-58535768D01*
X102958084Y-58532243D01*
X102958521Y-58528633D01*
X102999318Y-58191501D01*
X102999318Y-58191495D01*
X102999654Y-58188722D01*
X103005585Y-58000000D01*
X103000351Y-57909223D01*
X102985875Y-57658167D01*
X102985874Y-57658162D01*
X102985666Y-57654547D01*
X102985043Y-57650977D01*
X102926798Y-57317245D01*
X102926796Y-57317238D01*
X102926174Y-57313672D01*
X102827897Y-56981894D01*
X102790224Y-56893570D01*
X102693562Y-56666949D01*
X102693560Y-56666946D01*
X102692138Y-56663611D01*
X102520696Y-56363041D01*
X102461030Y-56281815D01*
X102317986Y-56087086D01*
X102315843Y-56084168D01*
X102080295Y-55830688D01*
X101817174Y-55605962D01*
X101529967Y-55412967D01*
X101222482Y-55254261D01*
X101219091Y-55252980D01*
X101219085Y-55252977D01*
X101194973Y-55243866D01*
X101138320Y-55201077D01*
X101113794Y-55134451D01*
X101129182Y-55065142D01*
X101179598Y-55015155D01*
X101239510Y-55000000D01*
X139762931Y-55000000D01*
X139831052Y-55020002D01*
G37*
G04 #@! TD.AperFunction*
G04 #@! TA.AperFunction,Conductor*
G36*
X123781105Y-62345502D02*
G01*
X123802079Y-62362405D01*
X124837595Y-63397921D01*
X124871621Y-63460233D01*
X124874500Y-63487016D01*
X124874500Y-69081714D01*
X124854498Y-69149835D01*
X124825204Y-69181677D01*
X124783239Y-69213878D01*
X124771718Y-69222718D01*
X124675464Y-69348159D01*
X124614956Y-69494238D01*
X124594318Y-69651000D01*
X124614956Y-69807762D01*
X124618116Y-69815391D01*
X124643131Y-69875782D01*
X124650720Y-69946371D01*
X124618941Y-70009858D01*
X124557883Y-70046086D01*
X124526722Y-70050000D01*
X124273278Y-70050000D01*
X124205157Y-70029998D01*
X124158664Y-69976342D01*
X124148560Y-69906068D01*
X124156869Y-69875782D01*
X124181884Y-69815391D01*
X124185044Y-69807762D01*
X124205682Y-69651000D01*
X124185044Y-69494238D01*
X124124536Y-69348159D01*
X124028282Y-69222718D01*
X124016762Y-69213878D01*
X123974796Y-69181677D01*
X123932929Y-69124339D01*
X123925500Y-69081714D01*
X123925500Y-66119713D01*
X123925979Y-66108732D01*
X123928303Y-66082170D01*
X123928303Y-66082168D01*
X123929263Y-66071193D01*
X123919508Y-66034783D01*
X123917133Y-66024072D01*
X123912501Y-65997806D01*
X123910588Y-65986955D01*
X123905078Y-65977411D01*
X123903886Y-65974135D01*
X123902407Y-65970964D01*
X123899554Y-65960316D01*
X123877940Y-65929448D01*
X123872036Y-65920179D01*
X123858707Y-65897092D01*
X123858704Y-65897088D01*
X123853194Y-65887545D01*
X123824330Y-65863325D01*
X123816227Y-65855899D01*
X123029801Y-65069473D01*
X122995775Y-65007161D01*
X123000840Y-64936346D01*
X123043387Y-64879510D01*
X123052593Y-64873234D01*
X123167807Y-64801937D01*
X123179208Y-64792901D01*
X123293739Y-64678171D01*
X123302751Y-64666760D01*
X123387816Y-64528757D01*
X123393963Y-64515576D01*
X123445138Y-64361290D01*
X123448005Y-64347914D01*
X123457672Y-64253562D01*
X123458000Y-64247146D01*
X123458000Y-63722115D01*
X123453525Y-63706876D01*
X123452135Y-63705671D01*
X123444452Y-63704000D01*
X121972000Y-63704000D01*
X121903879Y-63683998D01*
X121857386Y-63630342D01*
X121846000Y-63578000D01*
X121846000Y-63322000D01*
X121866002Y-63253879D01*
X121919658Y-63207386D01*
X121972000Y-63196000D01*
X123439884Y-63196000D01*
X123455123Y-63191525D01*
X123456328Y-63190135D01*
X123457999Y-63182452D01*
X123457999Y-62652905D01*
X123457662Y-62646386D01*
X123447743Y-62550794D01*
X123444850Y-62537396D01*
X123429497Y-62491375D01*
X123426913Y-62420425D01*
X123463098Y-62359342D01*
X123526562Y-62327518D01*
X123549021Y-62325500D01*
X123712984Y-62325500D01*
X123781105Y-62345502D01*
G37*
G04 #@! TD.AperFunction*
G04 #@! TD*
M02*
