M48
; DRILL file {KiCad (6.0.9)} date Thu Feb 23 12:46:20 2023
; FORMAT={-:-/ absolute / inch / decimal}
; #@! TF.CreationDate,2023-02-23T12:46:20+09:00
; #@! TF.GenerationSoftware,Kicad,Pcbnew,(6.0.9)
; #@! TF.FileFunction,MixedPlating,1,2
FMAT,2
INCH
; #@! TA.AperFunction,Plated,PTH,ViaDrill
T1C0.0157
; #@! TA.AperFunction,Plated,PTH,ComponentDrill
T2C0.0374
; #@! TA.AperFunction,Plated,PTH,ComponentDrill
T3C0.0394
; #@! TA.AperFunction,Plated,PTH,ComponentDrill
T4C0.1260
%
G90
G05
T1
X3.8858Y-3.9331
X3.9016Y-3.6181
X3.9055Y-3.0551
X3.9094Y-2.8543
X3.9134Y-2.5315
X3.9134Y-3.2559
X3.9803Y-3.4173
X3.9803Y-3.8268
X4.0512Y-2.7598
X4.0512Y-2.9528
X4.0551Y-3.1575
X4.0709Y-3.9606
X4.0748Y-2.4331
X4.1063Y-4.1535
X4.1417Y-3.3386
X4.1732Y-2.2835
X4.1811Y-2.5079
X4.2165Y-3.8425
X4.2244Y-3.622
X4.2323Y-3.5197
X4.252Y-4.1024
X4.2953Y-2.8031
X4.2953Y-2.9055
X4.2992Y-3.2008
X4.3031Y-2.5669
X4.3031Y-3.3228
X4.315Y-2.2283
X4.315Y-3.7205
X4.3858Y-3.0709
X4.3858Y-3.5157
X4.4213Y-2.8268
X4.4252Y-2.9961
X4.4331Y-3.185
X4.4493Y-2.9178
X4.4685Y-3.622
X4.4803Y-4.1535
X4.4921Y-3.8976
X4.5098Y-2.7894
X4.5118Y-3.2283
X4.5157Y-2.9252
X4.5157Y-3.1299
X4.5276Y-2.3583
X4.5394Y-3.3898
X4.5512Y-2.4961
X4.5591Y-2.8189
X4.6181Y-2.8622
X4.6181Y-4.0472
X4.6378Y-2.4961
X4.6535Y-2.2283
X4.6693Y-3.7638
X4.6732Y-3.8937
X4.6929Y-3.3898
X4.7047Y-3.2717
X4.7165Y-3.0276
X4.7205Y-2.9409
X4.7441Y-3.6654
X4.748Y-2.5906
X4.748Y-3.5354
X4.7559Y-4.1496
X4.8031Y-2.7992
X4.8346Y-2.7707
X4.8465Y-3.2677
X4.8622Y-2.3504
X4.8661Y-2.7422
X4.8661Y-2.9409
X4.8701Y-3.0591
X4.8858Y-2.5
X4.9173Y-3.2677
X4.9291Y-2.7422
X4.9409Y-3.6181
X4.9567Y-2.8701
X4.9567Y-4.0512
X4.9606Y-3.7402
X4.9685Y-2.4449
X4.9685Y-2.563
X4.9803Y-2.752
X4.9961Y-2.2402
X5.0Y-3.6299
X5.0394Y-2.9843
X5.0394Y-3.0787
X5.0409Y-2.8952
X5.0699Y-2.748
X5.0787Y-2.874
X5.0827Y-2.811
X5.0866Y-2.5827
X5.0906Y-3.4646
X5.1063Y-2.9291
X5.1142Y-3.5945
X5.1575Y-4.1496
X5.1772Y-3.811
X5.185Y-2.7283
X5.185Y-3.1299
X5.185Y-3.4646
X5.189Y-2.6378
X5.2008Y-2.3504
X5.2559Y-2.9094
X5.2559Y-3.5748
X5.2677Y-3.0433
X5.2717Y-3.7047
X5.3031Y-3.9646
X5.3071Y-4.1457
X5.3228Y-3.4567
X5.3386Y-2.2441
X5.3386Y-2.5394
X5.4094Y-4.0276
X5.4331Y-2.4213
X5.4764Y-3.4764
X5.4843Y-2.8071
X5.4882Y-3.1417
X5.5748Y-2.5315
X5.5827Y-3.9331
X5.5866Y-3.0276
X5.5866Y-3.3622
X5.5866Y-3.685
T2
X4.1516Y-3.4744
X4.1516Y-3.5728
X4.1516Y-3.6713
X4.1516Y-3.7697
X4.8091Y-3.876
X4.9075Y-3.876
X5.0059Y-3.876
X5.1043Y-3.876
T3
X4.185Y-2.6555
X4.185Y-2.7555
X4.185Y-2.8555
X4.185Y-2.9555
X4.185Y-3.0555
X4.185Y-3.1555
X4.185Y-3.2555
X4.3356Y-3.8465
X4.376Y-2.498
X4.4744Y-2.498
X4.7087Y-2.498
X4.8071Y-2.498
X5.0413Y-2.498
X5.1398Y-2.498
X5.3031Y-2.6841
X5.3031Y-3.8179
X5.3366Y-2.872
X5.3366Y-2.9705
X5.3366Y-3.2028
X5.3366Y-3.3012
X5.3366Y-3.5335
X5.3366Y-3.6319
T4
X3.937Y-2.2835
X3.937Y-4.0945
X5.5512Y-2.2835
X5.5512Y-4.0945
T0
M30
