G04 #@! TF.GenerationSoftware,KiCad,Pcbnew,(6.0.9)*
G04 #@! TF.CreationDate,2023-02-23T12:45:50+09:00*
G04 #@! TF.ProjectId,AMS_Temp_SMD,414d535f-5465-46d7-905f-534d442e6b69,rev?*
G04 #@! TF.SameCoordinates,Original*
G04 #@! TF.FileFunction,Copper,L1,Top*
G04 #@! TF.FilePolarity,Positive*
%FSLAX46Y46*%
G04 Gerber Fmt 4.6, Leading zero omitted, Abs format (unit mm)*
G04 Created by KiCad (PCBNEW (6.0.9)) date 2023-02-23 12:45:50*
%MOMM*%
%LPD*%
G01*
G04 APERTURE LIST*
G04 Aperture macros list*
%AMRoundRect*
0 Rectangle with rounded corners*
0 $1 Rounding radius*
0 $2 $3 $4 $5 $6 $7 $8 $9 X,Y pos of 4 corners*
0 Add a 4 corners polygon primitive as box body*
4,1,4,$2,$3,$4,$5,$6,$7,$8,$9,$2,$3,0*
0 Add four circle primitives for the rounded corners*
1,1,$1+$1,$2,$3*
1,1,$1+$1,$4,$5*
1,1,$1+$1,$6,$7*
1,1,$1+$1,$8,$9*
0 Add four rect primitives between the rounded corners*
20,1,$1+$1,$2,$3,$4,$5,0*
20,1,$1+$1,$4,$5,$6,$7,0*
20,1,$1+$1,$6,$7,$8,$9,0*
20,1,$1+$1,$8,$9,$2,$3,0*%
G04 Aperture macros list end*
G04 #@! TA.AperFunction,SMDPad,CuDef*
%ADD10RoundRect,0.250000X0.450000X-0.262500X0.450000X0.262500X-0.450000X0.262500X-0.450000X-0.262500X0*%
G04 #@! TD*
G04 #@! TA.AperFunction,ComponentPad*
%ADD11RoundRect,0.250000X0.600000X0.750000X-0.600000X0.750000X-0.600000X-0.750000X0.600000X-0.750000X0*%
G04 #@! TD*
G04 #@! TA.AperFunction,ComponentPad*
%ADD12O,1.700000X2.000000*%
G04 #@! TD*
G04 #@! TA.AperFunction,SMDPad,CuDef*
%ADD13RoundRect,0.225000X-0.250000X0.225000X-0.250000X-0.225000X0.250000X-0.225000X0.250000X0.225000X0*%
G04 #@! TD*
G04 #@! TA.AperFunction,ComponentPad*
%ADD14RoundRect,0.250000X0.750000X-0.600000X0.750000X0.600000X-0.750000X0.600000X-0.750000X-0.600000X0*%
G04 #@! TD*
G04 #@! TA.AperFunction,ComponentPad*
%ADD15O,2.000000X1.700000*%
G04 #@! TD*
G04 #@! TA.AperFunction,ComponentPad*
%ADD16C,5.600000*%
G04 #@! TD*
G04 #@! TA.AperFunction,SMDPad,CuDef*
%ADD17RoundRect,0.250000X0.262500X0.450000X-0.262500X0.450000X-0.262500X-0.450000X0.262500X-0.450000X0*%
G04 #@! TD*
G04 #@! TA.AperFunction,SMDPad,CuDef*
%ADD18RoundRect,0.225000X0.225000X0.250000X-0.225000X0.250000X-0.225000X-0.250000X0.225000X-0.250000X0*%
G04 #@! TD*
G04 #@! TA.AperFunction,SMDPad,CuDef*
%ADD19RoundRect,0.218750X-0.218750X-0.256250X0.218750X-0.256250X0.218750X0.256250X-0.218750X0.256250X0*%
G04 #@! TD*
G04 #@! TA.AperFunction,ComponentPad*
%ADD20R,1.700000X1.700000*%
G04 #@! TD*
G04 #@! TA.AperFunction,SMDPad,CuDef*
%ADD21R,0.300000X1.600000*%
G04 #@! TD*
G04 #@! TA.AperFunction,SMDPad,CuDef*
%ADD22RoundRect,0.250000X0.475000X-0.250000X0.475000X0.250000X-0.475000X0.250000X-0.475000X-0.250000X0*%
G04 #@! TD*
G04 #@! TA.AperFunction,SMDPad,CuDef*
%ADD23R,1.600000X0.550000*%
G04 #@! TD*
G04 #@! TA.AperFunction,SMDPad,CuDef*
%ADD24R,0.550000X1.600000*%
G04 #@! TD*
G04 #@! TA.AperFunction,ComponentPad*
%ADD25RoundRect,0.250000X-0.600000X-0.725000X0.600000X-0.725000X0.600000X0.725000X-0.600000X0.725000X0*%
G04 #@! TD*
G04 #@! TA.AperFunction,ComponentPad*
%ADD26O,1.700000X1.950000*%
G04 #@! TD*
G04 #@! TA.AperFunction,SMDPad,CuDef*
%ADD27RoundRect,0.250000X-0.450000X0.262500X-0.450000X-0.262500X0.450000X-0.262500X0.450000X0.262500X0*%
G04 #@! TD*
G04 #@! TA.AperFunction,SMDPad,CuDef*
%ADD28RoundRect,0.200000X-0.275000X0.200000X-0.275000X-0.200000X0.275000X-0.200000X0.275000X0.200000X0*%
G04 #@! TD*
G04 #@! TA.AperFunction,ComponentPad*
%ADD29RoundRect,0.250000X-0.725000X0.600000X-0.725000X-0.600000X0.725000X-0.600000X0.725000X0.600000X0*%
G04 #@! TD*
G04 #@! TA.AperFunction,ComponentPad*
%ADD30O,1.950000X1.700000*%
G04 #@! TD*
G04 #@! TA.AperFunction,SMDPad,CuDef*
%ADD31RoundRect,0.200000X0.200000X0.275000X-0.200000X0.275000X-0.200000X-0.275000X0.200000X-0.275000X0*%
G04 #@! TD*
G04 #@! TA.AperFunction,SMDPad,CuDef*
%ADD32R,3.800000X2.000000*%
G04 #@! TD*
G04 #@! TA.AperFunction,SMDPad,CuDef*
%ADD33R,1.500000X2.000000*%
G04 #@! TD*
G04 #@! TA.AperFunction,ComponentPad*
%ADD34O,1.700000X1.700000*%
G04 #@! TD*
G04 #@! TA.AperFunction,SMDPad,CuDef*
%ADD35RoundRect,0.218750X0.256250X-0.218750X0.256250X0.218750X-0.256250X0.218750X-0.256250X-0.218750X0*%
G04 #@! TD*
G04 #@! TA.AperFunction,ViaPad*
%ADD36C,0.800000*%
G04 #@! TD*
G04 #@! TA.AperFunction,Conductor*
%ADD37C,0.500000*%
G04 #@! TD*
G04 #@! TA.AperFunction,Conductor*
%ADD38C,0.250000*%
G04 #@! TD*
G04 APERTURE END LIST*
D10*
G04 #@! TO.P,R8,1*
G04 #@! TO.N,VCC*
X131700000Y-83112500D03*
G04 #@! TO.P,R8,2*
G04 #@! TO.N,/A7*
X131700000Y-81287500D03*
G04 #@! TD*
D11*
G04 #@! TO.P,J5,1,Pin_1*
G04 #@! TO.N,GND2*
X122100000Y-63450000D03*
D12*
G04 #@! TO.P,J5,2,Pin_2*
G04 #@! TO.N,/A2*
X119600000Y-63450000D03*
G04 #@! TD*
D11*
G04 #@! TO.P,J4,1,Pin_1*
G04 #@! TO.N,GND2*
X130550000Y-63450000D03*
D12*
G04 #@! TO.P,J4,2,Pin_2*
G04 #@! TO.N,/A1*
X128050000Y-63450000D03*
G04 #@! TD*
D11*
G04 #@! TO.P,J6,1,Pin_1*
G04 #@! TO.N,GND2*
X113650000Y-63450000D03*
D12*
G04 #@! TO.P,J6,2,Pin_2*
G04 #@! TO.N,/A3*
X111150000Y-63450000D03*
G04 #@! TD*
D13*
G04 #@! TO.P,C4,1*
G04 #@! TO.N,GND2*
X114700000Y-76625000D03*
G04 #@! TO.P,C4,2*
G04 #@! TO.N,VCC*
X114700000Y-78175000D03*
G04 #@! TD*
D14*
G04 #@! TO.P,J7,1,Pin_1*
G04 #@! TO.N,GND2*
X135550000Y-92250000D03*
D15*
G04 #@! TO.P,J7,2,Pin_2*
G04 #@! TO.N,/A6*
X135550000Y-89750000D03*
G04 #@! TD*
D16*
G04 #@! TO.P,REF\u002A\u002A,1*
G04 #@! TO.N,N/C*
X141000000Y-58000000D03*
G04 #@! TD*
D17*
G04 #@! TO.P,R5,1*
G04 #@! TO.N,VCC*
X121512500Y-67300000D03*
G04 #@! TO.P,R5,2*
G04 #@! TO.N,/A2*
X119687500Y-67300000D03*
G04 #@! TD*
D14*
G04 #@! TO.P,J3,1,Pin_1*
G04 #@! TO.N,GND2*
X135550000Y-75450000D03*
D15*
G04 #@! TO.P,J3,2,Pin_2*
G04 #@! TO.N,/A0*
X135550000Y-72950000D03*
G04 #@! TD*
D18*
G04 #@! TO.P,C5,1*
G04 #@! TO.N,/RESET*
X112975000Y-69300000D03*
G04 #@! TO.P,C5,2*
G04 #@! TO.N,/DTR*
X111425000Y-69300000D03*
G04 #@! TD*
D19*
G04 #@! TO.P,D1,1,K*
G04 #@! TO.N,GND2*
X121612500Y-84500000D03*
G04 #@! TO.P,D1,2,A*
G04 #@! TO.N,Net-(D1-Pad2)*
X123187500Y-84500000D03*
G04 #@! TD*
D20*
G04 #@! TO.P,J12,1,Pin_1*
G04 #@! TO.N,/SCK*
X110125000Y-97700000D03*
G04 #@! TD*
D16*
G04 #@! TO.P,REF\u002A\u002A,1*
G04 #@! TO.N,N/C*
X100000000Y-58000000D03*
G04 #@! TD*
D10*
G04 #@! TO.P,R7,1*
G04 #@! TO.N,VCC*
X131700000Y-91612500D03*
G04 #@! TO.P,R7,2*
G04 #@! TO.N,/A6*
X131700000Y-89787500D03*
G04 #@! TD*
D17*
G04 #@! TO.P,R4,1*
G04 #@! TO.N,VCC*
X129912500Y-67300000D03*
G04 #@! TO.P,R4,2*
G04 #@! TO.N,/A1*
X128087500Y-67300000D03*
G04 #@! TD*
D13*
G04 #@! TO.P,C3,1*
G04 #@! TO.N,GND2*
X129200000Y-75925000D03*
G04 #@! TO.P,C3,2*
G04 #@! TO.N,/AREF*
X129200000Y-77475000D03*
G04 #@! TD*
D20*
G04 #@! TO.P,J10,1,Pin_1*
G04 #@! TO.N,/RESET*
X134700000Y-68175000D03*
G04 #@! TD*
D21*
G04 #@! TO.P,Y1,1,1*
G04 #@! TO.N,/PB7*
X117550000Y-84075000D03*
G04 #@! TO.P,Y1,2,2*
G04 #@! TO.N,GND2*
X116600000Y-84075000D03*
G04 #@! TO.P,Y1,3,3*
G04 #@! TO.N,/PB6*
X115650000Y-84075000D03*
G04 #@! TD*
D22*
G04 #@! TO.P,C2,1*
G04 #@! TO.N,VCC*
X112800000Y-85050000D03*
G04 #@! TO.P,C2,2*
G04 #@! TO.N,GND2*
X112800000Y-83150000D03*
G04 #@! TD*
D23*
G04 #@! TO.P,U1,1,PD3*
G04 #@! TO.N,unconnected-(U1-Pad1)*
X117350000Y-74200000D03*
G04 #@! TO.P,U1,2,PD4*
G04 #@! TO.N,unconnected-(U1-Pad2)*
X117350000Y-75000000D03*
G04 #@! TO.P,U1,3,GND*
G04 #@! TO.N,GND2*
X117350000Y-75800000D03*
G04 #@! TO.P,U1,4,VCC*
G04 #@! TO.N,VCC*
X117350000Y-76600000D03*
G04 #@! TO.P,U1,5,GND*
G04 #@! TO.N,GND2*
X117350000Y-77400000D03*
G04 #@! TO.P,U1,6,VCC*
G04 #@! TO.N,VCC*
X117350000Y-78200000D03*
G04 #@! TO.P,U1,7,XTAL1/PB6*
G04 #@! TO.N,/PB6*
X117350000Y-79000000D03*
G04 #@! TO.P,U1,8,XTAL2/PB7*
G04 #@! TO.N,/PB7*
X117350000Y-79800000D03*
D24*
G04 #@! TO.P,U1,9,PD5*
G04 #@! TO.N,unconnected-(U1-Pad9)*
X118800000Y-81250000D03*
G04 #@! TO.P,U1,10,PD6*
G04 #@! TO.N,unconnected-(U1-Pad10)*
X119600000Y-81250000D03*
G04 #@! TO.P,U1,11,PD7*
G04 #@! TO.N,unconnected-(U1-Pad11)*
X120400000Y-81250000D03*
G04 #@! TO.P,U1,12,PB0*
G04 #@! TO.N,unconnected-(U1-Pad12)*
X121200000Y-81250000D03*
G04 #@! TO.P,U1,13,PB1*
G04 #@! TO.N,unconnected-(U1-Pad13)*
X122000000Y-81250000D03*
G04 #@! TO.P,U1,14,PB2*
G04 #@! TO.N,unconnected-(U1-Pad14)*
X122800000Y-81250000D03*
G04 #@! TO.P,U1,15,PB3*
G04 #@! TO.N,/MOSI*
X123600000Y-81250000D03*
G04 #@! TO.P,U1,16,PB4*
G04 #@! TO.N,/MISO*
X124400000Y-81250000D03*
D23*
G04 #@! TO.P,U1,17,PB5*
G04 #@! TO.N,/SCK*
X125850000Y-79800000D03*
G04 #@! TO.P,U1,18,AVCC*
G04 #@! TO.N,VCC*
X125850000Y-79000000D03*
G04 #@! TO.P,U1,19,ADC6*
G04 #@! TO.N,/A6*
X125850000Y-78200000D03*
G04 #@! TO.P,U1,20,AREF*
G04 #@! TO.N,/AREF*
X125850000Y-77400000D03*
G04 #@! TO.P,U1,21,GND*
G04 #@! TO.N,GND2*
X125850000Y-76600000D03*
G04 #@! TO.P,U1,22,ADC7*
G04 #@! TO.N,/A7*
X125850000Y-75800000D03*
G04 #@! TO.P,U1,23,PC0*
G04 #@! TO.N,/A0*
X125850000Y-75000000D03*
G04 #@! TO.P,U1,24,PC1*
G04 #@! TO.N,/A1*
X125850000Y-74200000D03*
D24*
G04 #@! TO.P,U1,25,PC2*
G04 #@! TO.N,/A2*
X124400000Y-72750000D03*
G04 #@! TO.P,U1,26,PC3*
G04 #@! TO.N,/A3*
X123600000Y-72750000D03*
G04 #@! TO.P,U1,27,PC4*
G04 #@! TO.N,SDA*
X122800000Y-72750000D03*
G04 #@! TO.P,U1,28,PC5*
G04 #@! TO.N,SCL*
X122000000Y-72750000D03*
G04 #@! TO.P,U1,29,~{RESET}/PC6*
G04 #@! TO.N,/RESET*
X121200000Y-72750000D03*
G04 #@! TO.P,U1,30,PD0*
G04 #@! TO.N,/RXI*
X120400000Y-72750000D03*
G04 #@! TO.P,U1,31,PD1*
G04 #@! TO.N,/TXO*
X119600000Y-72750000D03*
G04 #@! TO.P,U1,32,PD2*
G04 #@! TO.N,unconnected-(U1-Pad32)*
X118800000Y-72750000D03*
G04 #@! TD*
D25*
G04 #@! TO.P,J2,1,Pin_1*
G04 #@! TO.N,GND2*
X122150000Y-98450000D03*
D26*
G04 #@! TO.P,J2,2,Pin_2*
G04 #@! TO.N,SCL*
X124650000Y-98450000D03*
G04 #@! TO.P,J2,3,Pin_3*
G04 #@! TO.N,SDA*
X127150000Y-98450000D03*
G04 #@! TO.P,J2,4,Pin_4*
G04 #@! TO.N,+12V*
X129650000Y-98450000D03*
G04 #@! TD*
D27*
G04 #@! TO.P,R11,1*
G04 #@! TO.N,VCC*
X122100000Y-86987500D03*
G04 #@! TO.P,R11,2*
G04 #@! TO.N,Net-(D2-Pad2)*
X122100000Y-88812500D03*
G04 #@! TD*
D16*
G04 #@! TO.P,REF\u002A\u002A,1*
G04 #@! TO.N,N/C*
X141000000Y-104000000D03*
G04 #@! TD*
G04 #@! TO.P,REF\u002A\u002A,1*
G04 #@! TO.N,N/C*
X100000000Y-104000000D03*
G04 #@! TD*
D10*
G04 #@! TO.P,R3,1*
G04 #@! TO.N,VCC*
X131700000Y-74812500D03*
G04 #@! TO.P,R3,2*
G04 #@! TO.N,/A0*
X131700000Y-72987500D03*
G04 #@! TD*
D13*
G04 #@! TO.P,C1,1*
G04 #@! TO.N,+12V*
X111100000Y-90725000D03*
G04 #@! TO.P,C1,2*
G04 #@! TO.N,GND2*
X111100000Y-92275000D03*
G04 #@! TD*
D17*
G04 #@! TO.P,R2,1*
G04 #@! TO.N,VCC*
X116412500Y-69300000D03*
G04 #@! TO.P,R2,2*
G04 #@! TO.N,/RESET*
X114587500Y-69300000D03*
G04 #@! TD*
D28*
G04 #@! TO.P,R10,1*
G04 #@! TO.N,VCC*
X123900000Y-86975000D03*
G04 #@! TO.P,R10,2*
G04 #@! TO.N,SCL*
X123900000Y-88625000D03*
G04 #@! TD*
D29*
G04 #@! TO.P,J1,1,Pin_1*
G04 #@! TO.N,+12V*
X105450000Y-88250000D03*
D30*
G04 #@! TO.P,J1,2,Pin_2*
G04 #@! TO.N,SDA*
X105450000Y-90750000D03*
G04 #@! TO.P,J1,3,Pin_3*
G04 #@! TO.N,SCL*
X105450000Y-93250000D03*
G04 #@! TO.P,J1,4,Pin_4*
G04 #@! TO.N,GND2*
X105450000Y-95750000D03*
G04 #@! TD*
D28*
G04 #@! TO.P,R9,1*
G04 #@! TO.N,VCC*
X125500000Y-86975000D03*
G04 #@! TO.P,R9,2*
G04 #@! TO.N,SDA*
X125500000Y-88625000D03*
G04 #@! TD*
D31*
G04 #@! TO.P,R1,1*
G04 #@! TO.N,/SCK*
X126325000Y-84500000D03*
G04 #@! TO.P,R1,2*
G04 #@! TO.N,Net-(D1-Pad2)*
X124675000Y-84500000D03*
G04 #@! TD*
D20*
G04 #@! TO.P,J9,1,Pin_1*
G04 #@! TO.N,/MISO*
X134700000Y-96975000D03*
G04 #@! TD*
D32*
G04 #@! TO.P,U2,*
G04 #@! TO.N,*
X115600000Y-95050000D03*
D33*
G04 #@! TO.P,U2,1,GND*
G04 #@! TO.N,GND2*
X117900000Y-88750000D03*
G04 #@! TO.P,U2,2,VO*
G04 #@! TO.N,VCC*
X115600000Y-88750000D03*
G04 #@! TO.P,U2,3,VI*
G04 #@! TO.N,+12V*
X113300000Y-88750000D03*
G04 #@! TD*
D20*
G04 #@! TO.P,J11,1,Pin_1*
G04 #@! TO.N,/MOSI*
X106300000Y-67450000D03*
D34*
G04 #@! TO.P,J11,2,Pin_2*
G04 #@! TO.N,GND2*
X106300000Y-69990000D03*
G04 #@! TO.P,J11,3,Pin_3*
X106300000Y-72530000D03*
G04 #@! TO.P,J11,4,Pin_4*
G04 #@! TO.N,VCC*
X106300000Y-75070000D03*
G04 #@! TO.P,J11,5,Pin_5*
G04 #@! TO.N,/RXI*
X106300000Y-77610000D03*
G04 #@! TO.P,J11,6,Pin_6*
G04 #@! TO.N,/TXO*
X106300000Y-80150000D03*
G04 #@! TO.P,J11,7,Pin_7*
G04 #@! TO.N,/DTR*
X106300000Y-82690000D03*
G04 #@! TD*
D17*
G04 #@! TO.P,R6,1*
G04 #@! TO.N,VCC*
X113012500Y-67300000D03*
G04 #@! TO.P,R6,2*
G04 #@! TO.N,/A3*
X111187500Y-67300000D03*
G04 #@! TD*
D35*
G04 #@! TO.P,D2,1,K*
G04 #@! TO.N,GND2*
X122100000Y-91987500D03*
G04 #@! TO.P,D2,2,A*
G04 #@! TO.N,Net-(D2-Pad2)*
X122100000Y-90412500D03*
G04 #@! TD*
D14*
G04 #@! TO.P,J8,1,Pin_1*
G04 #@! TO.N,GND2*
X135550000Y-83850000D03*
D15*
G04 #@! TO.P,J8,2,Pin_2*
G04 #@! TO.N,/A7*
X135550000Y-81350000D03*
G04 #@! TD*
D36*
G04 #@! TO.N,GND2*
X109600000Y-94500000D03*
X135200000Y-87800000D03*
X103500000Y-61800000D03*
X102900000Y-75000000D03*
X133800000Y-77300000D03*
X101100000Y-97200000D03*
X135600000Y-64500000D03*
X119200000Y-86100000D03*
X119500000Y-83100000D03*
X107100000Y-97600000D03*
X115600000Y-63400000D03*
X141600000Y-64300000D03*
X133900000Y-94100000D03*
X109100000Y-71200000D03*
X118700000Y-98900000D03*
X129700000Y-74400000D03*
X113500000Y-92000000D03*
X99300000Y-72500000D03*
X133500000Y-73900000D03*
X129900000Y-91300000D03*
X111400000Y-89300000D03*
X138000000Y-61500000D03*
X125500000Y-91900000D03*
X131500000Y-96800000D03*
X99400000Y-64300000D03*
X131000000Y-105400000D03*
X114700000Y-74300000D03*
X134800000Y-105300000D03*
X139300000Y-71300000D03*
X99100000Y-91900000D03*
X125900000Y-72900000D03*
X133500000Y-90800000D03*
X112400000Y-76100000D03*
X99200000Y-77600000D03*
X120600000Y-89800000D03*
X129200000Y-65600000D03*
X119800000Y-76900000D03*
X131700000Y-69300000D03*
X109200000Y-81300000D03*
X114600000Y-82000000D03*
X107300000Y-92000000D03*
X109100000Y-73800000D03*
X114700000Y-79500000D03*
X124100000Y-63500000D03*
X125900000Y-102900000D03*
X129300000Y-88000000D03*
X98700000Y-99900000D03*
X126900000Y-56900000D03*
X132100000Y-59700000D03*
X123600000Y-74700000D03*
X99400000Y-82700000D03*
X120600000Y-65800000D03*
X115300000Y-86100000D03*
X112300000Y-71800000D03*
X134700000Y-100700000D03*
X126200000Y-62100000D03*
X109300000Y-84400000D03*
X119900000Y-74700000D03*
X109600000Y-56600000D03*
X106200000Y-63700000D03*
X113800000Y-105500000D03*
X117300000Y-102800000D03*
X131800000Y-67000000D03*
X123700000Y-77700000D03*
X111400000Y-78000000D03*
X117800000Y-63400000D03*
X141900000Y-85400000D03*
X117300000Y-72700000D03*
X139400000Y-79800000D03*
X131700000Y-88000000D03*
X101100000Y-86800000D03*
X137400000Y-102300000D03*
X126000000Y-95000000D03*
X109300000Y-65200000D03*
X141800000Y-99900000D03*
X120500000Y-93100000D03*
X118600000Y-95600000D03*
X131700000Y-79500000D03*
X123500000Y-59700000D03*
X126500000Y-69900000D03*
X120800000Y-105400000D03*
X129100000Y-71400000D03*
X126200000Y-65100000D03*
X135600000Y-57000000D03*
X112600000Y-80900000D03*
X104300000Y-105500000D03*
X103000000Y-80200000D03*
X103400000Y-100600000D03*
X118200000Y-56600000D03*
X139100000Y-88300000D03*
X114100000Y-99000000D03*
X115000000Y-59900000D03*
X105200000Y-84800000D03*
X107500000Y-89400000D03*
X141900000Y-76900000D03*
X106000000Y-58000000D03*
X141900000Y-93600000D03*
X108000000Y-104200000D03*
X102900000Y-70100000D03*
G04 #@! TO.N,/RESET*
X128774500Y-69800000D03*
G04 #@! TO.N,/DTR*
X113012299Y-74112299D03*
G04 #@! TO.N,/A0*
X129000000Y-73000000D03*
G04 #@! TO.N,/A1*
X128037701Y-73537701D03*
G04 #@! TO.N,/A2*
X125200000Y-69651000D03*
G04 #@! TO.N,/A3*
X123600000Y-69651000D03*
G04 #@! TO.N,/A6*
X128000000Y-78200000D03*
G04 #@! TO.N,/A7*
X128000000Y-75800000D03*
G04 #@! TO.N,SDA*
X122800000Y-70375500D03*
G04 #@! TO.N,SCL*
X122000000Y-71100000D03*
G04 #@! TO.N,/TXO*
X115800000Y-71600000D03*
G04 #@! TO.N,/RXI*
X114550000Y-70850000D03*
G04 #@! TO.N,/MOSI*
X123100000Y-83000000D03*
G04 #@! TO.N,/MISO*
X124900000Y-83000000D03*
X127000000Y-92200000D03*
G04 #@! TD*
D37*
G04 #@! TO.N,+12V*
X113300000Y-90000000D02*
X113300000Y-88750000D01*
X112575000Y-90725000D02*
X113300000Y-90000000D01*
X108625000Y-88250000D02*
X111100000Y-90725000D01*
X111100000Y-90725000D02*
X112575000Y-90725000D01*
X105450000Y-88250000D02*
X108625000Y-88250000D01*
G04 #@! TO.N,VCC*
X130475000Y-90387500D02*
X131700000Y-91612500D01*
X118900000Y-68500000D02*
X118100000Y-69300000D01*
X130400000Y-81812500D02*
X131700000Y-83112500D01*
X128712500Y-68500000D02*
X129912500Y-67300000D01*
X130475000Y-86975000D02*
X130475000Y-90387500D01*
X116275000Y-76600000D02*
X117350000Y-76600000D01*
X131700000Y-85750000D02*
X131700000Y-83112500D01*
X115600000Y-87850000D02*
X112800000Y-85050000D01*
X130300000Y-70100000D02*
X130300000Y-73412500D01*
X130400000Y-81800000D02*
X130400000Y-81812500D01*
X116412500Y-69300000D02*
X118100000Y-69300000D01*
X125850000Y-79000000D02*
X127600000Y-79000000D01*
X114700000Y-78175000D02*
X117325000Y-78175000D01*
X126100000Y-67300000D02*
X127300000Y-68500000D01*
X113525000Y-78175000D02*
X111500000Y-80200000D01*
X127600000Y-79000000D02*
X130400000Y-81800000D01*
X117350000Y-78200000D02*
X121100000Y-78200000D01*
X125500000Y-86975000D02*
X130475000Y-86975000D01*
X127300000Y-68500000D02*
X128712500Y-68500000D01*
X121500000Y-67300000D02*
X121512500Y-67300000D01*
X117700000Y-67300000D02*
X118900000Y-68500000D01*
X122112500Y-86975000D02*
X122100000Y-86987500D01*
X120300000Y-68500000D02*
X121500000Y-67300000D01*
X125500000Y-86975000D02*
X123900000Y-86975000D01*
X128712500Y-68500000D02*
X128712500Y-68512500D01*
X111500000Y-84100000D02*
X112450000Y-85050000D01*
X118900000Y-68500000D02*
X120300000Y-68500000D01*
X131700000Y-74812500D02*
X131687500Y-74812500D01*
X113012500Y-67300000D02*
X117700000Y-67300000D01*
X114700000Y-78175000D02*
X113525000Y-78175000D01*
X131687500Y-74812500D02*
X130400000Y-76100000D01*
X130475000Y-86975000D02*
X131700000Y-85750000D01*
X121900000Y-79000000D02*
X125850000Y-79000000D01*
X111445000Y-80200000D02*
X111500000Y-80200000D01*
X117325000Y-78175000D02*
X117350000Y-78200000D01*
X111500000Y-80200000D02*
X111500000Y-84100000D01*
X130400000Y-76100000D02*
X130400000Y-81812500D01*
X112450000Y-85050000D02*
X112800000Y-85050000D01*
X123900000Y-86975000D02*
X122112500Y-86975000D01*
X121100000Y-78200000D02*
X121900000Y-79000000D01*
X115600000Y-88750000D02*
X115600000Y-87850000D01*
X114700000Y-78175000D02*
X116275000Y-76600000D01*
X130300000Y-73412500D02*
X131700000Y-74812500D01*
X128712500Y-68512500D02*
X130300000Y-70100000D01*
X121512500Y-67300000D02*
X126100000Y-67300000D01*
X106300000Y-75055000D02*
X111445000Y-80200000D01*
G04 #@! TO.N,GND2*
X125900000Y-76650000D02*
X128475000Y-76650000D01*
X128475000Y-76650000D02*
X129200000Y-75925000D01*
X125850000Y-76600000D02*
X125900000Y-76650000D01*
D38*
G04 #@! TO.N,/RESET*
X112975000Y-69300000D02*
X114587500Y-69300000D01*
X121800000Y-68700000D02*
X120100000Y-70400000D01*
X115687500Y-70400000D02*
X114587500Y-69300000D01*
X120100000Y-70400000D02*
X115687500Y-70400000D01*
X121200000Y-72750000D02*
X121200000Y-71500000D01*
X121200000Y-71500000D02*
X120100000Y-70400000D01*
X127786828Y-69800000D02*
X126686828Y-68700000D01*
X128774500Y-69800000D02*
X127786828Y-69800000D01*
X126686828Y-68700000D02*
X121800000Y-68700000D01*
G04 #@! TO.N,/DTR*
X111400000Y-72500000D02*
X113012299Y-74112299D01*
X111400000Y-69325000D02*
X111400000Y-72500000D01*
X111425000Y-69300000D02*
X111400000Y-69325000D01*
G04 #@! TO.N,Net-(D1-Pad2)*
X123187500Y-84500000D02*
X124675000Y-84500000D01*
G04 #@! TO.N,/A0*
X129000000Y-73600707D02*
X127600707Y-75000000D01*
X131737500Y-72950000D02*
X135550000Y-72950000D01*
X131700000Y-72987500D02*
X131737500Y-72950000D01*
X129000000Y-73000000D02*
X129000000Y-73600707D01*
X127600707Y-75000000D02*
X125850000Y-75000000D01*
G04 #@! TO.N,/A1*
X128037701Y-73562299D02*
X127400000Y-74200000D01*
X127400000Y-74200000D02*
X125850000Y-74200000D01*
X128050000Y-63450000D02*
X128050000Y-67262500D01*
X128037701Y-73537701D02*
X128037701Y-73562299D01*
X128050000Y-67262500D02*
X128087500Y-67300000D01*
G04 #@! TO.N,/A2*
X119687500Y-67300000D02*
X119600000Y-67212500D01*
X119600000Y-67212500D02*
X119600000Y-63450000D01*
X125200000Y-69651000D02*
X125200000Y-71950000D01*
X125200000Y-71950000D02*
X124400000Y-72750000D01*
G04 #@! TO.N,/A3*
X111150000Y-67262500D02*
X111150000Y-63450000D01*
X111187500Y-67300000D02*
X111150000Y-67262500D01*
X123600000Y-72750000D02*
X123600000Y-69651000D01*
G04 #@! TO.N,/A6*
X131700000Y-89787500D02*
X131737500Y-89750000D01*
X131737500Y-89750000D02*
X135550000Y-89750000D01*
X128000000Y-78200000D02*
X125850000Y-78200000D01*
G04 #@! TO.N,/A7*
X131700000Y-81287500D02*
X131762500Y-81350000D01*
X125850000Y-75800000D02*
X128000000Y-75800000D01*
X131762500Y-81350000D02*
X135550000Y-81350000D01*
G04 #@! TO.N,SDA*
X122800000Y-70375500D02*
X122800000Y-72750000D01*
X125500000Y-88625000D02*
X125475000Y-88625000D01*
X124350000Y-95650000D02*
X127150000Y-98450000D01*
X125475000Y-88625000D02*
X124350000Y-89750000D01*
X124350000Y-89750000D02*
X124350000Y-95650000D01*
G04 #@! TO.N,SCL*
X122000000Y-72750000D02*
X122000000Y-71100000D01*
X123900000Y-88625000D02*
X123900000Y-97700000D01*
X123900000Y-97700000D02*
X124650000Y-98450000D01*
G04 #@! TO.N,/TXO*
X115800000Y-71600000D02*
X119300000Y-71600000D01*
X119600000Y-71900000D02*
X119600000Y-72750000D01*
X119300000Y-71600000D02*
X119600000Y-71900000D01*
G04 #@! TO.N,/RXI*
X119650000Y-70850000D02*
X120400000Y-71600000D01*
X114550000Y-70850000D02*
X119650000Y-70850000D01*
X120400000Y-71600000D02*
X120400000Y-72750000D01*
G04 #@! TO.N,/MOSI*
X123600000Y-82500000D02*
X123600000Y-81250000D01*
X123100000Y-83000000D02*
X123600000Y-82500000D01*
G04 #@! TO.N,/MISO*
X127000000Y-92200000D02*
X129925000Y-92200000D01*
X124400000Y-82500000D02*
X124900000Y-83000000D01*
X129925000Y-92200000D02*
X134700000Y-96975000D01*
X124400000Y-81250000D02*
X124400000Y-82500000D01*
G04 #@! TO.N,Net-(D2-Pad2)*
X122100000Y-88812500D02*
X122100000Y-90412500D01*
G04 #@! TO.N,/PB6*
X115650000Y-79775000D02*
X116425000Y-79000000D01*
X115650000Y-84075000D02*
X115650000Y-79775000D01*
X116425000Y-79000000D02*
X117350000Y-79000000D01*
G04 #@! TO.N,/PB7*
X117550000Y-84075000D02*
X117550000Y-80000000D01*
X117550000Y-80000000D02*
X117350000Y-79800000D01*
G04 #@! TO.N,/AREF*
X125850000Y-77400000D02*
X129125000Y-77400000D01*
X129125000Y-77400000D02*
X129200000Y-77475000D01*
G04 #@! TO.N,/SCK*
X126325000Y-84975000D02*
X125500000Y-85800000D01*
X125500000Y-85800000D02*
X121000000Y-85800000D01*
X119475000Y-96425000D02*
X118200000Y-97700000D01*
X118200000Y-97700000D02*
X110125000Y-97700000D01*
X121000000Y-85800000D02*
X119475000Y-87325000D01*
X125850000Y-84025000D02*
X126325000Y-84500000D01*
X119475000Y-87325000D02*
X119475000Y-96425000D01*
X125850000Y-79800000D02*
X125850000Y-84025000D01*
X126325000Y-84500000D02*
X126325000Y-84975000D01*
G04 #@! TD*
G04 #@! TA.AperFunction,Conductor*
G04 #@! TO.N,GND2*
G36*
X139831052Y-55020002D02*
G01*
X139877545Y-55073658D01*
X139887649Y-55143932D01*
X139858155Y-55208512D01*
X139817176Y-55239726D01*
X139552048Y-55366186D01*
X139258921Y-55550064D01*
X139256087Y-55552334D01*
X139256082Y-55552338D01*
X139087066Y-55687746D01*
X138988871Y-55766415D01*
X138745477Y-56012371D01*
X138531966Y-56284672D01*
X138351168Y-56579709D01*
X138349641Y-56582999D01*
X138349636Y-56583008D01*
X138240435Y-56818262D01*
X138205478Y-56893570D01*
X138096828Y-57222097D01*
X138026658Y-57560935D01*
X137995898Y-57905592D01*
X138004956Y-58251501D01*
X138053712Y-58594076D01*
X138141519Y-58928777D01*
X138267214Y-59251167D01*
X138429130Y-59556974D01*
X138431180Y-59559957D01*
X138431182Y-59559960D01*
X138623065Y-59839152D01*
X138623071Y-59839159D01*
X138625122Y-59842144D01*
X138852592Y-60102898D01*
X139108524Y-60335778D01*
X139389527Y-60537699D01*
X139691876Y-60705985D01*
X140011563Y-60838403D01*
X140015057Y-60839398D01*
X140015059Y-60839399D01*
X140340851Y-60932204D01*
X140340856Y-60932205D01*
X140344352Y-60933201D01*
X140580034Y-60971795D01*
X140682251Y-60988534D01*
X140682255Y-60988534D01*
X140685831Y-60989120D01*
X140689457Y-60989291D01*
X141027847Y-61005249D01*
X141027848Y-61005249D01*
X141031474Y-61005420D01*
X141042346Y-61004679D01*
X141373069Y-60982133D01*
X141373077Y-60982132D01*
X141376700Y-60981885D01*
X141380276Y-60981222D01*
X141380278Y-60981222D01*
X141713368Y-60919488D01*
X141713372Y-60919487D01*
X141716933Y-60918827D01*
X142047663Y-60817081D01*
X142364507Y-60677996D01*
X142663265Y-60503416D01*
X142666174Y-60501232D01*
X142937071Y-60297837D01*
X142937075Y-60297834D01*
X142939978Y-60295654D01*
X143190977Y-60057465D01*
X143412936Y-59792005D01*
X143565361Y-59559960D01*
X143600926Y-59505818D01*
X143600931Y-59505809D01*
X143602913Y-59502792D01*
X143758390Y-59193662D01*
X143758713Y-59192779D01*
X143803772Y-59138626D01*
X143871478Y-59117264D01*
X143939986Y-59135899D01*
X143987543Y-59188613D01*
X144000000Y-59243239D01*
X144000000Y-102768828D01*
X143979998Y-102836949D01*
X143926342Y-102883442D01*
X143856068Y-102893546D01*
X143791488Y-102864052D01*
X143758102Y-102818262D01*
X143693562Y-102666949D01*
X143693560Y-102666946D01*
X143692138Y-102663611D01*
X143520696Y-102363041D01*
X143461030Y-102281815D01*
X143317986Y-102087086D01*
X143315843Y-102084168D01*
X143080295Y-101830688D01*
X142817174Y-101605962D01*
X142529967Y-101412967D01*
X142222482Y-101254261D01*
X141898793Y-101131950D01*
X141563190Y-101047652D01*
X141418981Y-101028667D01*
X141223728Y-101002961D01*
X141223720Y-101002960D01*
X141220124Y-101002487D01*
X141068991Y-101000112D01*
X140877780Y-100997108D01*
X140877776Y-100997108D01*
X140874139Y-100997051D01*
X140870524Y-100997412D01*
X140870520Y-100997412D01*
X140702646Y-101014169D01*
X140529823Y-101031419D01*
X140526286Y-101032190D01*
X140526281Y-101032191D01*
X140195283Y-101104360D01*
X140195278Y-101104361D01*
X140191739Y-101105133D01*
X139864367Y-101217217D01*
X139552048Y-101366186D01*
X139258921Y-101550064D01*
X139256087Y-101552334D01*
X139256082Y-101552338D01*
X139087066Y-101687746D01*
X138988871Y-101766415D01*
X138745477Y-102012371D01*
X138531966Y-102284672D01*
X138351168Y-102579709D01*
X138349641Y-102582999D01*
X138349636Y-102583008D01*
X138240435Y-102818262D01*
X138205478Y-102893570D01*
X138096828Y-103222097D01*
X138026658Y-103560935D01*
X137995898Y-103905592D01*
X138004956Y-104251501D01*
X138053712Y-104594076D01*
X138141519Y-104928777D01*
X138267214Y-105251167D01*
X138429130Y-105556974D01*
X138431180Y-105559957D01*
X138431182Y-105559960D01*
X138623065Y-105839152D01*
X138623071Y-105839159D01*
X138625122Y-105842144D01*
X138852592Y-106102898D01*
X139108524Y-106335778D01*
X139389527Y-106537699D01*
X139691876Y-106705985D01*
X139695225Y-106707372D01*
X139816465Y-106757591D01*
X139871746Y-106802139D01*
X139894167Y-106869502D01*
X139876609Y-106938294D01*
X139824647Y-106986672D01*
X139768247Y-107000000D01*
X101231470Y-107000000D01*
X101163349Y-106979998D01*
X101116856Y-106926342D01*
X101106752Y-106856068D01*
X101136246Y-106791488D01*
X101180823Y-106758628D01*
X101364507Y-106677996D01*
X101663265Y-106503416D01*
X101666174Y-106501232D01*
X101937071Y-106297837D01*
X101937075Y-106297834D01*
X101939978Y-106295654D01*
X102190977Y-106057465D01*
X102412936Y-105792005D01*
X102565361Y-105559960D01*
X102600926Y-105505818D01*
X102600931Y-105505809D01*
X102602913Y-105502792D01*
X102731169Y-105247785D01*
X102756763Y-105196898D01*
X102756766Y-105196890D01*
X102758390Y-105193662D01*
X102759635Y-105190260D01*
X102876057Y-104872122D01*
X102876060Y-104872112D01*
X102877305Y-104868710D01*
X102878150Y-104865188D01*
X102878153Y-104865180D01*
X102957237Y-104535772D01*
X102957238Y-104535768D01*
X102958084Y-104532243D01*
X102958521Y-104528633D01*
X102999318Y-104191501D01*
X102999318Y-104191495D01*
X102999654Y-104188722D01*
X103005585Y-104000000D01*
X103000351Y-103909223D01*
X102985875Y-103658167D01*
X102985874Y-103658162D01*
X102985666Y-103654547D01*
X102985043Y-103650977D01*
X102926798Y-103317245D01*
X102926796Y-103317238D01*
X102926174Y-103313672D01*
X102827897Y-102981894D01*
X102790224Y-102893570D01*
X102693562Y-102666949D01*
X102693560Y-102666946D01*
X102692138Y-102663611D01*
X102520696Y-102363041D01*
X102461030Y-102281815D01*
X102317986Y-102087086D01*
X102315843Y-102084168D01*
X102080295Y-101830688D01*
X101817174Y-101605962D01*
X101529967Y-101412967D01*
X101222482Y-101254261D01*
X100898793Y-101131950D01*
X100563190Y-101047652D01*
X100418981Y-101028667D01*
X100223728Y-101002961D01*
X100223720Y-101002960D01*
X100220124Y-101002487D01*
X100068991Y-101000112D01*
X99877780Y-100997108D01*
X99877776Y-100997108D01*
X99874139Y-100997051D01*
X99870524Y-100997412D01*
X99870520Y-100997412D01*
X99702646Y-101014169D01*
X99529823Y-101031419D01*
X99526286Y-101032190D01*
X99526281Y-101032191D01*
X99195283Y-101104360D01*
X99195278Y-101104361D01*
X99191739Y-101105133D01*
X98864367Y-101217217D01*
X98552048Y-101366186D01*
X98258921Y-101550064D01*
X98256087Y-101552334D01*
X98256082Y-101552338D01*
X98087066Y-101687746D01*
X97988871Y-101766415D01*
X97745477Y-102012371D01*
X97531966Y-102284672D01*
X97351168Y-102579709D01*
X97349641Y-102582999D01*
X97349636Y-102583008D01*
X97240287Y-102818581D01*
X97193463Y-102871948D01*
X97125220Y-102891528D01*
X97057225Y-102871104D01*
X97011065Y-102817162D01*
X97000000Y-102765530D01*
X97000000Y-99222095D01*
X120792001Y-99222095D01*
X120792338Y-99228614D01*
X120802257Y-99324206D01*
X120805149Y-99337600D01*
X120856588Y-99491784D01*
X120862761Y-99504962D01*
X120948063Y-99642807D01*
X120957099Y-99654208D01*
X121071829Y-99768739D01*
X121083240Y-99777751D01*
X121221243Y-99862816D01*
X121234424Y-99868963D01*
X121388710Y-99920138D01*
X121402086Y-99923005D01*
X121496438Y-99932672D01*
X121502854Y-99933000D01*
X121877885Y-99933000D01*
X121893124Y-99928525D01*
X121894329Y-99927135D01*
X121896000Y-99919452D01*
X121896000Y-98722115D01*
X121891525Y-98706876D01*
X121890135Y-98705671D01*
X121882452Y-98704000D01*
X120810116Y-98704000D01*
X120794877Y-98708475D01*
X120793672Y-98709865D01*
X120792001Y-98717548D01*
X120792001Y-99222095D01*
X97000000Y-99222095D01*
X97000000Y-96018580D01*
X103993752Y-96018580D01*
X104018477Y-96136421D01*
X104021537Y-96146617D01*
X104102263Y-96351029D01*
X104106994Y-96360561D01*
X104221016Y-96548462D01*
X104227280Y-96557052D01*
X104371327Y-96723052D01*
X104378958Y-96730472D01*
X104548911Y-96869826D01*
X104557678Y-96875850D01*
X104748682Y-96984576D01*
X104758346Y-96989041D01*
X104964941Y-97064031D01*
X104975208Y-97066802D01*
X105178174Y-97103504D01*
X105191414Y-97102085D01*
X105196000Y-97087450D01*
X105196000Y-97083849D01*
X105704000Y-97083849D01*
X105708310Y-97098527D01*
X105720193Y-97100590D01*
X105799325Y-97093876D01*
X105809797Y-97092086D01*
X106022535Y-97036870D01*
X106032575Y-97033335D01*
X106232970Y-96943063D01*
X106242256Y-96937894D01*
X106424575Y-96815150D01*
X106432870Y-96808481D01*
X106591900Y-96656772D01*
X106598941Y-96648814D01*
X106730141Y-96472475D01*
X106735745Y-96463438D01*
X106835357Y-96267516D01*
X106839357Y-96257665D01*
X106904534Y-96047760D01*
X106906817Y-96037376D01*
X106908861Y-96021957D01*
X106906665Y-96007793D01*
X106893478Y-96004000D01*
X105722115Y-96004000D01*
X105706876Y-96008475D01*
X105705671Y-96009865D01*
X105704000Y-96017548D01*
X105704000Y-97083849D01*
X105196000Y-97083849D01*
X105196000Y-96022115D01*
X105191525Y-96006876D01*
X105190135Y-96005671D01*
X105182452Y-96004000D01*
X104008808Y-96004000D01*
X103995277Y-96007973D01*
X103993752Y-96018580D01*
X97000000Y-96018580D01*
X97000000Y-95478043D01*
X103991139Y-95478043D01*
X103993335Y-95492207D01*
X104006522Y-95496000D01*
X106891192Y-95496000D01*
X106904723Y-95492027D01*
X106906248Y-95481420D01*
X106881523Y-95363579D01*
X106878463Y-95353383D01*
X106797737Y-95148971D01*
X106793006Y-95139439D01*
X106678984Y-94951538D01*
X106672720Y-94942948D01*
X106528673Y-94776948D01*
X106521042Y-94769528D01*
X106351089Y-94630174D01*
X106342322Y-94624150D01*
X106151318Y-94515424D01*
X106141654Y-94510959D01*
X105991447Y-94456436D01*
X105934239Y-94414391D01*
X105908843Y-94348092D01*
X105923323Y-94278588D01*
X105973081Y-94227945D01*
X105977235Y-94225940D01*
X105977251Y-94225935D01*
X106159151Y-94129218D01*
X106249098Y-94055859D01*
X106314025Y-94002906D01*
X106314028Y-94002903D01*
X106318800Y-93999011D01*
X106327452Y-93988553D01*
X106446189Y-93845025D01*
X106446191Y-93845021D01*
X106450118Y-93840275D01*
X106548103Y-93659055D01*
X106609023Y-93462254D01*
X106610107Y-93451937D01*
X106629913Y-93263498D01*
X106629913Y-93263496D01*
X106630557Y-93257369D01*
X106622101Y-93164445D01*
X106612445Y-93058342D01*
X106612444Y-93058339D01*
X106611886Y-93052203D01*
X106553720Y-92854572D01*
X106458274Y-92672002D01*
X106448404Y-92659725D01*
X106356515Y-92545438D01*
X110117000Y-92545438D01*
X110117337Y-92551953D01*
X110126894Y-92644057D01*
X110129788Y-92657456D01*
X110179381Y-92806107D01*
X110185555Y-92819286D01*
X110267788Y-92952173D01*
X110276824Y-92963574D01*
X110387429Y-93073986D01*
X110398840Y-93082998D01*
X110531880Y-93165004D01*
X110545061Y-93171151D01*
X110693814Y-93220491D01*
X110707190Y-93223358D01*
X110798097Y-93232672D01*
X110804513Y-93233000D01*
X110827885Y-93233000D01*
X110843124Y-93228525D01*
X110844329Y-93227135D01*
X110846000Y-93219452D01*
X110846000Y-93214885D01*
X111354000Y-93214885D01*
X111358475Y-93230124D01*
X111359865Y-93231329D01*
X111367548Y-93233000D01*
X111395438Y-93233000D01*
X111401953Y-93232663D01*
X111494057Y-93223106D01*
X111507456Y-93220212D01*
X111656107Y-93170619D01*
X111669286Y-93164445D01*
X111802173Y-93082212D01*
X111813574Y-93073176D01*
X111923986Y-92962571D01*
X111932998Y-92951160D01*
X112015004Y-92818120D01*
X112021151Y-92804939D01*
X112070491Y-92656186D01*
X112073358Y-92642810D01*
X112082672Y-92551903D01*
X112082929Y-92546874D01*
X112078525Y-92531876D01*
X112077135Y-92530671D01*
X112069452Y-92529000D01*
X111372115Y-92529000D01*
X111356876Y-92533475D01*
X111355671Y-92534865D01*
X111354000Y-92542548D01*
X111354000Y-93214885D01*
X110846000Y-93214885D01*
X110846000Y-92547115D01*
X110841525Y-92531876D01*
X110840135Y-92530671D01*
X110832452Y-92529000D01*
X110135115Y-92529000D01*
X110119876Y-92533475D01*
X110118671Y-92534865D01*
X110117000Y-92542548D01*
X110117000Y-92545438D01*
X106356515Y-92545438D01*
X106333050Y-92516254D01*
X106333050Y-92516253D01*
X106329185Y-92511447D01*
X106171370Y-92379024D01*
X106165972Y-92376056D01*
X106165967Y-92376053D01*
X105996235Y-92282743D01*
X105990838Y-92279776D01*
X105794468Y-92217484D01*
X105788351Y-92216798D01*
X105788347Y-92216797D01*
X105711592Y-92208188D01*
X105634136Y-92199500D01*
X105273159Y-92199500D01*
X105119970Y-92214520D01*
X104922749Y-92274065D01*
X104740849Y-92370782D01*
X104650902Y-92444141D01*
X104585975Y-92497094D01*
X104585972Y-92497097D01*
X104581200Y-92500989D01*
X104577273Y-92505736D01*
X104577271Y-92505738D01*
X104453811Y-92654975D01*
X104453809Y-92654979D01*
X104449882Y-92659725D01*
X104351897Y-92840945D01*
X104290977Y-93037746D01*
X104290333Y-93043871D01*
X104290333Y-93043872D01*
X104270491Y-93232663D01*
X104269443Y-93242631D01*
X104288114Y-93447797D01*
X104346280Y-93645428D01*
X104441726Y-93827998D01*
X104445586Y-93832799D01*
X104445588Y-93832802D01*
X104455416Y-93845025D01*
X104570815Y-93988553D01*
X104728630Y-94120976D01*
X104734028Y-94123944D01*
X104734033Y-94123947D01*
X104860458Y-94193449D01*
X104909162Y-94220224D01*
X104912978Y-94221434D01*
X104967134Y-94266176D01*
X104988732Y-94333807D01*
X104970337Y-94402380D01*
X104917790Y-94450121D01*
X104894421Y-94458729D01*
X104877465Y-94463130D01*
X104867425Y-94466665D01*
X104667030Y-94556937D01*
X104657744Y-94562106D01*
X104475425Y-94684850D01*
X104467130Y-94691519D01*
X104308100Y-94843228D01*
X104301059Y-94851186D01*
X104169859Y-95027525D01*
X104164255Y-95036562D01*
X104064643Y-95232484D01*
X104060643Y-95242335D01*
X103995466Y-95452240D01*
X103993183Y-95462624D01*
X103991139Y-95478043D01*
X97000000Y-95478043D01*
X97000000Y-90742631D01*
X104269443Y-90742631D01*
X104274709Y-90800500D01*
X104285601Y-90920180D01*
X104288114Y-90947797D01*
X104346280Y-91145428D01*
X104349137Y-91150893D01*
X104364544Y-91180364D01*
X104441726Y-91327998D01*
X104445586Y-91332799D01*
X104445588Y-91332802D01*
X104560733Y-91476014D01*
X104570815Y-91488553D01*
X104728630Y-91620976D01*
X104734028Y-91623944D01*
X104734033Y-91623947D01*
X104902752Y-91716700D01*
X104909162Y-91720224D01*
X105105532Y-91782516D01*
X105111649Y-91783202D01*
X105111653Y-91783203D01*
X105187874Y-91791752D01*
X105265864Y-91800500D01*
X105626841Y-91800500D01*
X105780030Y-91785480D01*
X105977251Y-91725935D01*
X106159151Y-91629218D01*
X106249098Y-91555859D01*
X106314025Y-91502906D01*
X106314028Y-91502903D01*
X106318800Y-91499011D01*
X106327452Y-91488553D01*
X106446189Y-91345025D01*
X106446191Y-91345021D01*
X106450118Y-91340275D01*
X106548103Y-91159055D01*
X106609023Y-90962254D01*
X106609667Y-90956128D01*
X106629913Y-90763498D01*
X106629913Y-90763496D01*
X106630557Y-90757369D01*
X106621085Y-90653283D01*
X106612445Y-90558342D01*
X106612444Y-90558339D01*
X106611886Y-90552203D01*
X106553720Y-90354572D01*
X106458274Y-90172002D01*
X106452222Y-90164474D01*
X106333050Y-90016254D01*
X106333050Y-90016253D01*
X106329185Y-90011447D01*
X106171370Y-89879024D01*
X106165972Y-89876056D01*
X106165967Y-89876053D01*
X105996235Y-89782743D01*
X105990838Y-89779776D01*
X105794468Y-89717484D01*
X105788351Y-89716798D01*
X105788347Y-89716797D01*
X105712126Y-89708248D01*
X105634136Y-89699500D01*
X105273159Y-89699500D01*
X105119970Y-89714520D01*
X104922749Y-89774065D01*
X104740849Y-89870782D01*
X104659637Y-89937017D01*
X104585975Y-89997094D01*
X104585972Y-89997097D01*
X104581200Y-90000989D01*
X104577273Y-90005736D01*
X104577271Y-90005738D01*
X104453811Y-90154975D01*
X104453809Y-90154979D01*
X104449882Y-90159725D01*
X104351897Y-90340945D01*
X104290977Y-90537746D01*
X104290333Y-90543871D01*
X104290333Y-90543872D01*
X104272285Y-90715595D01*
X104269443Y-90742631D01*
X97000000Y-90742631D01*
X97000000Y-88903834D01*
X104274500Y-88903834D01*
X104277481Y-88935369D01*
X104322366Y-89063184D01*
X104327958Y-89070754D01*
X104327959Y-89070757D01*
X104383564Y-89146039D01*
X104402850Y-89172150D01*
X104410421Y-89177742D01*
X104504243Y-89247041D01*
X104504246Y-89247042D01*
X104511816Y-89252634D01*
X104639631Y-89297519D01*
X104647277Y-89298242D01*
X104647278Y-89298242D01*
X104653248Y-89298806D01*
X104671166Y-89300500D01*
X106228834Y-89300500D01*
X106246752Y-89298806D01*
X106252722Y-89298242D01*
X106252723Y-89298242D01*
X106260369Y-89297519D01*
X106388184Y-89252634D01*
X106395754Y-89247042D01*
X106395757Y-89247041D01*
X106489579Y-89177742D01*
X106497150Y-89172150D01*
X106516436Y-89146039D01*
X106572041Y-89070757D01*
X106572042Y-89070754D01*
X106577634Y-89063184D01*
X106622519Y-88935369D01*
X106625500Y-88903834D01*
X106625500Y-88826500D01*
X106645502Y-88758379D01*
X106699158Y-88711886D01*
X106751500Y-88700500D01*
X108386207Y-88700500D01*
X108454328Y-88720502D01*
X108475302Y-88737405D01*
X110387595Y-90649698D01*
X110421621Y-90712010D01*
X110424500Y-90738793D01*
X110424500Y-90983488D01*
X110430641Y-91022258D01*
X110434816Y-91048618D01*
X110440281Y-91083126D01*
X110501472Y-91203220D01*
X110512774Y-91214522D01*
X110546800Y-91276834D01*
X110541735Y-91347649D01*
X110499188Y-91404485D01*
X110489982Y-91410762D01*
X110397821Y-91467793D01*
X110386426Y-91476824D01*
X110276014Y-91587429D01*
X110267002Y-91598840D01*
X110184996Y-91731880D01*
X110178849Y-91745061D01*
X110129509Y-91893814D01*
X110126642Y-91907190D01*
X110117328Y-91998097D01*
X110117071Y-92003126D01*
X110121475Y-92018124D01*
X110122865Y-92019329D01*
X110130548Y-92021000D01*
X112064885Y-92021000D01*
X112080124Y-92016525D01*
X112081329Y-92015135D01*
X112083000Y-92007452D01*
X112083000Y-92004562D01*
X112082663Y-91998047D01*
X112073106Y-91905943D01*
X112070212Y-91892544D01*
X112020619Y-91743893D01*
X112014445Y-91730714D01*
X111932212Y-91597827D01*
X111923176Y-91586426D01*
X111812571Y-91476014D01*
X111801160Y-91467002D01*
X111710168Y-91410914D01*
X111662675Y-91358142D01*
X111651251Y-91288070D01*
X111679525Y-91222946D01*
X111687189Y-91214559D01*
X111689343Y-91212405D01*
X111751655Y-91178379D01*
X111778438Y-91175500D01*
X112540780Y-91175500D01*
X112555589Y-91176373D01*
X112589310Y-91180364D01*
X112598574Y-91178672D01*
X112598575Y-91178672D01*
X112647001Y-91169828D01*
X112650904Y-91169178D01*
X112699645Y-91161850D01*
X112699646Y-91161850D01*
X112708962Y-91160449D01*
X112715475Y-91157321D01*
X112722573Y-91156025D01*
X112774647Y-91128975D01*
X112778137Y-91127232D01*
X112831079Y-91101809D01*
X112836365Y-91096923D01*
X112836413Y-91096890D01*
X112842788Y-91093579D01*
X112847828Y-91089275D01*
X112885055Y-91052048D01*
X112888621Y-91048618D01*
X112923641Y-91016246D01*
X112930556Y-91009854D01*
X112934249Y-91003495D01*
X112939766Y-90997337D01*
X113594350Y-90342753D01*
X113605439Y-90332899D01*
X113624710Y-90317706D01*
X113624711Y-90317705D01*
X113632110Y-90311872D01*
X113637465Y-90304124D01*
X113637467Y-90304122D01*
X113665474Y-90263600D01*
X113667774Y-90260381D01*
X113697038Y-90220760D01*
X113697039Y-90220759D01*
X113702634Y-90213183D01*
X113705027Y-90206369D01*
X113709131Y-90200431D01*
X113726817Y-90144509D01*
X113728070Y-90140753D01*
X113735960Y-90118285D01*
X113747520Y-90085369D01*
X113747803Y-90078182D01*
X113747816Y-90078113D01*
X113749980Y-90071270D01*
X113750500Y-90064663D01*
X113750500Y-90064338D01*
X113751917Y-90057064D01*
X113753845Y-90057440D01*
X113775624Y-90000282D01*
X113832759Y-89958137D01*
X113875958Y-89950500D01*
X114069748Y-89950500D01*
X114075816Y-89949293D01*
X114116061Y-89941288D01*
X114116062Y-89941288D01*
X114128231Y-89938867D01*
X114194552Y-89894552D01*
X114238867Y-89828231D01*
X114250500Y-89769748D01*
X114250500Y-87730252D01*
X114244582Y-87700500D01*
X114241288Y-87683939D01*
X114241288Y-87683938D01*
X114238867Y-87671769D01*
X114194552Y-87605448D01*
X114128231Y-87561133D01*
X114116062Y-87558712D01*
X114116061Y-87558712D01*
X114075816Y-87550707D01*
X114069748Y-87549500D01*
X112530252Y-87549500D01*
X112524184Y-87550707D01*
X112483939Y-87558712D01*
X112483938Y-87558712D01*
X112471769Y-87561133D01*
X112405448Y-87605448D01*
X112361133Y-87671769D01*
X112358712Y-87683938D01*
X112358712Y-87683939D01*
X112355418Y-87700500D01*
X112349500Y-87730252D01*
X112349500Y-89769748D01*
X112361133Y-89828231D01*
X112405448Y-89894552D01*
X112471769Y-89938867D01*
X112479965Y-89940497D01*
X112533060Y-89983283D01*
X112555482Y-90050646D01*
X112537925Y-90119437D01*
X112518657Y-90144240D01*
X112425302Y-90237595D01*
X112362990Y-90271621D01*
X112336207Y-90274500D01*
X111778438Y-90274500D01*
X111710317Y-90254498D01*
X111689343Y-90237595D01*
X111603220Y-90151472D01*
X111483126Y-90090281D01*
X111473337Y-90088731D01*
X111473335Y-90088730D01*
X111443851Y-90084060D01*
X111383488Y-90074500D01*
X111138794Y-90074500D01*
X111070673Y-90054498D01*
X111049699Y-90037595D01*
X108967750Y-87955646D01*
X108957897Y-87944559D01*
X108942704Y-87925287D01*
X108942702Y-87925285D01*
X108936872Y-87917890D01*
X108929125Y-87912535D01*
X108929123Y-87912534D01*
X108888625Y-87884545D01*
X108885403Y-87882243D01*
X108845758Y-87852960D01*
X108845757Y-87852959D01*
X108838184Y-87847366D01*
X108831368Y-87844973D01*
X108825431Y-87840869D01*
X108816451Y-87838029D01*
X108816449Y-87838028D01*
X108796283Y-87831650D01*
X108769481Y-87823174D01*
X108765750Y-87821929D01*
X108719263Y-87805604D01*
X108719261Y-87805604D01*
X108710369Y-87802481D01*
X108703181Y-87802199D01*
X108703122Y-87802188D01*
X108696270Y-87800020D01*
X108689663Y-87799500D01*
X108636984Y-87799500D01*
X108632037Y-87799403D01*
X108575006Y-87797162D01*
X108567900Y-87799046D01*
X108559653Y-87799500D01*
X106751500Y-87799500D01*
X106683379Y-87779498D01*
X106636886Y-87725842D01*
X106625500Y-87673500D01*
X106625500Y-87596166D01*
X106623758Y-87577742D01*
X106623242Y-87572278D01*
X106623242Y-87572277D01*
X106622519Y-87564631D01*
X106577634Y-87436816D01*
X106572042Y-87429246D01*
X106572041Y-87429243D01*
X106505544Y-87339214D01*
X106497150Y-87327850D01*
X106468626Y-87306782D01*
X106395757Y-87252959D01*
X106395754Y-87252958D01*
X106388184Y-87247366D01*
X106260369Y-87202481D01*
X106252723Y-87201758D01*
X106252722Y-87201758D01*
X106246752Y-87201194D01*
X106228834Y-87199500D01*
X104671166Y-87199500D01*
X104653248Y-87201194D01*
X104647278Y-87201758D01*
X104647277Y-87201758D01*
X104639631Y-87202481D01*
X104511816Y-87247366D01*
X104504246Y-87252958D01*
X104504243Y-87252959D01*
X104431374Y-87306782D01*
X104402850Y-87327850D01*
X104394456Y-87339214D01*
X104327959Y-87429243D01*
X104327958Y-87429246D01*
X104322366Y-87436816D01*
X104277481Y-87564631D01*
X104276758Y-87572277D01*
X104276758Y-87572278D01*
X104276242Y-87577742D01*
X104274500Y-87596166D01*
X104274500Y-88903834D01*
X97000000Y-88903834D01*
X97000000Y-82675262D01*
X105244520Y-82675262D01*
X105245036Y-82681406D01*
X105258626Y-82843238D01*
X105261759Y-82880553D01*
X105318544Y-83078586D01*
X105321359Y-83084063D01*
X105321360Y-83084066D01*
X105409897Y-83256341D01*
X105412712Y-83261818D01*
X105540677Y-83423270D01*
X105545370Y-83427264D01*
X105545371Y-83427265D01*
X105687134Y-83547914D01*
X105697564Y-83556791D01*
X105702942Y-83559797D01*
X105702944Y-83559798D01*
X105753735Y-83588184D01*
X105877398Y-83657297D01*
X105949019Y-83680568D01*
X106067471Y-83719056D01*
X106067475Y-83719057D01*
X106073329Y-83720959D01*
X106277894Y-83745351D01*
X106284029Y-83744879D01*
X106284031Y-83744879D01*
X106340039Y-83740569D01*
X106483300Y-83729546D01*
X106489230Y-83727890D01*
X106489232Y-83727890D01*
X106675797Y-83675800D01*
X106675796Y-83675800D01*
X106681725Y-83674145D01*
X106687214Y-83671372D01*
X106687220Y-83671370D01*
X106845429Y-83591452D01*
X106865610Y-83581258D01*
X107027951Y-83454424D01*
X107046181Y-83433305D01*
X107158540Y-83303134D01*
X107158540Y-83303133D01*
X107162564Y-83298472D01*
X107183387Y-83261818D01*
X107231704Y-83176764D01*
X107264323Y-83119344D01*
X107329351Y-82923863D01*
X107355171Y-82719474D01*
X107355583Y-82690000D01*
X107335480Y-82484970D01*
X107275935Y-82287749D01*
X107179218Y-82105849D01*
X107093297Y-82000500D01*
X107052906Y-81950975D01*
X107052903Y-81950972D01*
X107049011Y-81946200D01*
X107031786Y-81931950D01*
X106895025Y-81818811D01*
X106895021Y-81818809D01*
X106890275Y-81814882D01*
X106709055Y-81716897D01*
X106512254Y-81655977D01*
X106506129Y-81655333D01*
X106506128Y-81655333D01*
X106313498Y-81635087D01*
X106313496Y-81635087D01*
X106307369Y-81634443D01*
X106220529Y-81642346D01*
X106108342Y-81652555D01*
X106108339Y-81652556D01*
X106102203Y-81653114D01*
X105904572Y-81711280D01*
X105722002Y-81806726D01*
X105717201Y-81810586D01*
X105717198Y-81810588D01*
X105706971Y-81818811D01*
X105561447Y-81935815D01*
X105429024Y-82093630D01*
X105426056Y-82099028D01*
X105426053Y-82099033D01*
X105346147Y-82244383D01*
X105329776Y-82274162D01*
X105267484Y-82470532D01*
X105266798Y-82476649D01*
X105266797Y-82476653D01*
X105247662Y-82647249D01*
X105244520Y-82675262D01*
X97000000Y-82675262D01*
X97000000Y-80135262D01*
X105244520Y-80135262D01*
X105245036Y-80141406D01*
X105261157Y-80333379D01*
X105261759Y-80340553D01*
X105263458Y-80346478D01*
X105300219Y-80474678D01*
X105318544Y-80538586D01*
X105321359Y-80544063D01*
X105321360Y-80544066D01*
X105359997Y-80619246D01*
X105412712Y-80721818D01*
X105540677Y-80883270D01*
X105545370Y-80887264D01*
X105545371Y-80887265D01*
X105680622Y-81002372D01*
X105697564Y-81016791D01*
X105702942Y-81019797D01*
X105702944Y-81019798D01*
X105734563Y-81037469D01*
X105877398Y-81117297D01*
X105972238Y-81148113D01*
X106067471Y-81179056D01*
X106067475Y-81179057D01*
X106073329Y-81180959D01*
X106277894Y-81205351D01*
X106284029Y-81204879D01*
X106284031Y-81204879D01*
X106340039Y-81200569D01*
X106483300Y-81189546D01*
X106489230Y-81187890D01*
X106489232Y-81187890D01*
X106675797Y-81135800D01*
X106675796Y-81135800D01*
X106681725Y-81134145D01*
X106687214Y-81131372D01*
X106687220Y-81131370D01*
X106860116Y-81044033D01*
X106865610Y-81041258D01*
X106887060Y-81024500D01*
X106955324Y-80971166D01*
X107027951Y-80914424D01*
X107162564Y-80758472D01*
X107183387Y-80721818D01*
X107246086Y-80611447D01*
X107264323Y-80579344D01*
X107329351Y-80383863D01*
X107355171Y-80179474D01*
X107355583Y-80150000D01*
X107335480Y-79944970D01*
X107275935Y-79747749D01*
X107179218Y-79565849D01*
X107094428Y-79461886D01*
X107052906Y-79410975D01*
X107052903Y-79410972D01*
X107049011Y-79406200D01*
X107044262Y-79402271D01*
X106895025Y-79278811D01*
X106895021Y-79278809D01*
X106890275Y-79274882D01*
X106709055Y-79176897D01*
X106512254Y-79115977D01*
X106506129Y-79115333D01*
X106506128Y-79115333D01*
X106313498Y-79095087D01*
X106313496Y-79095087D01*
X106307369Y-79094443D01*
X106220529Y-79102346D01*
X106108342Y-79112555D01*
X106108339Y-79112556D01*
X106102203Y-79113114D01*
X105904572Y-79171280D01*
X105722002Y-79266726D01*
X105717201Y-79270586D01*
X105717198Y-79270588D01*
X105614411Y-79353231D01*
X105561447Y-79395815D01*
X105429024Y-79553630D01*
X105426056Y-79559028D01*
X105426053Y-79559033D01*
X105339269Y-79716895D01*
X105329776Y-79734162D01*
X105267484Y-79930532D01*
X105266798Y-79936649D01*
X105266797Y-79936653D01*
X105249758Y-80088561D01*
X105244520Y-80135262D01*
X97000000Y-80135262D01*
X97000000Y-77595262D01*
X105244520Y-77595262D01*
X105245463Y-77606494D01*
X105261239Y-77794355D01*
X105261759Y-77800553D01*
X105263458Y-77806478D01*
X105314166Y-77983317D01*
X105318544Y-77998586D01*
X105321359Y-78004063D01*
X105321360Y-78004066D01*
X105390735Y-78139055D01*
X105412712Y-78181818D01*
X105540677Y-78343270D01*
X105697564Y-78476791D01*
X105702942Y-78479797D01*
X105702944Y-78479798D01*
X105784718Y-78525500D01*
X105877398Y-78577297D01*
X105972238Y-78608113D01*
X106067471Y-78639056D01*
X106067475Y-78639057D01*
X106073329Y-78640959D01*
X106277894Y-78665351D01*
X106284029Y-78664879D01*
X106284031Y-78664879D01*
X106340039Y-78660569D01*
X106483300Y-78649546D01*
X106489230Y-78647890D01*
X106489232Y-78647890D01*
X106675797Y-78595800D01*
X106675796Y-78595800D01*
X106681725Y-78594145D01*
X106687214Y-78591372D01*
X106687220Y-78591370D01*
X106819952Y-78524322D01*
X106865610Y-78501258D01*
X106873943Y-78494748D01*
X107023101Y-78378213D01*
X107027951Y-78374424D01*
X107036612Y-78364391D01*
X107158540Y-78223134D01*
X107158540Y-78223133D01*
X107162564Y-78218472D01*
X107183387Y-78181818D01*
X107207679Y-78139055D01*
X107264323Y-78039344D01*
X107329351Y-77843863D01*
X107355171Y-77639474D01*
X107355583Y-77610000D01*
X107335480Y-77404970D01*
X107275935Y-77207749D01*
X107179218Y-77025849D01*
X107105859Y-76935902D01*
X107052906Y-76870975D01*
X107052903Y-76870972D01*
X107049011Y-76866200D01*
X107042173Y-76860543D01*
X106895025Y-76738811D01*
X106895021Y-76738809D01*
X106890275Y-76734882D01*
X106709055Y-76636897D01*
X106512254Y-76575977D01*
X106506129Y-76575333D01*
X106506128Y-76575333D01*
X106313498Y-76555087D01*
X106313496Y-76555087D01*
X106307369Y-76554443D01*
X106220529Y-76562346D01*
X106108342Y-76572555D01*
X106108339Y-76572556D01*
X106102203Y-76573114D01*
X105904572Y-76631280D01*
X105722002Y-76726726D01*
X105717201Y-76730586D01*
X105717198Y-76730588D01*
X105621325Y-76807672D01*
X105561447Y-76855815D01*
X105429024Y-77013630D01*
X105426056Y-77019028D01*
X105426053Y-77019033D01*
X105358713Y-77141525D01*
X105329776Y-77194162D01*
X105267484Y-77390532D01*
X105266798Y-77396649D01*
X105266797Y-77396653D01*
X105245207Y-77589137D01*
X105244520Y-77595262D01*
X97000000Y-77595262D01*
X97000000Y-72797966D01*
X104968257Y-72797966D01*
X104998565Y-72932446D01*
X105001645Y-72942275D01*
X105081770Y-73139603D01*
X105086413Y-73148794D01*
X105197694Y-73330388D01*
X105203777Y-73338699D01*
X105343213Y-73499667D01*
X105350580Y-73506883D01*
X105514434Y-73642916D01*
X105522881Y-73648831D01*
X105706756Y-73756279D01*
X105716042Y-73760729D01*
X105915001Y-73836703D01*
X105929866Y-73841022D01*
X105929289Y-73843008D01*
X105984260Y-73872082D01*
X106019110Y-73933936D01*
X106014988Y-74004813D01*
X105973201Y-74062209D01*
X105931930Y-74083228D01*
X105910489Y-74089538D01*
X105910484Y-74089540D01*
X105904572Y-74091280D01*
X105899107Y-74094137D01*
X105878043Y-74105149D01*
X105722002Y-74186726D01*
X105717201Y-74190586D01*
X105717198Y-74190588D01*
X105634475Y-74257099D01*
X105561447Y-74315815D01*
X105429024Y-74473630D01*
X105426056Y-74479028D01*
X105426053Y-74479033D01*
X105359552Y-74600000D01*
X105329776Y-74654162D01*
X105267484Y-74850532D01*
X105266798Y-74856649D01*
X105266797Y-74856653D01*
X105248327Y-75021321D01*
X105244520Y-75055262D01*
X105245036Y-75061406D01*
X105257840Y-75213878D01*
X105261759Y-75260553D01*
X105263458Y-75266478D01*
X105315572Y-75448220D01*
X105318544Y-75458586D01*
X105321359Y-75464063D01*
X105321360Y-75464066D01*
X105362972Y-75545034D01*
X105412712Y-75641818D01*
X105540677Y-75803270D01*
X105697564Y-75936791D01*
X105702942Y-75939797D01*
X105702944Y-75939798D01*
X105755689Y-75969276D01*
X105877398Y-76037297D01*
X105942577Y-76058475D01*
X106067471Y-76099056D01*
X106067475Y-76099057D01*
X106073329Y-76100959D01*
X106277894Y-76125351D01*
X106284029Y-76124879D01*
X106284031Y-76124879D01*
X106340039Y-76120569D01*
X106483300Y-76109546D01*
X106489230Y-76107890D01*
X106489232Y-76107890D01*
X106595423Y-76078241D01*
X106666414Y-76079188D01*
X106718402Y-76110505D01*
X111012595Y-80404698D01*
X111046621Y-80467010D01*
X111049500Y-80493793D01*
X111049500Y-84065780D01*
X111048627Y-84080589D01*
X111044636Y-84114310D01*
X111046328Y-84123574D01*
X111046328Y-84123575D01*
X111055172Y-84172001D01*
X111055822Y-84175904D01*
X111061099Y-84210999D01*
X111064551Y-84233962D01*
X111067679Y-84240475D01*
X111068975Y-84247573D01*
X111096025Y-84299647D01*
X111097768Y-84303137D01*
X111123191Y-84356079D01*
X111128077Y-84361365D01*
X111128110Y-84361413D01*
X111131421Y-84367788D01*
X111135725Y-84372828D01*
X111172952Y-84410055D01*
X111176381Y-84413620D01*
X111215146Y-84455556D01*
X111221505Y-84459249D01*
X111227663Y-84464766D01*
X111837595Y-85074698D01*
X111871621Y-85137010D01*
X111874500Y-85163793D01*
X111874500Y-85353834D01*
X111877481Y-85385369D01*
X111922366Y-85513184D01*
X111927958Y-85520754D01*
X111927959Y-85520757D01*
X111971636Y-85579890D01*
X112002850Y-85622150D01*
X112010421Y-85627742D01*
X112104243Y-85697041D01*
X112104246Y-85697042D01*
X112111816Y-85702634D01*
X112239631Y-85747519D01*
X112247277Y-85748242D01*
X112247278Y-85748242D01*
X112253248Y-85748806D01*
X112271166Y-85750500D01*
X112811207Y-85750500D01*
X112879328Y-85770502D01*
X112900302Y-85787405D01*
X114639636Y-87526739D01*
X114673662Y-87589051D01*
X114667052Y-87662911D01*
X114661133Y-87671769D01*
X114658712Y-87683938D01*
X114658712Y-87683939D01*
X114655418Y-87700500D01*
X114649500Y-87730252D01*
X114649500Y-89769748D01*
X114661133Y-89828231D01*
X114705448Y-89894552D01*
X114771769Y-89938867D01*
X114783938Y-89941288D01*
X114783939Y-89941288D01*
X114824184Y-89949293D01*
X114830252Y-89950500D01*
X116369748Y-89950500D01*
X116375816Y-89949293D01*
X116416061Y-89941288D01*
X116416062Y-89941288D01*
X116428231Y-89938867D01*
X116494552Y-89894552D01*
X116496832Y-89897964D01*
X116539067Y-89874901D01*
X116609882Y-89879966D01*
X116666718Y-89922513D01*
X116683832Y-89953793D01*
X116696675Y-89988052D01*
X116705214Y-90003649D01*
X116781715Y-90105724D01*
X116794276Y-90118285D01*
X116896351Y-90194786D01*
X116911946Y-90203324D01*
X117032394Y-90248478D01*
X117047649Y-90252105D01*
X117098514Y-90257631D01*
X117105328Y-90258000D01*
X117627885Y-90258000D01*
X117643124Y-90253525D01*
X117644329Y-90252135D01*
X117646000Y-90244452D01*
X117646000Y-87260116D01*
X117641525Y-87244877D01*
X117640135Y-87243672D01*
X117632452Y-87242001D01*
X117105331Y-87242001D01*
X117098510Y-87242371D01*
X117047648Y-87247895D01*
X117032396Y-87251521D01*
X116911946Y-87296676D01*
X116896351Y-87305214D01*
X116794276Y-87381715D01*
X116781715Y-87394276D01*
X116705214Y-87496351D01*
X116696675Y-87511948D01*
X116683832Y-87546207D01*
X116641191Y-87602972D01*
X116574630Y-87627672D01*
X116505281Y-87612465D01*
X116495010Y-87604763D01*
X116494552Y-87605448D01*
X116438547Y-87568026D01*
X116428231Y-87561133D01*
X116416062Y-87558712D01*
X116416061Y-87558712D01*
X116375816Y-87550707D01*
X116369748Y-87549500D01*
X115990861Y-87549500D01*
X115922740Y-87529498D01*
X115898336Y-87509028D01*
X115891249Y-87501362D01*
X115884854Y-87494444D01*
X115878495Y-87490751D01*
X115872337Y-87485234D01*
X113762405Y-85375302D01*
X113728379Y-85312990D01*
X113725500Y-85286207D01*
X113725500Y-84746166D01*
X113722519Y-84714631D01*
X113677634Y-84586816D01*
X113672042Y-84579246D01*
X113672041Y-84579243D01*
X113602742Y-84485421D01*
X113597150Y-84477850D01*
X113566927Y-84455527D01*
X113495757Y-84402959D01*
X113495754Y-84402958D01*
X113488184Y-84397366D01*
X113442027Y-84381157D01*
X113384381Y-84339714D01*
X113358293Y-84273684D01*
X113372044Y-84204032D01*
X113421269Y-84152871D01*
X113443899Y-84142750D01*
X113591784Y-84093412D01*
X113604962Y-84087239D01*
X113742807Y-84001937D01*
X113754208Y-83992901D01*
X113868739Y-83878171D01*
X113877751Y-83866760D01*
X113962816Y-83728757D01*
X113968963Y-83715576D01*
X114020138Y-83561290D01*
X114023005Y-83547914D01*
X114032672Y-83453562D01*
X114033000Y-83447146D01*
X114033000Y-83422115D01*
X114028525Y-83406876D01*
X114027135Y-83405671D01*
X114019452Y-83404000D01*
X112672000Y-83404000D01*
X112603879Y-83383998D01*
X112557386Y-83330342D01*
X112546000Y-83278000D01*
X112546000Y-82877885D01*
X113054000Y-82877885D01*
X113058475Y-82893124D01*
X113059865Y-82894329D01*
X113067548Y-82896000D01*
X114014884Y-82896000D01*
X114030123Y-82891525D01*
X114031328Y-82890135D01*
X114032999Y-82882452D01*
X114032999Y-82852905D01*
X114032662Y-82846386D01*
X114022743Y-82750794D01*
X114019851Y-82737400D01*
X113968412Y-82583216D01*
X113962239Y-82570038D01*
X113876937Y-82432193D01*
X113867901Y-82420792D01*
X113753171Y-82306261D01*
X113741760Y-82297249D01*
X113603757Y-82212184D01*
X113590576Y-82206037D01*
X113436290Y-82154862D01*
X113422914Y-82151995D01*
X113328562Y-82142328D01*
X113322145Y-82142000D01*
X113072115Y-82142000D01*
X113056876Y-82146475D01*
X113055671Y-82147865D01*
X113054000Y-82155548D01*
X113054000Y-82877885D01*
X112546000Y-82877885D01*
X112546000Y-82160116D01*
X112541525Y-82144877D01*
X112540135Y-82143672D01*
X112532452Y-82142001D01*
X112277905Y-82142001D01*
X112271386Y-82142338D01*
X112175794Y-82152257D01*
X112162396Y-82155150D01*
X112116375Y-82170503D01*
X112045425Y-82173087D01*
X111984342Y-82136902D01*
X111952518Y-82073438D01*
X111950500Y-82050979D01*
X111950500Y-80438793D01*
X111970502Y-80370672D01*
X111987405Y-80349698D01*
X113674698Y-78662405D01*
X113737010Y-78628379D01*
X113763793Y-78625500D01*
X114021562Y-78625500D01*
X114089683Y-78645502D01*
X114110657Y-78662405D01*
X114196780Y-78748528D01*
X114316874Y-78809719D01*
X114326663Y-78811269D01*
X114326665Y-78811270D01*
X114356149Y-78815940D01*
X114416512Y-78825500D01*
X114983488Y-78825500D01*
X115043851Y-78815940D01*
X115073335Y-78811270D01*
X115073337Y-78811269D01*
X115083126Y-78809719D01*
X115203220Y-78748528D01*
X115289343Y-78662405D01*
X115351655Y-78628379D01*
X115378438Y-78625500D01*
X116034984Y-78625500D01*
X116103105Y-78645502D01*
X116149598Y-78699158D01*
X116159702Y-78769432D01*
X116130208Y-78834012D01*
X116124079Y-78840595D01*
X115433785Y-79530889D01*
X115425681Y-79538316D01*
X115396806Y-79562545D01*
X115391293Y-79572094D01*
X115377961Y-79595185D01*
X115372055Y-79604456D01*
X115350446Y-79635316D01*
X115347592Y-79645966D01*
X115346115Y-79649134D01*
X115344923Y-79652410D01*
X115339412Y-79661955D01*
X115333462Y-79695699D01*
X115332870Y-79699058D01*
X115330492Y-79709785D01*
X115320736Y-79746193D01*
X115321697Y-79757178D01*
X115321697Y-79757180D01*
X115324020Y-79783728D01*
X115324500Y-79794710D01*
X115324500Y-83145762D01*
X115315720Y-83189905D01*
X115311133Y-83196769D01*
X115299500Y-83255252D01*
X115299500Y-84894748D01*
X115300707Y-84900816D01*
X115306355Y-84929208D01*
X115311133Y-84953231D01*
X115355448Y-85019552D01*
X115421769Y-85063867D01*
X115433938Y-85066288D01*
X115433939Y-85066288D01*
X115461746Y-85071819D01*
X115480252Y-85075500D01*
X115819748Y-85075500D01*
X115870066Y-85065491D01*
X115940778Y-85071819D01*
X115996845Y-85115373D01*
X116005168Y-85128565D01*
X116005213Y-85128647D01*
X116081715Y-85230724D01*
X116094276Y-85243285D01*
X116196351Y-85319786D01*
X116211946Y-85328324D01*
X116332394Y-85373478D01*
X116347649Y-85377105D01*
X116398514Y-85382631D01*
X116405328Y-85383000D01*
X116431885Y-85383000D01*
X116447124Y-85378525D01*
X116448329Y-85377135D01*
X116450000Y-85369452D01*
X116450000Y-84051000D01*
X116470002Y-83982879D01*
X116523658Y-83936386D01*
X116576000Y-83925000D01*
X116624000Y-83925000D01*
X116692121Y-83945002D01*
X116738614Y-83998658D01*
X116750000Y-84051000D01*
X116750000Y-85364884D01*
X116754475Y-85380123D01*
X116755865Y-85381328D01*
X116763548Y-85382999D01*
X116794669Y-85382999D01*
X116801490Y-85382629D01*
X116852352Y-85377105D01*
X116867604Y-85373479D01*
X116988054Y-85328324D01*
X117003649Y-85319786D01*
X117105724Y-85243285D01*
X117118285Y-85230724D01*
X117194787Y-85128647D01*
X117194832Y-85128565D01*
X117194898Y-85128499D01*
X117200172Y-85121462D01*
X117201188Y-85122223D01*
X117245088Y-85078417D01*
X117314478Y-85063401D01*
X117329928Y-85065490D01*
X117380252Y-85075500D01*
X117719748Y-85075500D01*
X117738254Y-85071819D01*
X117766061Y-85066288D01*
X117766062Y-85066288D01*
X117778231Y-85063867D01*
X117844552Y-85019552D01*
X117888867Y-84953231D01*
X117893646Y-84929208D01*
X117899293Y-84900816D01*
X117900500Y-84894748D01*
X117900500Y-83255252D01*
X117888867Y-83196769D01*
X117884280Y-83189905D01*
X117875500Y-83145762D01*
X117875500Y-82326000D01*
X117895502Y-82257879D01*
X117949158Y-82211386D01*
X118001500Y-82200000D01*
X118350379Y-82200000D01*
X118420381Y-82221235D01*
X118446769Y-82238867D01*
X118505252Y-82250500D01*
X119094748Y-82250500D01*
X119153231Y-82238867D01*
X119157112Y-82236274D01*
X119222370Y-82229257D01*
X119240239Y-82234504D01*
X119246769Y-82238867D01*
X119305252Y-82250500D01*
X119894748Y-82250500D01*
X119953231Y-82238867D01*
X119957112Y-82236274D01*
X120022370Y-82229257D01*
X120040239Y-82234504D01*
X120046769Y-82238867D01*
X120105252Y-82250500D01*
X120574000Y-82250500D01*
X120642121Y-82270502D01*
X120688614Y-82324158D01*
X120700000Y-82376500D01*
X120700000Y-84000000D01*
X120695347Y-84000000D01*
X120694597Y-84043087D01*
X120679422Y-84088840D01*
X120676555Y-84102210D01*
X120667328Y-84192270D01*
X120667000Y-84198685D01*
X120667000Y-84227885D01*
X120671475Y-84243124D01*
X120672865Y-84244329D01*
X120680548Y-84246000D01*
X121740500Y-84246000D01*
X121808621Y-84266002D01*
X121855114Y-84319658D01*
X121866500Y-84372000D01*
X121866500Y-84628000D01*
X121846498Y-84696121D01*
X121792842Y-84742614D01*
X121740500Y-84754000D01*
X120685115Y-84754000D01*
X120669876Y-84758475D01*
X120668671Y-84759865D01*
X120667000Y-84767548D01*
X120667000Y-84801266D01*
X120667337Y-84807782D01*
X120676804Y-84899021D01*
X120679697Y-84912417D01*
X120728830Y-85059687D01*
X120735004Y-85072866D01*
X120816470Y-85204514D01*
X120825506Y-85215915D01*
X120904838Y-85295109D01*
X120938917Y-85357392D01*
X120933914Y-85428212D01*
X120891417Y-85485084D01*
X120870205Y-85497796D01*
X120860316Y-85500446D01*
X120851286Y-85506769D01*
X120829456Y-85522055D01*
X120820185Y-85527961D01*
X120797094Y-85541293D01*
X120787545Y-85546806D01*
X120780459Y-85555251D01*
X120763315Y-85575682D01*
X120755889Y-85583785D01*
X119258785Y-87080889D01*
X119250681Y-87088316D01*
X119221806Y-87112545D01*
X119216293Y-87122094D01*
X119202961Y-87145185D01*
X119197055Y-87154456D01*
X119175446Y-87185316D01*
X119172592Y-87195966D01*
X119171115Y-87199134D01*
X119169923Y-87202410D01*
X119164412Y-87211955D01*
X119159049Y-87242371D01*
X119157870Y-87249058D01*
X119155492Y-87259784D01*
X119151451Y-87274866D01*
X119114503Y-87335488D01*
X119050644Y-87366513D01*
X118980149Y-87358087D01*
X118954180Y-87343085D01*
X118903648Y-87305213D01*
X118888054Y-87296676D01*
X118767606Y-87251522D01*
X118752351Y-87247895D01*
X118701486Y-87242369D01*
X118694672Y-87242000D01*
X118172115Y-87242000D01*
X118156876Y-87246475D01*
X118155671Y-87247865D01*
X118154000Y-87255548D01*
X118154000Y-90239884D01*
X118158475Y-90255123D01*
X118159865Y-90256328D01*
X118167548Y-90257999D01*
X118694669Y-90257999D01*
X118701490Y-90257629D01*
X118752352Y-90252105D01*
X118767604Y-90248479D01*
X118888054Y-90203324D01*
X118903648Y-90194786D01*
X118947935Y-90161595D01*
X119014441Y-90136747D01*
X119083824Y-90151800D01*
X119134054Y-90201974D01*
X119149500Y-90262421D01*
X119149500Y-96237983D01*
X119129498Y-96306104D01*
X119112595Y-96327078D01*
X118102079Y-97337595D01*
X118039767Y-97371620D01*
X118012984Y-97374500D01*
X111301500Y-97374500D01*
X111233379Y-97354498D01*
X111186886Y-97300842D01*
X111175500Y-97248500D01*
X111175500Y-97000000D01*
X113000000Y-97000000D01*
X118000000Y-97000000D01*
X118000000Y-93000000D01*
X113000000Y-93000000D01*
X113000000Y-97000000D01*
X111175500Y-97000000D01*
X111175500Y-96830252D01*
X111172496Y-96815150D01*
X111166288Y-96783939D01*
X111166288Y-96783938D01*
X111163867Y-96771769D01*
X111119552Y-96705448D01*
X111053231Y-96661133D01*
X111041062Y-96658712D01*
X111041061Y-96658712D01*
X111000816Y-96650707D01*
X110994748Y-96649500D01*
X109255252Y-96649500D01*
X109249184Y-96650707D01*
X109208939Y-96658712D01*
X109208938Y-96658712D01*
X109196769Y-96661133D01*
X109130448Y-96705448D01*
X109086133Y-96771769D01*
X109083712Y-96783938D01*
X109083712Y-96783939D01*
X109077504Y-96815150D01*
X109074500Y-96830252D01*
X109074500Y-98569748D01*
X109086133Y-98628231D01*
X109130448Y-98694552D01*
X109196769Y-98738867D01*
X109208938Y-98741288D01*
X109208939Y-98741288D01*
X109249184Y-98749293D01*
X109255252Y-98750500D01*
X110994748Y-98750500D01*
X111000816Y-98749293D01*
X111041061Y-98741288D01*
X111041062Y-98741288D01*
X111053231Y-98738867D01*
X111119552Y-98694552D01*
X111163867Y-98628231D01*
X111175500Y-98569748D01*
X111175500Y-98177885D01*
X120792000Y-98177885D01*
X120796475Y-98193124D01*
X120797865Y-98194329D01*
X120805548Y-98196000D01*
X121877885Y-98196000D01*
X121893124Y-98191525D01*
X121894329Y-98190135D01*
X121896000Y-98182452D01*
X121896000Y-96985116D01*
X121891525Y-96969877D01*
X121890135Y-96968672D01*
X121882452Y-96967001D01*
X121502905Y-96967001D01*
X121496386Y-96967338D01*
X121400794Y-96977257D01*
X121387400Y-96980149D01*
X121233216Y-97031588D01*
X121220038Y-97037761D01*
X121082193Y-97123063D01*
X121070792Y-97132099D01*
X120956261Y-97246829D01*
X120947249Y-97258240D01*
X120862184Y-97396243D01*
X120856037Y-97409424D01*
X120804862Y-97563710D01*
X120801995Y-97577086D01*
X120792328Y-97671438D01*
X120792000Y-97677855D01*
X120792000Y-98177885D01*
X111175500Y-98177885D01*
X111175500Y-98151500D01*
X111195502Y-98083379D01*
X111249158Y-98036886D01*
X111301500Y-98025500D01*
X118180290Y-98025500D01*
X118191272Y-98025980D01*
X118217820Y-98028303D01*
X118217822Y-98028303D01*
X118228807Y-98029264D01*
X118265215Y-98019508D01*
X118275942Y-98017130D01*
X118280717Y-98016288D01*
X118313045Y-98010588D01*
X118322590Y-98005077D01*
X118325866Y-98003885D01*
X118329034Y-98002408D01*
X118339684Y-97999554D01*
X118370544Y-97977945D01*
X118379815Y-97972039D01*
X118402910Y-97958705D01*
X118402911Y-97958704D01*
X118412455Y-97953194D01*
X118419539Y-97944752D01*
X118436685Y-97924319D01*
X118444110Y-97916217D01*
X119691222Y-96669105D01*
X119699326Y-96661678D01*
X119728194Y-96637455D01*
X119733704Y-96627912D01*
X119733707Y-96627908D01*
X119747036Y-96604821D01*
X119752941Y-96595551D01*
X119768232Y-96573713D01*
X119774554Y-96564684D01*
X119777407Y-96554036D01*
X119778886Y-96550865D01*
X119780078Y-96547589D01*
X119785588Y-96538045D01*
X119792134Y-96500924D01*
X119794508Y-96490217D01*
X119804263Y-96453807D01*
X119800979Y-96416269D01*
X119800500Y-96405288D01*
X119800500Y-92254321D01*
X121117158Y-92254321D01*
X121117337Y-92257782D01*
X121126804Y-92349021D01*
X121129697Y-92362417D01*
X121178830Y-92509687D01*
X121185004Y-92522866D01*
X121266470Y-92654514D01*
X121275506Y-92665915D01*
X121385080Y-92775298D01*
X121396491Y-92784310D01*
X121528291Y-92865553D01*
X121541468Y-92871697D01*
X121688843Y-92920579D01*
X121702210Y-92923445D01*
X121792270Y-92932672D01*
X121798685Y-92933000D01*
X121827885Y-92933000D01*
X121843124Y-92928525D01*
X121844329Y-92927135D01*
X121846000Y-92919452D01*
X121846000Y-92914885D01*
X122354000Y-92914885D01*
X122358475Y-92930124D01*
X122359865Y-92931329D01*
X122367548Y-92933000D01*
X122401266Y-92933000D01*
X122407782Y-92932663D01*
X122499021Y-92923196D01*
X122512417Y-92920303D01*
X122659687Y-92871170D01*
X122672866Y-92864996D01*
X122804514Y-92783530D01*
X122815915Y-92774494D01*
X122925298Y-92664920D01*
X122934310Y-92653509D01*
X123015553Y-92521709D01*
X123021697Y-92508532D01*
X123070579Y-92361157D01*
X123073445Y-92347790D01*
X123082614Y-92258300D01*
X123078525Y-92244376D01*
X123077135Y-92243171D01*
X123069452Y-92241500D01*
X122372115Y-92241500D01*
X122356876Y-92245975D01*
X122355671Y-92247365D01*
X122354000Y-92255048D01*
X122354000Y-92914885D01*
X121846000Y-92914885D01*
X121846000Y-92259615D01*
X121841525Y-92244376D01*
X121840135Y-92243171D01*
X121832452Y-92241500D01*
X121135115Y-92241500D01*
X121119876Y-92245975D01*
X121118671Y-92247365D01*
X121117158Y-92254321D01*
X119800500Y-92254321D01*
X119800500Y-91716700D01*
X121117386Y-91716700D01*
X121121475Y-91730624D01*
X121122865Y-91731829D01*
X121130548Y-91733500D01*
X123064885Y-91733500D01*
X123080124Y-91729025D01*
X123081329Y-91727635D01*
X123082842Y-91720679D01*
X123082663Y-91717218D01*
X123073196Y-91625979D01*
X123070303Y-91612583D01*
X123021170Y-91465313D01*
X123014996Y-91452134D01*
X122933530Y-91320486D01*
X122924494Y-91309085D01*
X122814920Y-91199702D01*
X122803509Y-91190690D01*
X122683208Y-91116535D01*
X122635714Y-91063762D01*
X122624291Y-90993691D01*
X122652565Y-90928567D01*
X122660229Y-90920180D01*
X122699658Y-90880751D01*
X122759951Y-90762420D01*
X122775500Y-90664246D01*
X122775500Y-90160754D01*
X122759951Y-90062580D01*
X122699658Y-89944249D01*
X122605751Y-89850342D01*
X122494297Y-89793553D01*
X122442682Y-89744804D01*
X122425500Y-89681286D01*
X122425500Y-89651500D01*
X122445502Y-89583379D01*
X122499158Y-89536886D01*
X122551500Y-89525500D01*
X122603834Y-89525500D01*
X122621752Y-89523806D01*
X122627722Y-89523242D01*
X122627723Y-89523242D01*
X122635369Y-89522519D01*
X122763184Y-89477634D01*
X122770754Y-89472042D01*
X122770757Y-89472041D01*
X122864579Y-89402742D01*
X122872150Y-89397150D01*
X122906354Y-89350842D01*
X122947041Y-89295757D01*
X122947042Y-89295754D01*
X122952634Y-89288184D01*
X122997519Y-89160369D01*
X123000500Y-89128834D01*
X123000500Y-89005700D01*
X123020502Y-88937579D01*
X123074158Y-88891086D01*
X123144432Y-88880982D01*
X123209012Y-88910476D01*
X123236412Y-88951803D01*
X123239354Y-88950304D01*
X123296950Y-89063342D01*
X123386658Y-89153050D01*
X123499254Y-89210421D01*
X123499696Y-89210646D01*
X123498650Y-89212699D01*
X123546044Y-89245108D01*
X123573679Y-89310506D01*
X123574500Y-89324865D01*
X123574500Y-97074000D01*
X123554498Y-97142121D01*
X123500842Y-97188614D01*
X123448500Y-97200000D01*
X123400000Y-97200000D01*
X123400000Y-97205319D01*
X123396210Y-97206432D01*
X123325214Y-97206432D01*
X123271693Y-97174708D01*
X123228171Y-97131261D01*
X123216760Y-97122249D01*
X123078757Y-97037184D01*
X123065576Y-97031037D01*
X122911290Y-96979862D01*
X122897914Y-96976995D01*
X122803562Y-96967328D01*
X122797145Y-96967000D01*
X122422115Y-96967000D01*
X122406876Y-96971475D01*
X122405671Y-96972865D01*
X122404000Y-96980548D01*
X122404000Y-99914884D01*
X122408475Y-99930123D01*
X122409865Y-99931328D01*
X122417548Y-99932999D01*
X122797095Y-99932999D01*
X122803614Y-99932662D01*
X122899206Y-99922743D01*
X122912600Y-99919851D01*
X123066784Y-99868412D01*
X123079962Y-99862239D01*
X123217807Y-99776937D01*
X123229208Y-99767901D01*
X123343736Y-99653174D01*
X123347893Y-99647910D01*
X123405810Y-99606846D01*
X123446777Y-99600000D01*
X124389542Y-99600000D01*
X124426801Y-99605635D01*
X124437746Y-99609023D01*
X124443871Y-99609667D01*
X124443872Y-99609667D01*
X124636502Y-99629913D01*
X124636504Y-99629913D01*
X124642631Y-99630557D01*
X124729471Y-99622654D01*
X124841658Y-99612445D01*
X124841661Y-99612444D01*
X124847797Y-99611886D01*
X124853703Y-99610148D01*
X124853712Y-99610146D01*
X124870764Y-99605127D01*
X124906340Y-99600000D01*
X126889542Y-99600000D01*
X126926801Y-99605635D01*
X126937746Y-99609023D01*
X126943871Y-99609667D01*
X126943872Y-99609667D01*
X127136502Y-99629913D01*
X127136504Y-99629913D01*
X127142631Y-99630557D01*
X127229471Y-99622654D01*
X127341658Y-99612445D01*
X127341661Y-99612444D01*
X127347797Y-99611886D01*
X127545428Y-99553720D01*
X127727998Y-99458274D01*
X127732799Y-99454414D01*
X127732802Y-99454412D01*
X127883746Y-99333050D01*
X127883747Y-99333050D01*
X127888553Y-99329185D01*
X128020976Y-99171370D01*
X128023944Y-99165972D01*
X128023947Y-99165967D01*
X128117257Y-98996235D01*
X128120224Y-98990838D01*
X128182516Y-98794468D01*
X128183474Y-98785932D01*
X128200107Y-98637636D01*
X128200500Y-98634136D01*
X128200500Y-98626841D01*
X128599500Y-98626841D01*
X128614520Y-98780030D01*
X128674065Y-98977251D01*
X128770782Y-99159151D01*
X128822118Y-99222095D01*
X128897094Y-99314025D01*
X128897097Y-99314028D01*
X128900989Y-99318800D01*
X128905736Y-99322727D01*
X128905738Y-99322729D01*
X129054975Y-99446189D01*
X129054979Y-99446191D01*
X129059725Y-99450118D01*
X129240945Y-99548103D01*
X129437746Y-99609023D01*
X129443871Y-99609667D01*
X129443872Y-99609667D01*
X129636502Y-99629913D01*
X129636504Y-99629913D01*
X129642631Y-99630557D01*
X129729471Y-99622654D01*
X129841658Y-99612445D01*
X129841661Y-99612444D01*
X129847797Y-99611886D01*
X130045428Y-99553720D01*
X130227998Y-99458274D01*
X130232799Y-99454414D01*
X130232802Y-99454412D01*
X130383746Y-99333050D01*
X130383747Y-99333050D01*
X130388553Y-99329185D01*
X130520976Y-99171370D01*
X130523944Y-99165972D01*
X130523947Y-99165967D01*
X130617257Y-98996235D01*
X130620224Y-98990838D01*
X130682516Y-98794468D01*
X130683474Y-98785932D01*
X130700107Y-98637636D01*
X130700500Y-98634136D01*
X130700500Y-98273159D01*
X130685480Y-98119970D01*
X130625935Y-97922749D01*
X130529218Y-97740849D01*
X130455859Y-97650902D01*
X130402906Y-97585975D01*
X130402903Y-97585972D01*
X130399011Y-97581200D01*
X130381786Y-97566950D01*
X130245025Y-97453811D01*
X130245021Y-97453809D01*
X130240275Y-97449882D01*
X130103091Y-97375707D01*
X130064474Y-97354827D01*
X130059055Y-97351897D01*
X129862254Y-97290977D01*
X129856129Y-97290333D01*
X129856128Y-97290333D01*
X129663498Y-97270087D01*
X129663496Y-97270087D01*
X129657369Y-97269443D01*
X129570529Y-97277346D01*
X129458342Y-97287555D01*
X129458339Y-97287556D01*
X129452203Y-97288114D01*
X129254572Y-97346280D01*
X129249109Y-97349136D01*
X129249107Y-97349137D01*
X129197048Y-97376353D01*
X129072002Y-97441726D01*
X129067201Y-97445586D01*
X129067198Y-97445588D01*
X129056971Y-97453811D01*
X128911447Y-97570815D01*
X128779024Y-97728630D01*
X128776056Y-97734028D01*
X128776053Y-97734033D01*
X128769315Y-97746290D01*
X128679776Y-97909162D01*
X128617484Y-98105532D01*
X128616798Y-98111649D01*
X128616797Y-98111653D01*
X128612328Y-98151500D01*
X128599500Y-98265864D01*
X128599500Y-98626841D01*
X128200500Y-98626841D01*
X128200500Y-98273159D01*
X128185480Y-98119970D01*
X128125935Y-97922749D01*
X128029218Y-97740849D01*
X127955859Y-97650902D01*
X127902906Y-97585975D01*
X127902903Y-97585972D01*
X127899011Y-97581200D01*
X127881786Y-97566950D01*
X127745025Y-97453811D01*
X127745021Y-97453809D01*
X127740275Y-97449882D01*
X127603091Y-97375707D01*
X127564474Y-97354827D01*
X127559055Y-97351897D01*
X127362254Y-97290977D01*
X127356129Y-97290333D01*
X127356128Y-97290333D01*
X127163498Y-97270087D01*
X127163496Y-97270087D01*
X127157369Y-97269443D01*
X127070529Y-97277346D01*
X126958342Y-97287555D01*
X126958339Y-97287556D01*
X126952203Y-97288114D01*
X126754572Y-97346280D01*
X126749109Y-97349136D01*
X126673759Y-97388528D01*
X126604123Y-97402363D01*
X126538062Y-97376353D01*
X126526288Y-97365962D01*
X124712405Y-95552079D01*
X124678379Y-95489767D01*
X124675500Y-95462984D01*
X124675500Y-92200000D01*
X126394318Y-92200000D01*
X126414956Y-92356762D01*
X126475464Y-92502841D01*
X126571718Y-92628282D01*
X126697159Y-92724536D01*
X126843238Y-92785044D01*
X127000000Y-92805682D01*
X127008188Y-92804604D01*
X127148574Y-92786122D01*
X127156762Y-92785044D01*
X127302841Y-92724536D01*
X127428282Y-92628282D01*
X127469323Y-92574796D01*
X127526661Y-92532929D01*
X127569286Y-92525500D01*
X129737984Y-92525500D01*
X129806105Y-92545502D01*
X129827079Y-92562405D01*
X133612595Y-96347921D01*
X133646621Y-96410233D01*
X133649500Y-96437016D01*
X133649500Y-97844748D01*
X133661133Y-97903231D01*
X133705448Y-97969552D01*
X133771769Y-98013867D01*
X133783938Y-98016288D01*
X133783939Y-98016288D01*
X133800133Y-98019509D01*
X133830252Y-98025500D01*
X135569748Y-98025500D01*
X135599867Y-98019509D01*
X135616061Y-98016288D01*
X135616062Y-98016288D01*
X135628231Y-98013867D01*
X135694552Y-97969552D01*
X135738867Y-97903231D01*
X135750500Y-97844748D01*
X135750500Y-96105252D01*
X135738867Y-96046769D01*
X135694552Y-95980448D01*
X135628231Y-95936133D01*
X135616062Y-95933712D01*
X135616061Y-95933712D01*
X135575816Y-95925707D01*
X135569748Y-95924500D01*
X134162016Y-95924500D01*
X134093895Y-95904498D01*
X134072921Y-95887595D01*
X131082421Y-92897095D01*
X134042001Y-92897095D01*
X134042338Y-92903614D01*
X134052257Y-92999206D01*
X134055149Y-93012600D01*
X134106588Y-93166784D01*
X134112761Y-93179962D01*
X134198063Y-93317807D01*
X134207099Y-93329208D01*
X134321829Y-93443739D01*
X134333240Y-93452751D01*
X134471243Y-93537816D01*
X134484424Y-93543963D01*
X134638710Y-93595138D01*
X134652086Y-93598005D01*
X134746438Y-93607672D01*
X134752854Y-93608000D01*
X135277885Y-93608000D01*
X135293124Y-93603525D01*
X135294329Y-93602135D01*
X135296000Y-93594452D01*
X135296000Y-93589884D01*
X135804000Y-93589884D01*
X135808475Y-93605123D01*
X135809865Y-93606328D01*
X135817548Y-93607999D01*
X136347095Y-93607999D01*
X136353614Y-93607662D01*
X136449206Y-93597743D01*
X136462600Y-93594851D01*
X136616784Y-93543412D01*
X136629962Y-93537239D01*
X136767807Y-93451937D01*
X136779208Y-93442901D01*
X136893739Y-93328171D01*
X136902751Y-93316760D01*
X136987816Y-93178757D01*
X136993963Y-93165576D01*
X137045138Y-93011290D01*
X137048005Y-92997914D01*
X137057672Y-92903562D01*
X137058000Y-92897146D01*
X137058000Y-92522115D01*
X137053525Y-92506876D01*
X137052135Y-92505671D01*
X137044452Y-92504000D01*
X135822115Y-92504000D01*
X135806876Y-92508475D01*
X135805671Y-92509865D01*
X135804000Y-92517548D01*
X135804000Y-93589884D01*
X135296000Y-93589884D01*
X135296000Y-92522115D01*
X135291525Y-92506876D01*
X135290135Y-92505671D01*
X135282452Y-92504000D01*
X134060116Y-92504000D01*
X134044877Y-92508475D01*
X134043672Y-92509865D01*
X134042001Y-92517548D01*
X134042001Y-92897095D01*
X131082421Y-92897095D01*
X130169111Y-91983785D01*
X130161684Y-91975681D01*
X130144541Y-91955251D01*
X130144542Y-91955251D01*
X130137455Y-91946806D01*
X130127906Y-91941293D01*
X130104815Y-91927961D01*
X130095544Y-91922055D01*
X130073715Y-91906770D01*
X130064684Y-91900446D01*
X130054034Y-91897592D01*
X130050866Y-91896115D01*
X130047590Y-91894923D01*
X130038045Y-91889412D01*
X130004301Y-91883462D01*
X130000942Y-91882870D01*
X129990215Y-91880492D01*
X129953807Y-91870736D01*
X129942822Y-91871697D01*
X129942820Y-91871697D01*
X129916272Y-91874020D01*
X129905290Y-91874500D01*
X127569286Y-91874500D01*
X127501165Y-91854498D01*
X127469323Y-91825204D01*
X127433305Y-91778264D01*
X127428282Y-91771718D01*
X127302841Y-91675464D01*
X127156762Y-91614956D01*
X127000000Y-91594318D01*
X126843238Y-91614956D01*
X126697159Y-91675464D01*
X126571718Y-91771718D01*
X126475464Y-91897159D01*
X126414956Y-92043238D01*
X126394318Y-92200000D01*
X124675500Y-92200000D01*
X124675500Y-89937017D01*
X124695502Y-89868896D01*
X124712405Y-89847921D01*
X125297923Y-89262404D01*
X125360235Y-89228379D01*
X125387018Y-89225500D01*
X125765619Y-89225499D01*
X125806518Y-89225499D01*
X125811412Y-89224724D01*
X125890506Y-89212198D01*
X125890508Y-89212197D01*
X125900304Y-89210646D01*
X125909360Y-89206032D01*
X125975856Y-89172150D01*
X126013342Y-89153050D01*
X126103050Y-89063342D01*
X126160646Y-88950304D01*
X126162662Y-88937579D01*
X126171625Y-88880982D01*
X126175500Y-88856519D01*
X126175499Y-88393482D01*
X126166525Y-88336816D01*
X126162198Y-88309494D01*
X126162197Y-88309492D01*
X126160646Y-88299696D01*
X126103050Y-88186658D01*
X126013342Y-88096950D01*
X125900304Y-88039354D01*
X125890515Y-88037804D01*
X125890513Y-88037803D01*
X125863151Y-88033470D01*
X125806519Y-88024500D01*
X125500062Y-88024500D01*
X125193482Y-88024501D01*
X125188589Y-88025276D01*
X125188588Y-88025276D01*
X125109494Y-88037802D01*
X125109492Y-88037803D01*
X125099696Y-88039354D01*
X124986658Y-88096950D01*
X124896950Y-88186658D01*
X124839354Y-88299696D01*
X124824500Y-88393481D01*
X124822267Y-88393127D01*
X124800283Y-88450710D01*
X124743121Y-88492817D01*
X124672268Y-88497337D01*
X124610220Y-88462833D01*
X124576676Y-88400260D01*
X124575701Y-88393450D01*
X124575499Y-88393482D01*
X124562198Y-88309494D01*
X124562197Y-88309492D01*
X124560646Y-88299696D01*
X124503050Y-88186658D01*
X124413342Y-88096950D01*
X124300304Y-88039354D01*
X124290515Y-88037804D01*
X124290513Y-88037803D01*
X124263151Y-88033470D01*
X124206519Y-88024500D01*
X123900062Y-88024500D01*
X123593482Y-88024501D01*
X123588589Y-88025276D01*
X123588588Y-88025276D01*
X123509494Y-88037802D01*
X123509492Y-88037803D01*
X123499696Y-88039354D01*
X123386658Y-88096950D01*
X123296950Y-88186658D01*
X123239354Y-88299696D01*
X123224500Y-88393481D01*
X123222658Y-88393189D01*
X123200217Y-88452078D01*
X123143081Y-88494220D01*
X123072231Y-88498782D01*
X123010162Y-88464316D01*
X122981004Y-88417603D01*
X122974914Y-88400260D01*
X122952634Y-88336816D01*
X122947042Y-88329246D01*
X122947041Y-88329243D01*
X122877742Y-88235421D01*
X122872150Y-88227850D01*
X122806889Y-88179647D01*
X122770757Y-88152959D01*
X122770754Y-88152958D01*
X122763184Y-88147366D01*
X122635369Y-88102481D01*
X122627723Y-88101758D01*
X122627722Y-88101758D01*
X122621752Y-88101194D01*
X122603834Y-88099500D01*
X121596166Y-88099500D01*
X121578248Y-88101194D01*
X121572278Y-88101758D01*
X121572277Y-88101758D01*
X121564631Y-88102481D01*
X121436816Y-88147366D01*
X121429246Y-88152958D01*
X121429243Y-88152959D01*
X121393111Y-88179647D01*
X121327850Y-88227850D01*
X121322258Y-88235421D01*
X121252959Y-88329243D01*
X121252958Y-88329246D01*
X121247366Y-88336816D01*
X121202481Y-88464631D01*
X121199500Y-88496166D01*
X121199500Y-89128834D01*
X121202481Y-89160369D01*
X121247366Y-89288184D01*
X121252958Y-89295754D01*
X121252959Y-89295757D01*
X121293646Y-89350842D01*
X121327850Y-89397150D01*
X121335421Y-89402742D01*
X121429243Y-89472041D01*
X121429246Y-89472042D01*
X121436816Y-89477634D01*
X121564631Y-89522519D01*
X121572277Y-89523242D01*
X121572278Y-89523242D01*
X121578248Y-89523806D01*
X121596166Y-89525500D01*
X121648500Y-89525500D01*
X121716621Y-89545502D01*
X121763114Y-89599158D01*
X121774500Y-89651500D01*
X121774500Y-89681286D01*
X121754498Y-89749407D01*
X121705703Y-89793553D01*
X121594249Y-89850342D01*
X121500342Y-89944249D01*
X121440049Y-90062580D01*
X121424500Y-90160754D01*
X121424500Y-90664246D01*
X121440049Y-90762420D01*
X121500342Y-90880751D01*
X121539690Y-90920099D01*
X121573716Y-90982411D01*
X121568651Y-91053226D01*
X121526104Y-91110062D01*
X121516898Y-91116338D01*
X121395486Y-91191470D01*
X121384085Y-91200506D01*
X121274702Y-91310080D01*
X121265690Y-91321491D01*
X121184447Y-91453291D01*
X121178303Y-91466468D01*
X121129421Y-91613843D01*
X121126555Y-91627210D01*
X121117386Y-91716700D01*
X119800500Y-91716700D01*
X119800500Y-87512016D01*
X119820502Y-87443895D01*
X119837405Y-87422921D01*
X121097921Y-86162405D01*
X121160233Y-86128379D01*
X121187016Y-86125500D01*
X121320683Y-86125500D01*
X121388804Y-86145502D01*
X121435297Y-86199158D01*
X121445401Y-86269432D01*
X121415907Y-86334012D01*
X121395542Y-86352851D01*
X121335424Y-86397255D01*
X121335421Y-86397258D01*
X121327850Y-86402850D01*
X121322258Y-86410421D01*
X121252959Y-86504243D01*
X121252958Y-86504246D01*
X121247366Y-86511816D01*
X121202481Y-86639631D01*
X121199500Y-86671166D01*
X121199500Y-87303834D01*
X121202481Y-87335369D01*
X121247366Y-87463184D01*
X121252958Y-87470754D01*
X121252959Y-87470757D01*
X121302758Y-87538178D01*
X121327850Y-87572150D01*
X121335421Y-87577742D01*
X121429243Y-87647041D01*
X121429246Y-87647042D01*
X121436816Y-87652634D01*
X121564631Y-87697519D01*
X121572277Y-87698242D01*
X121572278Y-87698242D01*
X121578248Y-87698806D01*
X121596166Y-87700500D01*
X122603834Y-87700500D01*
X122621752Y-87698806D01*
X122627722Y-87698242D01*
X122627723Y-87698242D01*
X122635369Y-87697519D01*
X122763184Y-87652634D01*
X122770754Y-87647042D01*
X122770757Y-87647041D01*
X122864579Y-87577742D01*
X122872150Y-87572150D01*
X122877742Y-87564579D01*
X122877745Y-87564576D01*
X122942695Y-87476641D01*
X122999256Y-87433730D01*
X123044046Y-87425500D01*
X123256918Y-87425500D01*
X123325039Y-87445502D01*
X123346013Y-87462405D01*
X123386658Y-87503050D01*
X123499696Y-87560646D01*
X123509485Y-87562196D01*
X123509487Y-87562197D01*
X123524856Y-87564631D01*
X123593481Y-87575500D01*
X123899938Y-87575500D01*
X124206518Y-87575499D01*
X124211412Y-87574724D01*
X124290506Y-87562198D01*
X124290508Y-87562197D01*
X124300304Y-87560646D01*
X124319811Y-87550707D01*
X124361435Y-87529498D01*
X124413342Y-87503050D01*
X124453987Y-87462405D01*
X124516299Y-87428379D01*
X124543082Y-87425500D01*
X124856918Y-87425500D01*
X124925039Y-87445502D01*
X124946013Y-87462405D01*
X124986658Y-87503050D01*
X125099696Y-87560646D01*
X125109485Y-87562196D01*
X125109487Y-87562197D01*
X125124856Y-87564631D01*
X125193481Y-87575500D01*
X125499938Y-87575500D01*
X125806518Y-87575499D01*
X125811412Y-87574724D01*
X125890506Y-87562198D01*
X125890508Y-87562197D01*
X125900304Y-87560646D01*
X125919811Y-87550707D01*
X125961435Y-87529498D01*
X126013342Y-87503050D01*
X126053987Y-87462405D01*
X126116299Y-87428379D01*
X126143082Y-87425500D01*
X129898500Y-87425500D01*
X129966621Y-87445502D01*
X130013114Y-87499158D01*
X130024500Y-87551500D01*
X130024500Y-90353280D01*
X130023627Y-90368089D01*
X130019636Y-90401810D01*
X130021328Y-90411074D01*
X130021328Y-90411075D01*
X130030172Y-90459501D01*
X130030822Y-90463404D01*
X130036448Y-90500821D01*
X130039551Y-90521462D01*
X130042679Y-90527975D01*
X130043975Y-90535073D01*
X130071025Y-90587147D01*
X130072768Y-90590637D01*
X130098191Y-90643579D01*
X130103077Y-90648865D01*
X130103110Y-90648913D01*
X130106421Y-90655288D01*
X130110725Y-90660328D01*
X130147952Y-90697555D01*
X130151381Y-90701120D01*
X130190146Y-90743056D01*
X130196505Y-90746749D01*
X130202663Y-90752266D01*
X130762595Y-91312198D01*
X130796621Y-91374510D01*
X130799500Y-91401293D01*
X130799500Y-91928834D01*
X130802481Y-91960369D01*
X130847366Y-92088184D01*
X130852958Y-92095754D01*
X130852959Y-92095757D01*
X130915335Y-92180206D01*
X130927850Y-92197150D01*
X130935421Y-92202742D01*
X131029243Y-92272041D01*
X131029246Y-92272042D01*
X131036816Y-92277634D01*
X131164631Y-92322519D01*
X131172277Y-92323242D01*
X131172278Y-92323242D01*
X131178248Y-92323806D01*
X131196166Y-92325500D01*
X132203834Y-92325500D01*
X132221752Y-92323806D01*
X132227722Y-92323242D01*
X132227723Y-92323242D01*
X132235369Y-92322519D01*
X132363184Y-92277634D01*
X132370754Y-92272042D01*
X132370757Y-92272041D01*
X132464579Y-92202742D01*
X132472150Y-92197150D01*
X132484665Y-92180206D01*
X132547041Y-92095757D01*
X132547042Y-92095754D01*
X132552634Y-92088184D01*
X132597519Y-91960369D01*
X132600500Y-91928834D01*
X132600500Y-91296166D01*
X132597519Y-91264631D01*
X132552634Y-91136816D01*
X132547042Y-91129246D01*
X132547041Y-91129243D01*
X132477742Y-91035421D01*
X132472150Y-91027850D01*
X132444803Y-91007651D01*
X132370757Y-90952959D01*
X132370754Y-90952958D01*
X132363184Y-90947366D01*
X132235369Y-90902481D01*
X132227723Y-90901758D01*
X132227722Y-90901758D01*
X132221752Y-90901194D01*
X132203834Y-90899500D01*
X131676295Y-90899500D01*
X131608174Y-90879498D01*
X131587200Y-90862595D01*
X131440200Y-90715595D01*
X131406174Y-90653283D01*
X131411239Y-90582468D01*
X131453786Y-90525632D01*
X131520306Y-90500821D01*
X131529295Y-90500500D01*
X132203834Y-90500500D01*
X132221752Y-90498806D01*
X132227722Y-90498242D01*
X132227723Y-90498242D01*
X132235369Y-90497519D01*
X132363184Y-90452634D01*
X132370754Y-90447042D01*
X132370757Y-90447041D01*
X132464579Y-90377742D01*
X132472150Y-90372150D01*
X132495693Y-90340275D01*
X132547041Y-90270757D01*
X132547042Y-90270754D01*
X132552634Y-90263184D01*
X132588957Y-90159751D01*
X132630399Y-90102107D01*
X132696428Y-90076018D01*
X132707839Y-90075500D01*
X134308688Y-90075500D01*
X134376809Y-90095502D01*
X134419107Y-90146564D01*
X134421280Y-90145428D01*
X134516726Y-90327998D01*
X134520586Y-90332799D01*
X134520588Y-90332802D01*
X134619443Y-90455753D01*
X134645815Y-90488553D01*
X134803630Y-90620976D01*
X134809031Y-90623945D01*
X134809041Y-90623952D01*
X134866585Y-90655587D01*
X134916644Y-90705932D01*
X134931537Y-90775349D01*
X134906536Y-90841798D01*
X134849579Y-90884182D01*
X134805884Y-90892001D01*
X134752905Y-90892001D01*
X134746386Y-90892338D01*
X134650794Y-90902257D01*
X134637400Y-90905149D01*
X134483216Y-90956588D01*
X134470038Y-90962761D01*
X134332193Y-91048063D01*
X134320792Y-91057099D01*
X134206261Y-91171829D01*
X134197249Y-91183240D01*
X134112184Y-91321243D01*
X134106037Y-91334424D01*
X134054862Y-91488710D01*
X134051995Y-91502086D01*
X134042328Y-91596438D01*
X134042000Y-91602855D01*
X134042000Y-91977885D01*
X134046475Y-91993124D01*
X134047865Y-91994329D01*
X134055548Y-91996000D01*
X137039884Y-91996000D01*
X137055123Y-91991525D01*
X137056328Y-91990135D01*
X137057999Y-91982452D01*
X137057999Y-91602905D01*
X137057662Y-91596386D01*
X137047743Y-91500794D01*
X137044851Y-91487400D01*
X136993412Y-91333216D01*
X136987239Y-91320038D01*
X136901937Y-91182193D01*
X136892901Y-91170792D01*
X136778171Y-91056261D01*
X136766760Y-91047249D01*
X136628757Y-90962184D01*
X136615576Y-90956037D01*
X136461290Y-90904862D01*
X136447914Y-90901995D01*
X136353562Y-90892328D01*
X136347145Y-90892000D01*
X136295289Y-90892000D01*
X136227168Y-90871998D01*
X136180675Y-90818342D01*
X136170571Y-90748068D01*
X136200065Y-90683488D01*
X136236136Y-90654749D01*
X136278702Y-90632116D01*
X136278708Y-90632112D01*
X136284151Y-90629218D01*
X136389336Y-90543431D01*
X136439025Y-90502906D01*
X136439028Y-90502903D01*
X136443800Y-90499011D01*
X136452452Y-90488553D01*
X136571189Y-90345025D01*
X136571191Y-90345021D01*
X136575118Y-90340275D01*
X136673103Y-90159055D01*
X136734023Y-89962254D01*
X136734987Y-89953082D01*
X136754913Y-89763498D01*
X136754913Y-89763496D01*
X136755557Y-89757369D01*
X136747654Y-89670529D01*
X136737445Y-89558342D01*
X136737444Y-89558339D01*
X136736886Y-89552203D01*
X136678720Y-89354572D01*
X136671231Y-89340246D01*
X136586131Y-89177467D01*
X136583274Y-89172002D01*
X136573404Y-89159725D01*
X136458050Y-89016254D01*
X136458050Y-89016253D01*
X136454185Y-89011447D01*
X136296370Y-88879024D01*
X136290972Y-88876056D01*
X136290967Y-88876053D01*
X136121235Y-88782743D01*
X136115838Y-88779776D01*
X135919468Y-88717484D01*
X135913351Y-88716798D01*
X135913347Y-88716797D01*
X135837126Y-88708248D01*
X135759136Y-88699500D01*
X135348159Y-88699500D01*
X135194970Y-88714520D01*
X134997749Y-88774065D01*
X134815849Y-88870782D01*
X134771709Y-88906782D01*
X134660975Y-88997094D01*
X134660972Y-88997097D01*
X134656200Y-89000989D01*
X134652273Y-89005736D01*
X134652271Y-89005738D01*
X134528811Y-89154975D01*
X134528809Y-89154979D01*
X134524882Y-89159725D01*
X134426897Y-89340945D01*
X134425074Y-89346833D01*
X134424868Y-89347324D01*
X134380033Y-89402372D01*
X134308712Y-89424500D01*
X132681501Y-89424500D01*
X132613380Y-89404498D01*
X132566887Y-89350842D01*
X132562618Y-89340246D01*
X132555755Y-89320702D01*
X132555753Y-89320699D01*
X132552634Y-89311816D01*
X132547042Y-89304246D01*
X132547041Y-89304243D01*
X132477742Y-89210421D01*
X132472150Y-89202850D01*
X132438157Y-89177742D01*
X132370757Y-89127959D01*
X132370754Y-89127958D01*
X132363184Y-89122366D01*
X132235369Y-89077481D01*
X132227723Y-89076758D01*
X132227722Y-89076758D01*
X132221752Y-89076194D01*
X132203834Y-89074500D01*
X131196166Y-89074500D01*
X131178248Y-89076194D01*
X131172278Y-89076758D01*
X131172277Y-89076758D01*
X131164631Y-89077481D01*
X131157383Y-89080026D01*
X131157380Y-89080027D01*
X131093249Y-89102548D01*
X131022348Y-89106247D01*
X130960704Y-89071028D01*
X130927886Y-89008071D01*
X130925500Y-88983666D01*
X130925500Y-87213793D01*
X130945502Y-87145672D01*
X130962405Y-87124698D01*
X131994350Y-86092753D01*
X132005439Y-86082899D01*
X132024711Y-86067706D01*
X132024715Y-86067702D01*
X132032110Y-86061872D01*
X132037464Y-86054125D01*
X132037468Y-86054121D01*
X132065477Y-86013596D01*
X132067758Y-86010402D01*
X132102635Y-85963183D01*
X132105029Y-85956366D01*
X132109131Y-85950431D01*
X132126812Y-85894525D01*
X132128060Y-85890785D01*
X132144400Y-85844255D01*
X132144401Y-85844252D01*
X132147520Y-85835369D01*
X132147803Y-85828184D01*
X132147817Y-85828111D01*
X132149980Y-85821270D01*
X132150500Y-85814663D01*
X132150500Y-85762009D01*
X132150597Y-85757062D01*
X132152469Y-85709418D01*
X132152839Y-85700006D01*
X132150954Y-85692897D01*
X132150500Y-85684648D01*
X132150500Y-84726000D01*
X132170502Y-84657879D01*
X132224158Y-84611386D01*
X132276500Y-84600000D01*
X133960154Y-84600000D01*
X134028275Y-84620002D01*
X134074768Y-84673658D01*
X134079678Y-84686124D01*
X134106588Y-84766784D01*
X134112761Y-84779962D01*
X134198063Y-84917807D01*
X134207099Y-84929208D01*
X134321829Y-85043739D01*
X134333240Y-85052751D01*
X134471243Y-85137816D01*
X134484424Y-85143963D01*
X134638710Y-85195138D01*
X134652086Y-85198005D01*
X134746438Y-85207672D01*
X134752854Y-85208000D01*
X135277885Y-85208000D01*
X135293124Y-85203525D01*
X135294329Y-85202135D01*
X135296000Y-85194452D01*
X135296000Y-85189884D01*
X135804000Y-85189884D01*
X135808475Y-85205123D01*
X135809865Y-85206328D01*
X135817548Y-85207999D01*
X136347095Y-85207999D01*
X136353614Y-85207662D01*
X136449206Y-85197743D01*
X136462600Y-85194851D01*
X136616784Y-85143412D01*
X136629962Y-85137239D01*
X136767807Y-85051937D01*
X136779208Y-85042901D01*
X136893739Y-84928171D01*
X136902751Y-84916760D01*
X136987816Y-84778757D01*
X136993963Y-84765576D01*
X137045138Y-84611290D01*
X137048005Y-84597914D01*
X137057672Y-84503562D01*
X137058000Y-84497146D01*
X137058000Y-84122115D01*
X137053525Y-84106876D01*
X137052135Y-84105671D01*
X137044452Y-84104000D01*
X135822115Y-84104000D01*
X135806876Y-84108475D01*
X135805671Y-84109865D01*
X135804000Y-84117548D01*
X135804000Y-85189884D01*
X135296000Y-85189884D01*
X135296000Y-83722000D01*
X135316002Y-83653879D01*
X135369658Y-83607386D01*
X135422000Y-83596000D01*
X137039884Y-83596000D01*
X137055123Y-83591525D01*
X137056328Y-83590135D01*
X137057999Y-83582452D01*
X137057999Y-83202905D01*
X137057662Y-83196386D01*
X137047743Y-83100794D01*
X137044851Y-83087400D01*
X136993412Y-82933216D01*
X136987239Y-82920038D01*
X136901937Y-82782193D01*
X136892901Y-82770792D01*
X136778171Y-82656261D01*
X136766760Y-82647249D01*
X136628757Y-82562184D01*
X136615576Y-82556037D01*
X136461290Y-82504862D01*
X136447914Y-82501995D01*
X136353562Y-82492328D01*
X136347145Y-82492000D01*
X136295289Y-82492000D01*
X136227168Y-82471998D01*
X136180675Y-82418342D01*
X136170571Y-82348068D01*
X136200065Y-82283488D01*
X136236136Y-82254749D01*
X136278702Y-82232116D01*
X136278708Y-82232112D01*
X136284151Y-82229218D01*
X136387563Y-82144877D01*
X136439025Y-82102906D01*
X136439028Y-82102903D01*
X136443800Y-82099011D01*
X136455120Y-82085328D01*
X136571189Y-81945025D01*
X136571191Y-81945021D01*
X136575118Y-81940275D01*
X136673103Y-81759055D01*
X136734023Y-81562254D01*
X136755557Y-81357369D01*
X136741680Y-81204879D01*
X136737445Y-81158342D01*
X136737444Y-81158339D01*
X136736886Y-81152203D01*
X136678720Y-80954572D01*
X136643533Y-80887265D01*
X136586131Y-80777467D01*
X136583274Y-80772002D01*
X136573404Y-80759725D01*
X136458050Y-80616254D01*
X136458050Y-80616253D01*
X136454185Y-80611447D01*
X136296370Y-80479024D01*
X136290972Y-80476056D01*
X136290967Y-80476053D01*
X136121235Y-80382743D01*
X136115838Y-80379776D01*
X135919468Y-80317484D01*
X135913351Y-80316798D01*
X135913347Y-80316797D01*
X135837126Y-80308248D01*
X135759136Y-80299500D01*
X135348159Y-80299500D01*
X135194970Y-80314520D01*
X134997749Y-80374065D01*
X134815849Y-80470782D01*
X134732713Y-80538586D01*
X134660975Y-80597094D01*
X134660972Y-80597097D01*
X134656200Y-80600989D01*
X134652273Y-80605736D01*
X134652271Y-80605738D01*
X134528811Y-80754975D01*
X134528809Y-80754979D01*
X134524882Y-80759725D01*
X134426897Y-80940945D01*
X134425074Y-80946833D01*
X134424868Y-80947324D01*
X134380033Y-81002372D01*
X134308712Y-81024500D01*
X132716537Y-81024500D01*
X132648416Y-81004498D01*
X132601923Y-80950842D01*
X132598114Y-80939422D01*
X132597519Y-80939631D01*
X132587031Y-80909766D01*
X132552634Y-80811816D01*
X132547042Y-80804246D01*
X132547041Y-80804243D01*
X132477742Y-80710421D01*
X132472150Y-80702850D01*
X132455206Y-80690335D01*
X132370757Y-80627959D01*
X132370754Y-80627958D01*
X132363184Y-80622366D01*
X132235369Y-80577481D01*
X132227723Y-80576758D01*
X132227722Y-80576758D01*
X132221752Y-80576194D01*
X132203834Y-80574500D01*
X131196166Y-80574500D01*
X131178248Y-80576194D01*
X131172278Y-80576758D01*
X131172277Y-80576758D01*
X131164631Y-80577481D01*
X131157384Y-80580026D01*
X131045700Y-80619246D01*
X131045699Y-80619247D01*
X131036816Y-80622366D01*
X131033026Y-80625165D01*
X130965896Y-80638867D01*
X130899700Y-80613203D01*
X130857888Y-80555824D01*
X130850500Y-80513314D01*
X130850500Y-76338793D01*
X130870502Y-76270672D01*
X130887405Y-76249698D01*
X131040008Y-76097095D01*
X134042001Y-76097095D01*
X134042338Y-76103614D01*
X134052257Y-76199206D01*
X134055149Y-76212600D01*
X134106588Y-76366784D01*
X134112761Y-76379962D01*
X134198063Y-76517807D01*
X134207099Y-76529208D01*
X134321829Y-76643739D01*
X134333240Y-76652751D01*
X134471243Y-76737816D01*
X134484424Y-76743963D01*
X134638710Y-76795138D01*
X134652086Y-76798005D01*
X134746438Y-76807672D01*
X134752854Y-76808000D01*
X135277885Y-76808000D01*
X135293124Y-76803525D01*
X135294329Y-76802135D01*
X135296000Y-76794452D01*
X135296000Y-76789884D01*
X135804000Y-76789884D01*
X135808475Y-76805123D01*
X135809865Y-76806328D01*
X135817548Y-76807999D01*
X136347095Y-76807999D01*
X136353614Y-76807662D01*
X136449206Y-76797743D01*
X136462600Y-76794851D01*
X136616784Y-76743412D01*
X136629962Y-76737239D01*
X136767807Y-76651937D01*
X136779208Y-76642901D01*
X136893739Y-76528171D01*
X136902751Y-76516760D01*
X136987816Y-76378757D01*
X136993963Y-76365576D01*
X137045138Y-76211290D01*
X137048005Y-76197914D01*
X137057672Y-76103562D01*
X137058000Y-76097146D01*
X137058000Y-75722115D01*
X137053525Y-75706876D01*
X137052135Y-75705671D01*
X137044452Y-75704000D01*
X135822115Y-75704000D01*
X135806876Y-75708475D01*
X135805671Y-75709865D01*
X135804000Y-75717548D01*
X135804000Y-76789884D01*
X135296000Y-76789884D01*
X135296000Y-75722115D01*
X135291525Y-75706876D01*
X135290135Y-75705671D01*
X135282452Y-75704000D01*
X134060116Y-75704000D01*
X134044877Y-75708475D01*
X134043672Y-75709865D01*
X134042001Y-75717548D01*
X134042001Y-76097095D01*
X131040008Y-76097095D01*
X131574698Y-75562405D01*
X131637010Y-75528379D01*
X131663793Y-75525500D01*
X132203834Y-75525500D01*
X132221752Y-75523806D01*
X132227722Y-75523242D01*
X132227723Y-75523242D01*
X132235369Y-75522519D01*
X132363184Y-75477634D01*
X132370754Y-75472042D01*
X132370757Y-75472041D01*
X132464579Y-75402742D01*
X132472150Y-75397150D01*
X132484665Y-75380206D01*
X132547041Y-75295757D01*
X132547042Y-75295754D01*
X132552634Y-75288184D01*
X132597519Y-75160369D01*
X132600500Y-75128834D01*
X132600500Y-74496166D01*
X132597519Y-74464631D01*
X132552634Y-74336816D01*
X132547042Y-74329246D01*
X132547041Y-74329243D01*
X132477742Y-74235421D01*
X132472150Y-74227850D01*
X132412605Y-74183869D01*
X132370757Y-74152959D01*
X132370754Y-74152958D01*
X132363184Y-74147366D01*
X132235369Y-74102481D01*
X132227723Y-74101758D01*
X132227722Y-74101758D01*
X132221752Y-74101194D01*
X132203834Y-74099500D01*
X131676293Y-74099500D01*
X131608172Y-74079498D01*
X131587198Y-74062595D01*
X131440198Y-73915595D01*
X131406172Y-73853283D01*
X131411237Y-73782468D01*
X131453784Y-73725632D01*
X131520304Y-73700821D01*
X131529293Y-73700500D01*
X132203834Y-73700500D01*
X132221752Y-73698806D01*
X132227722Y-73698242D01*
X132227723Y-73698242D01*
X132235369Y-73697519D01*
X132363184Y-73652634D01*
X132370754Y-73647042D01*
X132370757Y-73647041D01*
X132460175Y-73580995D01*
X132472150Y-73572150D01*
X132492185Y-73545025D01*
X132547041Y-73470757D01*
X132547042Y-73470754D01*
X132552634Y-73463184D01*
X132588957Y-73359751D01*
X132630399Y-73302107D01*
X132696428Y-73276018D01*
X132707839Y-73275500D01*
X134308688Y-73275500D01*
X134376809Y-73295502D01*
X134419107Y-73346564D01*
X134421280Y-73345428D01*
X134516726Y-73527998D01*
X134520586Y-73532799D01*
X134520588Y-73532802D01*
X134630745Y-73669810D01*
X134645815Y-73688553D01*
X134803630Y-73820976D01*
X134809031Y-73823945D01*
X134809041Y-73823952D01*
X134866585Y-73855587D01*
X134916644Y-73905932D01*
X134931537Y-73975349D01*
X134906536Y-74041798D01*
X134849579Y-74084182D01*
X134805884Y-74092001D01*
X134752905Y-74092001D01*
X134746386Y-74092338D01*
X134650794Y-74102257D01*
X134637400Y-74105149D01*
X134483216Y-74156588D01*
X134470038Y-74162761D01*
X134332193Y-74248063D01*
X134320792Y-74257099D01*
X134206261Y-74371829D01*
X134197249Y-74383240D01*
X134112184Y-74521243D01*
X134106037Y-74534424D01*
X134054862Y-74688710D01*
X134051995Y-74702086D01*
X134042328Y-74796438D01*
X134042000Y-74802855D01*
X134042000Y-75177885D01*
X134046475Y-75193124D01*
X134047865Y-75194329D01*
X134055548Y-75196000D01*
X137039884Y-75196000D01*
X137055123Y-75191525D01*
X137056328Y-75190135D01*
X137057999Y-75182452D01*
X137057999Y-74802905D01*
X137057662Y-74796386D01*
X137047743Y-74700794D01*
X137044851Y-74687400D01*
X136993412Y-74533216D01*
X136987239Y-74520038D01*
X136901937Y-74382193D01*
X136892901Y-74370792D01*
X136778171Y-74256261D01*
X136766760Y-74247249D01*
X136628757Y-74162184D01*
X136615576Y-74156037D01*
X136461290Y-74104862D01*
X136447914Y-74101995D01*
X136353562Y-74092328D01*
X136347145Y-74092000D01*
X136295289Y-74092000D01*
X136227168Y-74071998D01*
X136180675Y-74018342D01*
X136170571Y-73948068D01*
X136200065Y-73883488D01*
X136236136Y-73854749D01*
X136278702Y-73832116D01*
X136278708Y-73832112D01*
X136284151Y-73829218D01*
X136374918Y-73755190D01*
X136439025Y-73702906D01*
X136439030Y-73702901D01*
X136443800Y-73699011D01*
X136455120Y-73685328D01*
X136571189Y-73545025D01*
X136571191Y-73545021D01*
X136575118Y-73540275D01*
X136673103Y-73359055D01*
X136734023Y-73162254D01*
X136740104Y-73104396D01*
X136754913Y-72963498D01*
X136754913Y-72963496D01*
X136755557Y-72957369D01*
X136740141Y-72787973D01*
X136737445Y-72758342D01*
X136737444Y-72758339D01*
X136736886Y-72752203D01*
X136678720Y-72554572D01*
X136671231Y-72540246D01*
X136586131Y-72377467D01*
X136583274Y-72372002D01*
X136577785Y-72365174D01*
X136458050Y-72216254D01*
X136458050Y-72216253D01*
X136454185Y-72211447D01*
X136296370Y-72079024D01*
X136290972Y-72076056D01*
X136290967Y-72076053D01*
X136121235Y-71982743D01*
X136115838Y-71979776D01*
X135919468Y-71917484D01*
X135913351Y-71916798D01*
X135913347Y-71916797D01*
X135837126Y-71908248D01*
X135759136Y-71899500D01*
X135348159Y-71899500D01*
X135194970Y-71914520D01*
X134997749Y-71974065D01*
X134815849Y-72070782D01*
X134749305Y-72125054D01*
X134660975Y-72197094D01*
X134660972Y-72197097D01*
X134656200Y-72200989D01*
X134652273Y-72205736D01*
X134652271Y-72205738D01*
X134528811Y-72354975D01*
X134528809Y-72354979D01*
X134524882Y-72359725D01*
X134426897Y-72540945D01*
X134425074Y-72546833D01*
X134424868Y-72547324D01*
X134380033Y-72602372D01*
X134308712Y-72624500D01*
X132681501Y-72624500D01*
X132613380Y-72604498D01*
X132566887Y-72550842D01*
X132562618Y-72540246D01*
X132555755Y-72520702D01*
X132555753Y-72520699D01*
X132552634Y-72511816D01*
X132547042Y-72504246D01*
X132547041Y-72504243D01*
X132477742Y-72410421D01*
X132472150Y-72402850D01*
X132448640Y-72385485D01*
X132370757Y-72327959D01*
X132370754Y-72327958D01*
X132363184Y-72322366D01*
X132235369Y-72277481D01*
X132227723Y-72276758D01*
X132227722Y-72276758D01*
X132219702Y-72276000D01*
X132203834Y-72274500D01*
X131196166Y-72274500D01*
X131180298Y-72276000D01*
X131172278Y-72276758D01*
X131172277Y-72276758D01*
X131164631Y-72277481D01*
X131036816Y-72322366D01*
X131029246Y-72327957D01*
X131029239Y-72327961D01*
X130951359Y-72385485D01*
X130884681Y-72409868D01*
X130815405Y-72394331D01*
X130765527Y-72343808D01*
X130750500Y-72284134D01*
X130750500Y-70134220D01*
X130751373Y-70119411D01*
X130754257Y-70095043D01*
X130755364Y-70085690D01*
X130751788Y-70066108D01*
X130744828Y-70027999D01*
X130744178Y-70024096D01*
X130736850Y-69975355D01*
X130736850Y-69975354D01*
X130735449Y-69966038D01*
X130732321Y-69959525D01*
X130731025Y-69952427D01*
X130703975Y-69900353D01*
X130702225Y-69896850D01*
X130696174Y-69884249D01*
X130676809Y-69843921D01*
X130671923Y-69838635D01*
X130671890Y-69838587D01*
X130668579Y-69832212D01*
X130664275Y-69827172D01*
X130627048Y-69789945D01*
X130623618Y-69786379D01*
X130591246Y-69751359D01*
X130584854Y-69744444D01*
X130578495Y-69740751D01*
X130572337Y-69735234D01*
X129881851Y-69044748D01*
X133649500Y-69044748D01*
X133650707Y-69050816D01*
X133653719Y-69065956D01*
X133661133Y-69103231D01*
X133705448Y-69169552D01*
X133771769Y-69213867D01*
X133783938Y-69216288D01*
X133783939Y-69216288D01*
X133816266Y-69222718D01*
X133830252Y-69225500D01*
X135569748Y-69225500D01*
X135583734Y-69222718D01*
X135616061Y-69216288D01*
X135616062Y-69216288D01*
X135628231Y-69213867D01*
X135694552Y-69169552D01*
X135738867Y-69103231D01*
X135746282Y-69065956D01*
X135749293Y-69050816D01*
X135750500Y-69044748D01*
X135750500Y-67305252D01*
X135738867Y-67246769D01*
X135694552Y-67180448D01*
X135628231Y-67136133D01*
X135616062Y-67133712D01*
X135616061Y-67133712D01*
X135575816Y-67125707D01*
X135569748Y-67124500D01*
X133830252Y-67124500D01*
X133824184Y-67125707D01*
X133783939Y-67133712D01*
X133783938Y-67133712D01*
X133771769Y-67136133D01*
X133705448Y-67180448D01*
X133661133Y-67246769D01*
X133649500Y-67305252D01*
X133649500Y-69044748D01*
X129881851Y-69044748D01*
X129432448Y-68595345D01*
X129398422Y-68533033D01*
X129403487Y-68462218D01*
X129432448Y-68417155D01*
X129612198Y-68237405D01*
X129674510Y-68203379D01*
X129701293Y-68200500D01*
X130228834Y-68200500D01*
X130246752Y-68198806D01*
X130252722Y-68198242D01*
X130252723Y-68198242D01*
X130260369Y-68197519D01*
X130388184Y-68152634D01*
X130395754Y-68147042D01*
X130395757Y-68147041D01*
X130489579Y-68077742D01*
X130497150Y-68072150D01*
X130515243Y-68047654D01*
X130572041Y-67970757D01*
X130572042Y-67970754D01*
X130577634Y-67963184D01*
X130622519Y-67835369D01*
X130625500Y-67803834D01*
X130625500Y-66796166D01*
X130622519Y-66764631D01*
X130577634Y-66636816D01*
X130572042Y-66629246D01*
X130572041Y-66629243D01*
X130502742Y-66535421D01*
X130497150Y-66527850D01*
X130413089Y-66465761D01*
X130395757Y-66452959D01*
X130395754Y-66452958D01*
X130388184Y-66447366D01*
X130260369Y-66402481D01*
X130252723Y-66401758D01*
X130252722Y-66401758D01*
X130246752Y-66401194D01*
X130228834Y-66399500D01*
X129596166Y-66399500D01*
X129578248Y-66401194D01*
X129572278Y-66401758D01*
X129572277Y-66401758D01*
X129564631Y-66402481D01*
X129436816Y-66447366D01*
X129429246Y-66452958D01*
X129429243Y-66452959D01*
X129411911Y-66465761D01*
X129327850Y-66527850D01*
X129322258Y-66535421D01*
X129252959Y-66629243D01*
X129252958Y-66629246D01*
X129247366Y-66636816D01*
X129202481Y-66764631D01*
X129199500Y-66796166D01*
X129199500Y-67323707D01*
X129179498Y-67391828D01*
X129162595Y-67412802D01*
X129015595Y-67559802D01*
X128953283Y-67593828D01*
X128882468Y-67588763D01*
X128825632Y-67546216D01*
X128800821Y-67479696D01*
X128800500Y-67470707D01*
X128800500Y-66796166D01*
X128797519Y-66764631D01*
X128752634Y-66636816D01*
X128747042Y-66629246D01*
X128747041Y-66629243D01*
X128677742Y-66535421D01*
X128672150Y-66527850D01*
X128588089Y-66465761D01*
X128570757Y-66452959D01*
X128570754Y-66452958D01*
X128563184Y-66447366D01*
X128459751Y-66411043D01*
X128402107Y-66369601D01*
X128376018Y-66303572D01*
X128375500Y-66292161D01*
X128375500Y-64691312D01*
X128395502Y-64623191D01*
X128446564Y-64580893D01*
X128445428Y-64578720D01*
X128622533Y-64486131D01*
X128627998Y-64483274D01*
X128632799Y-64479414D01*
X128632802Y-64479412D01*
X128783746Y-64358050D01*
X128783747Y-64358050D01*
X128788553Y-64354185D01*
X128920976Y-64196370D01*
X128923945Y-64190969D01*
X128923952Y-64190959D01*
X128955587Y-64133415D01*
X129005932Y-64083356D01*
X129075349Y-64068463D01*
X129141798Y-64093464D01*
X129184182Y-64150421D01*
X129192001Y-64194116D01*
X129192001Y-64247095D01*
X129192338Y-64253614D01*
X129202257Y-64349206D01*
X129205149Y-64362600D01*
X129256588Y-64516784D01*
X129262761Y-64529962D01*
X129348063Y-64667807D01*
X129357099Y-64679208D01*
X129471829Y-64793739D01*
X129483240Y-64802751D01*
X129621243Y-64887816D01*
X129634424Y-64893963D01*
X129788710Y-64945138D01*
X129802086Y-64948005D01*
X129896438Y-64957672D01*
X129902854Y-64958000D01*
X130277885Y-64958000D01*
X130293124Y-64953525D01*
X130294329Y-64952135D01*
X130296000Y-64944452D01*
X130296000Y-64939884D01*
X130804000Y-64939884D01*
X130808475Y-64955123D01*
X130809865Y-64956328D01*
X130817548Y-64957999D01*
X131197095Y-64957999D01*
X131203614Y-64957662D01*
X131299206Y-64947743D01*
X131312600Y-64944851D01*
X131466784Y-64893412D01*
X131479962Y-64887239D01*
X131617807Y-64801937D01*
X131629208Y-64792901D01*
X131743739Y-64678171D01*
X131752751Y-64666760D01*
X131837816Y-64528757D01*
X131843963Y-64515576D01*
X131895138Y-64361290D01*
X131898005Y-64347914D01*
X131907672Y-64253562D01*
X131908000Y-64247146D01*
X131908000Y-63722115D01*
X131903525Y-63706876D01*
X131902135Y-63705671D01*
X131894452Y-63704000D01*
X130822115Y-63704000D01*
X130806876Y-63708475D01*
X130805671Y-63709865D01*
X130804000Y-63717548D01*
X130804000Y-64939884D01*
X130296000Y-64939884D01*
X130296000Y-63177885D01*
X130804000Y-63177885D01*
X130808475Y-63193124D01*
X130809865Y-63194329D01*
X130817548Y-63196000D01*
X131889884Y-63196000D01*
X131905123Y-63191525D01*
X131906328Y-63190135D01*
X131907999Y-63182452D01*
X131907999Y-62652905D01*
X131907662Y-62646386D01*
X131897743Y-62550794D01*
X131894851Y-62537400D01*
X131843412Y-62383216D01*
X131837239Y-62370038D01*
X131751937Y-62232193D01*
X131742901Y-62220792D01*
X131628171Y-62106261D01*
X131616760Y-62097249D01*
X131478757Y-62012184D01*
X131465576Y-62006037D01*
X131311290Y-61954862D01*
X131297914Y-61951995D01*
X131203562Y-61942328D01*
X131197145Y-61942000D01*
X130822115Y-61942000D01*
X130806876Y-61946475D01*
X130805671Y-61947865D01*
X130804000Y-61955548D01*
X130804000Y-63177885D01*
X130296000Y-63177885D01*
X130296000Y-61960116D01*
X130291525Y-61944877D01*
X130290135Y-61943672D01*
X130282452Y-61942001D01*
X129902905Y-61942001D01*
X129896386Y-61942338D01*
X129800794Y-61952257D01*
X129787400Y-61955149D01*
X129633216Y-62006588D01*
X129620038Y-62012761D01*
X129482193Y-62098063D01*
X129470792Y-62107099D01*
X129356261Y-62221829D01*
X129347249Y-62233240D01*
X129262184Y-62371243D01*
X129256037Y-62384424D01*
X129204862Y-62538710D01*
X129201995Y-62552086D01*
X129192328Y-62646438D01*
X129192000Y-62652855D01*
X129192000Y-62704711D01*
X129171998Y-62772832D01*
X129118342Y-62819325D01*
X129048068Y-62829429D01*
X128983488Y-62799935D01*
X128954749Y-62763864D01*
X128932116Y-62721298D01*
X128932112Y-62721292D01*
X128929218Y-62715849D01*
X128855859Y-62625902D01*
X128802906Y-62560975D01*
X128802903Y-62560972D01*
X128799011Y-62556200D01*
X128794038Y-62552086D01*
X128645025Y-62428811D01*
X128645021Y-62428809D01*
X128640275Y-62424882D01*
X128459055Y-62326897D01*
X128262254Y-62265977D01*
X128256129Y-62265333D01*
X128256128Y-62265333D01*
X128063498Y-62245087D01*
X128063496Y-62245087D01*
X128057369Y-62244443D01*
X127970529Y-62252346D01*
X127858342Y-62262555D01*
X127858339Y-62262556D01*
X127852203Y-62263114D01*
X127654572Y-62321280D01*
X127472002Y-62416726D01*
X127467201Y-62420586D01*
X127467198Y-62420588D01*
X127456971Y-62428811D01*
X127311447Y-62545815D01*
X127179024Y-62703630D01*
X127176056Y-62709028D01*
X127176053Y-62709033D01*
X127082743Y-62878765D01*
X127079776Y-62884162D01*
X127017484Y-63080532D01*
X127016798Y-63086649D01*
X127016797Y-63086653D01*
X127008248Y-63162874D01*
X126999500Y-63240864D01*
X126999500Y-63651841D01*
X127014520Y-63805030D01*
X127074065Y-64002251D01*
X127170782Y-64184151D01*
X127227435Y-64253614D01*
X127297094Y-64339025D01*
X127297097Y-64339028D01*
X127300989Y-64343800D01*
X127305736Y-64347727D01*
X127305738Y-64347729D01*
X127454975Y-64471189D01*
X127454979Y-64471191D01*
X127459725Y-64475118D01*
X127640945Y-64573103D01*
X127646833Y-64574926D01*
X127647324Y-64575132D01*
X127702372Y-64619967D01*
X127724500Y-64691288D01*
X127724500Y-66318499D01*
X127704498Y-66386620D01*
X127650842Y-66433113D01*
X127640246Y-66437382D01*
X127620702Y-66444245D01*
X127620699Y-66444247D01*
X127611816Y-66447366D01*
X127604246Y-66452958D01*
X127604243Y-66452959D01*
X127586911Y-66465761D01*
X127502850Y-66527850D01*
X127497258Y-66535421D01*
X127427959Y-66629243D01*
X127427958Y-66629246D01*
X127422366Y-66636816D01*
X127377481Y-66764631D01*
X127374500Y-66796166D01*
X127374500Y-67633207D01*
X127354498Y-67701328D01*
X127300842Y-67747821D01*
X127230568Y-67757925D01*
X127165988Y-67728431D01*
X127159405Y-67722302D01*
X126442753Y-67005650D01*
X126432899Y-66994561D01*
X126417707Y-66975291D01*
X126417705Y-66975289D01*
X126411872Y-66967890D01*
X126404125Y-66962535D01*
X126404123Y-66962534D01*
X126363625Y-66934545D01*
X126360403Y-66932243D01*
X126320758Y-66902960D01*
X126320757Y-66902959D01*
X126313184Y-66897366D01*
X126306368Y-66894973D01*
X126300431Y-66890869D01*
X126291451Y-66888029D01*
X126291449Y-66888028D01*
X126271283Y-66881650D01*
X126244481Y-66873174D01*
X126240750Y-66871929D01*
X126194263Y-66855604D01*
X126194261Y-66855604D01*
X126185369Y-66852481D01*
X126178181Y-66852199D01*
X126178122Y-66852188D01*
X126171270Y-66850020D01*
X126164663Y-66849500D01*
X126111984Y-66849500D01*
X126107037Y-66849403D01*
X126050006Y-66847162D01*
X126042900Y-66849046D01*
X126034653Y-66849500D01*
X122341537Y-66849500D01*
X122273416Y-66829498D01*
X122226923Y-66775842D01*
X122223114Y-66764422D01*
X122222519Y-66764631D01*
X122180753Y-66645699D01*
X122177634Y-66636816D01*
X122172042Y-66629246D01*
X122172041Y-66629243D01*
X122102742Y-66535421D01*
X122097150Y-66527850D01*
X122013089Y-66465761D01*
X121995757Y-66452959D01*
X121995754Y-66452958D01*
X121988184Y-66447366D01*
X121860369Y-66402481D01*
X121852723Y-66401758D01*
X121852722Y-66401758D01*
X121846752Y-66401194D01*
X121828834Y-66399500D01*
X121196166Y-66399500D01*
X121178248Y-66401194D01*
X121172278Y-66401758D01*
X121172277Y-66401758D01*
X121164631Y-66402481D01*
X121036816Y-66447366D01*
X121029246Y-66452958D01*
X121029243Y-66452959D01*
X121011911Y-66465761D01*
X120927850Y-66527850D01*
X120922258Y-66535421D01*
X120852959Y-66629243D01*
X120852958Y-66629246D01*
X120847366Y-66636816D01*
X120802481Y-66764631D01*
X120799500Y-66796166D01*
X120799500Y-67311207D01*
X120779498Y-67379328D01*
X120762595Y-67400302D01*
X120615595Y-67547302D01*
X120553283Y-67581328D01*
X120482468Y-67576263D01*
X120425632Y-67533716D01*
X120400821Y-67467196D01*
X120400500Y-67458207D01*
X120400500Y-66796166D01*
X120397519Y-66764631D01*
X120352634Y-66636816D01*
X120347042Y-66629246D01*
X120347041Y-66629243D01*
X120277742Y-66535421D01*
X120272150Y-66527850D01*
X120188089Y-66465761D01*
X120170757Y-66452959D01*
X120170754Y-66452958D01*
X120163184Y-66447366D01*
X120102872Y-66426186D01*
X120042612Y-66405024D01*
X120042608Y-66405023D01*
X120035369Y-66402481D01*
X120027725Y-66401758D01*
X120024500Y-66401051D01*
X119962247Y-66366916D01*
X119928332Y-66304544D01*
X119925500Y-66277978D01*
X119925500Y-64691312D01*
X119945502Y-64623191D01*
X119996564Y-64580893D01*
X119995428Y-64578720D01*
X120172533Y-64486131D01*
X120177998Y-64483274D01*
X120182799Y-64479414D01*
X120182802Y-64479412D01*
X120333746Y-64358050D01*
X120333747Y-64358050D01*
X120338553Y-64354185D01*
X120470976Y-64196370D01*
X120473945Y-64190969D01*
X120473952Y-64190959D01*
X120505587Y-64133415D01*
X120555932Y-64083356D01*
X120625349Y-64068463D01*
X120691798Y-64093464D01*
X120734182Y-64150421D01*
X120742001Y-64194116D01*
X120742001Y-64247095D01*
X120742338Y-64253614D01*
X120752257Y-64349206D01*
X120755149Y-64362600D01*
X120806588Y-64516784D01*
X120812761Y-64529962D01*
X120898063Y-64667807D01*
X120907099Y-64679208D01*
X121021829Y-64793739D01*
X121033240Y-64802751D01*
X121171243Y-64887816D01*
X121184424Y-64893963D01*
X121338710Y-64945138D01*
X121352086Y-64948005D01*
X121446438Y-64957672D01*
X121452854Y-64958000D01*
X121827885Y-64958000D01*
X121843124Y-64953525D01*
X121844329Y-64952135D01*
X121846000Y-64944452D01*
X121846000Y-64939884D01*
X122354000Y-64939884D01*
X122358475Y-64955123D01*
X122359865Y-64956328D01*
X122367548Y-64957999D01*
X122747095Y-64957999D01*
X122753614Y-64957662D01*
X122849206Y-64947743D01*
X122862600Y-64944851D01*
X123016784Y-64893412D01*
X123029962Y-64887239D01*
X123167807Y-64801937D01*
X123179208Y-64792901D01*
X123293739Y-64678171D01*
X123302751Y-64666760D01*
X123387816Y-64528757D01*
X123393963Y-64515576D01*
X123445138Y-64361290D01*
X123448005Y-64347914D01*
X123457672Y-64253562D01*
X123458000Y-64247146D01*
X123458000Y-63722115D01*
X123453525Y-63706876D01*
X123452135Y-63705671D01*
X123444452Y-63704000D01*
X122372115Y-63704000D01*
X122356876Y-63708475D01*
X122355671Y-63709865D01*
X122354000Y-63717548D01*
X122354000Y-64939884D01*
X121846000Y-64939884D01*
X121846000Y-63177885D01*
X122354000Y-63177885D01*
X122358475Y-63193124D01*
X122359865Y-63194329D01*
X122367548Y-63196000D01*
X123439884Y-63196000D01*
X123455123Y-63191525D01*
X123456328Y-63190135D01*
X123457999Y-63182452D01*
X123457999Y-62652905D01*
X123457662Y-62646386D01*
X123447743Y-62550794D01*
X123444851Y-62537400D01*
X123393412Y-62383216D01*
X123387239Y-62370038D01*
X123301937Y-62232193D01*
X123292901Y-62220792D01*
X123178171Y-62106261D01*
X123166760Y-62097249D01*
X123028757Y-62012184D01*
X123015576Y-62006037D01*
X122861290Y-61954862D01*
X122847914Y-61951995D01*
X122753562Y-61942328D01*
X122747145Y-61942000D01*
X122372115Y-61942000D01*
X122356876Y-61946475D01*
X122355671Y-61947865D01*
X122354000Y-61955548D01*
X122354000Y-63177885D01*
X121846000Y-63177885D01*
X121846000Y-61960116D01*
X121841525Y-61944877D01*
X121840135Y-61943672D01*
X121832452Y-61942001D01*
X121452905Y-61942001D01*
X121446386Y-61942338D01*
X121350794Y-61952257D01*
X121337400Y-61955149D01*
X121183216Y-62006588D01*
X121170038Y-62012761D01*
X121032193Y-62098063D01*
X121020792Y-62107099D01*
X120906261Y-62221829D01*
X120897249Y-62233240D01*
X120812184Y-62371243D01*
X120806037Y-62384424D01*
X120754862Y-62538710D01*
X120751995Y-62552086D01*
X120742328Y-62646438D01*
X120742000Y-62652855D01*
X120742000Y-62704711D01*
X120721998Y-62772832D01*
X120668342Y-62819325D01*
X120598068Y-62829429D01*
X120533488Y-62799935D01*
X120504749Y-62763864D01*
X120482116Y-62721298D01*
X120482112Y-62721292D01*
X120479218Y-62715849D01*
X120405859Y-62625902D01*
X120352906Y-62560975D01*
X120352903Y-62560972D01*
X120349011Y-62556200D01*
X120344038Y-62552086D01*
X120195025Y-62428811D01*
X120195021Y-62428809D01*
X120190275Y-62424882D01*
X120009055Y-62326897D01*
X119812254Y-62265977D01*
X119806129Y-62265333D01*
X119806128Y-62265333D01*
X119613498Y-62245087D01*
X119613496Y-62245087D01*
X119607369Y-62244443D01*
X119520529Y-62252346D01*
X119408342Y-62262555D01*
X119408339Y-62262556D01*
X119402203Y-62263114D01*
X119204572Y-62321280D01*
X119022002Y-62416726D01*
X119017201Y-62420586D01*
X119017198Y-62420588D01*
X119006971Y-62428811D01*
X118861447Y-62545815D01*
X118729024Y-62703630D01*
X118726056Y-62709028D01*
X118726053Y-62709033D01*
X118632743Y-62878765D01*
X118629776Y-62884162D01*
X118567484Y-63080532D01*
X118566798Y-63086649D01*
X118566797Y-63086653D01*
X118558248Y-63162874D01*
X118549500Y-63240864D01*
X118549500Y-63651841D01*
X118556390Y-63722115D01*
X118560272Y-63761705D01*
X118547012Y-63831452D01*
X118498150Y-63882959D01*
X118434873Y-63900000D01*
X115134000Y-63900000D01*
X115065879Y-63879998D01*
X115019386Y-63826342D01*
X115008000Y-63774000D01*
X115008000Y-63722115D01*
X115003525Y-63706876D01*
X115002135Y-63705671D01*
X114994452Y-63704000D01*
X113522000Y-63704000D01*
X113453879Y-63683998D01*
X113407386Y-63630342D01*
X113396000Y-63578000D01*
X113396000Y-63177885D01*
X113904000Y-63177885D01*
X113908475Y-63193124D01*
X113909865Y-63194329D01*
X113917548Y-63196000D01*
X114989884Y-63196000D01*
X115005123Y-63191525D01*
X115006328Y-63190135D01*
X115007999Y-63182452D01*
X115007999Y-62652905D01*
X115007662Y-62646386D01*
X114997743Y-62550794D01*
X114994851Y-62537400D01*
X114943412Y-62383216D01*
X114937239Y-62370038D01*
X114851937Y-62232193D01*
X114842901Y-62220792D01*
X114728171Y-62106261D01*
X114716760Y-62097249D01*
X114578757Y-62012184D01*
X114565576Y-62006037D01*
X114411290Y-61954862D01*
X114397914Y-61951995D01*
X114303562Y-61942328D01*
X114297145Y-61942000D01*
X113922115Y-61942000D01*
X113906876Y-61946475D01*
X113905671Y-61947865D01*
X113904000Y-61955548D01*
X113904000Y-63177885D01*
X113396000Y-63177885D01*
X113396000Y-61960116D01*
X113391525Y-61944877D01*
X113390135Y-61943672D01*
X113382452Y-61942001D01*
X113002905Y-61942001D01*
X112996386Y-61942338D01*
X112900794Y-61952257D01*
X112887400Y-61955149D01*
X112733216Y-62006588D01*
X112720038Y-62012761D01*
X112582193Y-62098063D01*
X112570792Y-62107099D01*
X112456261Y-62221829D01*
X112447249Y-62233240D01*
X112362184Y-62371243D01*
X112356037Y-62384424D01*
X112304862Y-62538710D01*
X112301995Y-62552086D01*
X112292328Y-62646438D01*
X112292000Y-62652855D01*
X112292000Y-62704711D01*
X112271998Y-62772832D01*
X112218342Y-62819325D01*
X112148068Y-62829429D01*
X112083488Y-62799935D01*
X112054749Y-62763864D01*
X112032116Y-62721298D01*
X112032112Y-62721292D01*
X112029218Y-62715849D01*
X111955859Y-62625902D01*
X111902906Y-62560975D01*
X111902903Y-62560972D01*
X111899011Y-62556200D01*
X111894038Y-62552086D01*
X111745025Y-62428811D01*
X111745021Y-62428809D01*
X111740275Y-62424882D01*
X111559055Y-62326897D01*
X111362254Y-62265977D01*
X111356129Y-62265333D01*
X111356128Y-62265333D01*
X111163498Y-62245087D01*
X111163496Y-62245087D01*
X111157369Y-62244443D01*
X111070529Y-62252346D01*
X110958342Y-62262555D01*
X110958339Y-62262556D01*
X110952203Y-62263114D01*
X110754572Y-62321280D01*
X110572002Y-62416726D01*
X110567201Y-62420586D01*
X110567198Y-62420588D01*
X110556971Y-62428811D01*
X110411447Y-62545815D01*
X110279024Y-62703630D01*
X110276056Y-62709028D01*
X110276053Y-62709033D01*
X110182743Y-62878765D01*
X110179776Y-62884162D01*
X110117484Y-63080532D01*
X110116798Y-63086649D01*
X110116797Y-63086653D01*
X110108248Y-63162874D01*
X110099500Y-63240864D01*
X110099500Y-63651841D01*
X110114520Y-63805030D01*
X110174065Y-64002251D01*
X110270782Y-64184151D01*
X110327435Y-64253614D01*
X110397094Y-64339025D01*
X110397097Y-64339028D01*
X110400989Y-64343800D01*
X110405736Y-64347727D01*
X110405738Y-64347729D01*
X110554975Y-64471189D01*
X110554979Y-64471191D01*
X110559725Y-64475118D01*
X110740945Y-64573103D01*
X110746833Y-64574926D01*
X110747324Y-64575132D01*
X110802372Y-64619967D01*
X110824500Y-64691288D01*
X110824500Y-66318499D01*
X110804498Y-66386620D01*
X110750842Y-66433113D01*
X110740246Y-66437382D01*
X110720702Y-66444245D01*
X110720699Y-66444247D01*
X110711816Y-66447366D01*
X110704246Y-66452958D01*
X110704243Y-66452959D01*
X110686911Y-66465761D01*
X110602850Y-66527850D01*
X110597258Y-66535421D01*
X110527959Y-66629243D01*
X110527958Y-66629246D01*
X110522366Y-66636816D01*
X110477481Y-66764631D01*
X110474500Y-66796166D01*
X110474500Y-67803834D01*
X110477481Y-67835369D01*
X110522366Y-67963184D01*
X110527958Y-67970754D01*
X110527959Y-67970757D01*
X110584757Y-68047654D01*
X110602850Y-68072150D01*
X110610421Y-68077742D01*
X110704243Y-68147041D01*
X110704246Y-68147042D01*
X110711816Y-68152634D01*
X110839631Y-68197519D01*
X110847277Y-68198242D01*
X110847278Y-68198242D01*
X110853248Y-68198806D01*
X110871166Y-68200500D01*
X111274000Y-68200500D01*
X111342121Y-68220502D01*
X111388614Y-68274158D01*
X111400000Y-68326500D01*
X111400000Y-68498500D01*
X111379998Y-68566621D01*
X111326342Y-68613114D01*
X111274000Y-68624500D01*
X111166512Y-68624500D01*
X111106149Y-68634060D01*
X111076665Y-68638730D01*
X111076663Y-68638731D01*
X111066874Y-68640281D01*
X110946780Y-68701472D01*
X110851472Y-68796780D01*
X110790281Y-68916874D01*
X110788731Y-68926663D01*
X110788730Y-68926665D01*
X110784955Y-68950500D01*
X110774500Y-69016512D01*
X110774500Y-69583488D01*
X110783896Y-69642812D01*
X110786490Y-69659188D01*
X110790281Y-69683126D01*
X110851472Y-69803220D01*
X110946780Y-69898528D01*
X110993487Y-69922326D01*
X111005703Y-69928551D01*
X111057318Y-69977300D01*
X111074500Y-70040818D01*
X111074500Y-72480290D01*
X111074020Y-72491272D01*
X111072223Y-72511816D01*
X111070736Y-72528807D01*
X111080491Y-72565210D01*
X111082870Y-72575942D01*
X111083462Y-72579301D01*
X111089412Y-72613045D01*
X111094923Y-72622590D01*
X111096115Y-72625866D01*
X111097592Y-72629034D01*
X111100446Y-72639684D01*
X111106770Y-72648715D01*
X111122055Y-72670544D01*
X111127961Y-72679815D01*
X111134193Y-72690608D01*
X111146806Y-72712455D01*
X111155251Y-72719541D01*
X111175682Y-72736685D01*
X111183785Y-72744111D01*
X112379590Y-73939916D01*
X112413616Y-74002228D01*
X112415417Y-74045456D01*
X112406617Y-74112299D01*
X112427255Y-74269061D01*
X112487763Y-74415140D01*
X112584017Y-74540581D01*
X112709458Y-74636835D01*
X112855537Y-74697343D01*
X113012299Y-74717981D01*
X113020487Y-74716903D01*
X113160873Y-74698421D01*
X113169061Y-74697343D01*
X113315140Y-74636835D01*
X113440581Y-74540581D01*
X113536835Y-74415140D01*
X113597343Y-74269061D01*
X113617981Y-74112299D01*
X113597343Y-73955537D01*
X113536835Y-73809458D01*
X113440581Y-73684017D01*
X113315140Y-73587763D01*
X113169061Y-73527255D01*
X113012299Y-73506617D01*
X112945456Y-73515417D01*
X112875309Y-73504478D01*
X112839916Y-73479590D01*
X111762405Y-72402079D01*
X111728379Y-72339767D01*
X111725500Y-72312984D01*
X111725500Y-70066294D01*
X111745502Y-69998173D01*
X111794297Y-69954027D01*
X111802244Y-69949978D01*
X111903220Y-69898528D01*
X111964843Y-69836905D01*
X112027155Y-69802879D01*
X112053938Y-69800000D01*
X112346062Y-69800000D01*
X112414183Y-69820002D01*
X112435157Y-69836905D01*
X112496780Y-69898528D01*
X112616874Y-69959719D01*
X112626663Y-69961269D01*
X112626665Y-69961270D01*
X112656083Y-69965929D01*
X112716512Y-69975500D01*
X113233488Y-69975500D01*
X113293917Y-69965929D01*
X113323335Y-69961270D01*
X113323337Y-69961269D01*
X113333126Y-69959719D01*
X113453220Y-69898528D01*
X113514843Y-69836905D01*
X113577155Y-69802879D01*
X113603938Y-69800000D01*
X113775764Y-69800000D01*
X113843885Y-69820002D01*
X113890378Y-69873658D01*
X113894646Y-69884249D01*
X113922366Y-69963184D01*
X113927958Y-69970754D01*
X113927959Y-69970757D01*
X113967521Y-70024319D01*
X114002850Y-70072150D01*
X114010421Y-70077742D01*
X114104243Y-70147041D01*
X114104246Y-70147042D01*
X114111816Y-70152634D01*
X114120699Y-70155753D01*
X114120700Y-70155754D01*
X114139543Y-70162371D01*
X114197189Y-70203813D01*
X114223278Y-70269843D01*
X114209528Y-70339495D01*
X114174500Y-70381217D01*
X114142617Y-70405682D01*
X114121718Y-70421718D01*
X114025464Y-70547159D01*
X113964956Y-70693238D01*
X113944318Y-70850000D01*
X113964956Y-71006762D01*
X114025464Y-71152841D01*
X114121718Y-71278282D01*
X114247159Y-71374536D01*
X114393238Y-71435044D01*
X114550000Y-71455682D01*
X114558188Y-71454604D01*
X114698574Y-71436122D01*
X114706762Y-71435044D01*
X114852841Y-71374536D01*
X114978282Y-71278282D01*
X115019323Y-71224796D01*
X115076661Y-71182929D01*
X115119286Y-71175500D01*
X115137284Y-71175500D01*
X115205405Y-71195502D01*
X115251898Y-71249158D01*
X115262002Y-71319432D01*
X115253693Y-71349718D01*
X115244526Y-71371851D01*
X115214956Y-71443238D01*
X115194318Y-71600000D01*
X115195396Y-71608188D01*
X115213584Y-71746337D01*
X115214956Y-71756762D01*
X115275464Y-71902841D01*
X115304942Y-71941257D01*
X115361688Y-72015210D01*
X115371718Y-72028282D01*
X115497159Y-72124536D01*
X115643238Y-72185044D01*
X115800000Y-72205682D01*
X115808188Y-72204604D01*
X115948574Y-72186122D01*
X115956762Y-72185044D01*
X116102841Y-72124536D01*
X116228282Y-72028282D01*
X116238313Y-72015210D01*
X116269323Y-71974796D01*
X116326661Y-71932929D01*
X116369286Y-71925500D01*
X118198500Y-71925500D01*
X118266621Y-71945502D01*
X118313114Y-71999158D01*
X118324500Y-72051500D01*
X118324500Y-73569748D01*
X118326137Y-73577977D01*
X118326033Y-73579131D01*
X118326314Y-73581979D01*
X118325774Y-73582032D01*
X118319810Y-73648689D01*
X118276256Y-73704757D01*
X118209304Y-73728377D01*
X118177980Y-73726137D01*
X118169748Y-73724500D01*
X116530252Y-73724500D01*
X116524184Y-73725707D01*
X116483939Y-73733712D01*
X116483938Y-73733712D01*
X116471769Y-73736133D01*
X116461453Y-73743026D01*
X116452562Y-73748967D01*
X116405448Y-73780448D01*
X116361133Y-73846769D01*
X116358712Y-73858938D01*
X116358712Y-73858939D01*
X116356098Y-73872082D01*
X116349500Y-73905252D01*
X116349500Y-74494748D01*
X116350707Y-74500816D01*
X116358617Y-74540581D01*
X116361133Y-74553231D01*
X116363726Y-74557112D01*
X116370743Y-74622370D01*
X116365496Y-74640239D01*
X116361133Y-74646769D01*
X116349500Y-74705252D01*
X116349500Y-74977354D01*
X116329498Y-75045475D01*
X116299065Y-75078180D01*
X116194276Y-75156715D01*
X116181715Y-75169276D01*
X116105214Y-75271351D01*
X116096676Y-75286946D01*
X116051522Y-75407394D01*
X116047895Y-75422649D01*
X116042369Y-75473514D01*
X116042000Y-75480328D01*
X116042000Y-75527885D01*
X116046475Y-75543124D01*
X116047865Y-75544329D01*
X116055548Y-75546000D01*
X118639884Y-75546000D01*
X118655123Y-75541525D01*
X118656328Y-75540135D01*
X118657999Y-75532452D01*
X118657999Y-75480331D01*
X118657629Y-75473510D01*
X118652105Y-75422648D01*
X118648479Y-75407396D01*
X118603324Y-75286946D01*
X118594786Y-75271351D01*
X118518285Y-75169276D01*
X118505724Y-75156715D01*
X118400935Y-75078180D01*
X118358420Y-75021321D01*
X118350500Y-74977354D01*
X118350500Y-74705252D01*
X118338867Y-74646769D01*
X118336274Y-74642888D01*
X118329257Y-74577630D01*
X118334504Y-74559761D01*
X118338867Y-74553231D01*
X118341384Y-74540581D01*
X118349293Y-74500816D01*
X118350500Y-74494748D01*
X118350500Y-73905252D01*
X118348863Y-73897023D01*
X118348967Y-73895869D01*
X118348686Y-73893021D01*
X118349226Y-73892968D01*
X118355190Y-73826311D01*
X118398744Y-73770243D01*
X118465696Y-73746623D01*
X118497020Y-73748863D01*
X118505252Y-73750500D01*
X119094748Y-73750500D01*
X119153231Y-73738867D01*
X119157112Y-73736274D01*
X119222370Y-73729257D01*
X119240239Y-73734504D01*
X119246769Y-73738867D01*
X119305252Y-73750500D01*
X119894748Y-73750500D01*
X119953231Y-73738867D01*
X119957112Y-73736274D01*
X120022370Y-73729257D01*
X120040239Y-73734504D01*
X120046769Y-73738867D01*
X120105252Y-73750500D01*
X120694748Y-73750500D01*
X120753231Y-73738867D01*
X120757112Y-73736274D01*
X120822370Y-73729257D01*
X120840239Y-73734504D01*
X120846769Y-73738867D01*
X120905252Y-73750500D01*
X121494748Y-73750500D01*
X121553231Y-73738867D01*
X121557112Y-73736274D01*
X121622370Y-73729257D01*
X121640239Y-73734504D01*
X121646769Y-73738867D01*
X121705252Y-73750500D01*
X122294748Y-73750500D01*
X122353231Y-73738867D01*
X122357112Y-73736274D01*
X122422370Y-73729257D01*
X122440239Y-73734504D01*
X122446769Y-73738867D01*
X122505252Y-73750500D01*
X123094748Y-73750500D01*
X123153231Y-73738867D01*
X123157112Y-73736274D01*
X123222370Y-73729257D01*
X123240239Y-73734504D01*
X123246769Y-73738867D01*
X123305252Y-73750500D01*
X123894748Y-73750500D01*
X123953231Y-73738867D01*
X123957112Y-73736274D01*
X124022370Y-73729257D01*
X124040239Y-73734504D01*
X124046769Y-73738867D01*
X124105252Y-73750500D01*
X124694748Y-73750500D01*
X124702977Y-73748863D01*
X124704131Y-73748967D01*
X124706979Y-73748686D01*
X124707032Y-73749226D01*
X124773689Y-73755190D01*
X124829757Y-73798744D01*
X124853377Y-73865696D01*
X124851137Y-73897020D01*
X124849500Y-73905252D01*
X124849500Y-74494748D01*
X124850707Y-74500816D01*
X124858617Y-74540581D01*
X124861133Y-74553231D01*
X124863726Y-74557112D01*
X124870743Y-74622370D01*
X124865496Y-74640239D01*
X124861133Y-74646769D01*
X124849500Y-74705252D01*
X124849500Y-75294748D01*
X124861133Y-75353231D01*
X124863726Y-75357112D01*
X124870743Y-75422370D01*
X124865496Y-75440239D01*
X124861133Y-75446769D01*
X124849500Y-75505252D01*
X124849500Y-75777354D01*
X124829498Y-75845475D01*
X124799065Y-75878180D01*
X124694276Y-75956715D01*
X124681715Y-75969276D01*
X124605214Y-76071351D01*
X124596676Y-76086945D01*
X124551522Y-76207394D01*
X124547895Y-76222649D01*
X124542369Y-76273514D01*
X124542000Y-76280328D01*
X124542000Y-76327885D01*
X124546475Y-76343124D01*
X124547865Y-76344329D01*
X124555548Y-76346000D01*
X125978000Y-76346000D01*
X126046121Y-76366002D01*
X126092614Y-76419658D01*
X126104000Y-76472000D01*
X126104000Y-76728000D01*
X126083998Y-76796121D01*
X126030342Y-76842614D01*
X125978000Y-76854000D01*
X124560116Y-76854000D01*
X124544877Y-76858475D01*
X124543672Y-76859865D01*
X124542001Y-76867548D01*
X124542001Y-76919669D01*
X124542371Y-76926490D01*
X124547895Y-76977352D01*
X124551521Y-76992604D01*
X124596676Y-77113054D01*
X124605214Y-77128649D01*
X124681715Y-77230724D01*
X124694276Y-77243285D01*
X124799065Y-77321820D01*
X124841580Y-77378679D01*
X124849500Y-77422646D01*
X124849500Y-77694748D01*
X124861133Y-77753231D01*
X124863726Y-77757112D01*
X124870743Y-77822370D01*
X124865496Y-77840239D01*
X124861133Y-77846769D01*
X124849500Y-77905252D01*
X124849500Y-78423500D01*
X124829498Y-78491621D01*
X124775842Y-78538114D01*
X124723500Y-78549500D01*
X122138793Y-78549500D01*
X122070672Y-78529498D01*
X122049698Y-78512595D01*
X121442753Y-77905650D01*
X121432899Y-77894561D01*
X121417707Y-77875291D01*
X121417705Y-77875289D01*
X121411872Y-77867890D01*
X121404125Y-77862535D01*
X121404123Y-77862534D01*
X121363625Y-77834545D01*
X121360403Y-77832243D01*
X121320758Y-77802960D01*
X121320757Y-77802959D01*
X121313184Y-77797366D01*
X121306368Y-77794973D01*
X121300431Y-77790869D01*
X121291451Y-77788029D01*
X121291449Y-77788028D01*
X121271283Y-77781650D01*
X121244481Y-77773174D01*
X121240750Y-77771929D01*
X121194263Y-77755604D01*
X121194261Y-77755604D01*
X121185369Y-77752481D01*
X121178181Y-77752199D01*
X121178122Y-77752188D01*
X121171270Y-77750020D01*
X121164663Y-77749500D01*
X121111984Y-77749500D01*
X121107037Y-77749403D01*
X121050006Y-77747162D01*
X121042900Y-77749046D01*
X121034653Y-77749500D01*
X118775044Y-77749500D01*
X118706923Y-77729498D01*
X118660430Y-77675842D01*
X118654147Y-77658997D01*
X118653524Y-77656875D01*
X118652135Y-77655671D01*
X118644452Y-77654000D01*
X117222000Y-77654000D01*
X117153879Y-77633998D01*
X117107386Y-77580342D01*
X117096000Y-77528000D01*
X117096000Y-77201500D01*
X117116002Y-77133379D01*
X117169658Y-77086886D01*
X117222000Y-77075500D01*
X117494296Y-77075500D01*
X117562417Y-77095502D01*
X117589239Y-77126456D01*
X117609865Y-77144329D01*
X117617548Y-77146000D01*
X118639884Y-77146000D01*
X118655123Y-77141525D01*
X118656328Y-77140135D01*
X118657999Y-77132452D01*
X118657999Y-77080331D01*
X118657629Y-77073510D01*
X118652105Y-77022648D01*
X118648479Y-77007396D01*
X118603324Y-76886946D01*
X118594786Y-76871351D01*
X118518285Y-76769276D01*
X118505724Y-76756715D01*
X118431151Y-76700826D01*
X118388636Y-76643967D01*
X118383610Y-76573149D01*
X118417670Y-76510855D01*
X118431151Y-76499174D01*
X118505724Y-76443285D01*
X118518285Y-76430724D01*
X118594786Y-76328649D01*
X118603324Y-76313054D01*
X118648478Y-76192606D01*
X118652105Y-76177351D01*
X118657631Y-76126486D01*
X118658000Y-76119672D01*
X118658000Y-76072115D01*
X118653525Y-76056876D01*
X118652135Y-76055671D01*
X118644452Y-76054000D01*
X117622115Y-76054000D01*
X117606876Y-76058475D01*
X117587346Y-76081013D01*
X117527620Y-76119396D01*
X117492122Y-76124500D01*
X117205704Y-76124500D01*
X117137583Y-76104498D01*
X117110761Y-76073544D01*
X117090135Y-76055671D01*
X117082452Y-76054000D01*
X116060116Y-76054000D01*
X116044877Y-76058475D01*
X116043672Y-76059865D01*
X116042001Y-76067548D01*
X116042001Y-76119669D01*
X116042370Y-76126473D01*
X116042648Y-76129035D01*
X116042541Y-76129633D01*
X116042554Y-76129877D01*
X116042497Y-76129880D01*
X116030122Y-76198918D01*
X116003088Y-76234942D01*
X116002172Y-76235725D01*
X115964945Y-76272952D01*
X115961380Y-76276381D01*
X115919444Y-76315146D01*
X115915751Y-76321505D01*
X115910234Y-76327663D01*
X115889252Y-76348645D01*
X115826940Y-76382671D01*
X115756125Y-76377606D01*
X115699289Y-76335059D01*
X115674830Y-76272557D01*
X115673106Y-76255942D01*
X115670212Y-76242544D01*
X115620619Y-76093893D01*
X115614445Y-76080714D01*
X115532212Y-75947827D01*
X115523176Y-75936426D01*
X115412571Y-75826014D01*
X115401160Y-75817002D01*
X115268120Y-75734996D01*
X115254939Y-75728849D01*
X115106186Y-75679509D01*
X115092810Y-75676642D01*
X115001903Y-75667328D01*
X114995486Y-75667000D01*
X114972115Y-75667000D01*
X114956876Y-75671475D01*
X114955671Y-75672865D01*
X114954000Y-75680548D01*
X114954000Y-76753000D01*
X114933998Y-76821121D01*
X114880342Y-76867614D01*
X114828000Y-76879000D01*
X113735115Y-76879000D01*
X113719876Y-76883475D01*
X113718671Y-76884865D01*
X113717000Y-76892548D01*
X113717000Y-76895438D01*
X113717337Y-76901953D01*
X113726894Y-76994057D01*
X113729788Y-77007456D01*
X113779381Y-77156107D01*
X113785555Y-77169286D01*
X113867788Y-77302173D01*
X113876824Y-77313574D01*
X113987429Y-77423986D01*
X113998840Y-77432998D01*
X114089832Y-77489086D01*
X114137325Y-77541858D01*
X114148749Y-77611930D01*
X114120475Y-77677054D01*
X114112811Y-77685441D01*
X114110657Y-77687595D01*
X114048345Y-77721621D01*
X114021562Y-77724500D01*
X113559219Y-77724500D01*
X113544410Y-77723627D01*
X113520042Y-77720743D01*
X113510689Y-77719636D01*
X113501425Y-77721328D01*
X113501423Y-77721328D01*
X113452988Y-77730174D01*
X113449084Y-77730824D01*
X113400348Y-77738151D01*
X113400346Y-77738152D01*
X113391038Y-77739551D01*
X113384525Y-77742678D01*
X113377426Y-77743975D01*
X113369067Y-77748317D01*
X113325363Y-77771018D01*
X113321825Y-77772786D01*
X113281503Y-77792149D01*
X113268921Y-77798191D01*
X113263636Y-77803076D01*
X113263589Y-77803108D01*
X113257211Y-77806421D01*
X113252172Y-77810725D01*
X113214945Y-77847952D01*
X113211380Y-77851381D01*
X113169444Y-77890146D01*
X113165751Y-77896505D01*
X113160234Y-77902663D01*
X111561595Y-79501302D01*
X111499283Y-79535328D01*
X111428468Y-79530263D01*
X111383405Y-79501302D01*
X108235229Y-76353126D01*
X113717071Y-76353126D01*
X113721475Y-76368124D01*
X113722865Y-76369329D01*
X113730548Y-76371000D01*
X114427885Y-76371000D01*
X114443124Y-76366525D01*
X114444329Y-76365135D01*
X114446000Y-76357452D01*
X114446000Y-75685115D01*
X114441525Y-75669876D01*
X114440135Y-75668671D01*
X114432452Y-75667000D01*
X114404562Y-75667000D01*
X114398047Y-75667337D01*
X114305943Y-75676894D01*
X114292544Y-75679788D01*
X114143893Y-75729381D01*
X114130714Y-75735555D01*
X113997827Y-75817788D01*
X113986426Y-75826824D01*
X113876014Y-75937429D01*
X113867002Y-75948840D01*
X113784996Y-76081880D01*
X113778849Y-76095061D01*
X113729509Y-76243814D01*
X113726642Y-76257190D01*
X113717328Y-76348097D01*
X113717071Y-76353126D01*
X108235229Y-76353126D01*
X107348586Y-75466483D01*
X107314560Y-75404171D01*
X107318122Y-75337617D01*
X107320966Y-75329070D01*
X107329351Y-75303863D01*
X107355171Y-75099474D01*
X107355583Y-75070000D01*
X107335480Y-74864970D01*
X107275935Y-74667749D01*
X107179218Y-74485849D01*
X107086225Y-74371829D01*
X107052906Y-74330975D01*
X107052903Y-74330972D01*
X107049011Y-74326200D01*
X106979942Y-74269061D01*
X106895025Y-74198811D01*
X106895021Y-74198809D01*
X106890275Y-74194882D01*
X106752684Y-74120487D01*
X106714474Y-74099827D01*
X106709055Y-74096897D01*
X106658183Y-74081150D01*
X106599025Y-74041899D01*
X106570477Y-73976895D01*
X106581605Y-73906776D01*
X106628876Y-73853804D01*
X106659235Y-73840099D01*
X106792255Y-73800191D01*
X106801842Y-73796433D01*
X106993095Y-73702739D01*
X107001945Y-73697464D01*
X107175328Y-73573792D01*
X107183200Y-73567139D01*
X107334052Y-73416812D01*
X107340730Y-73408965D01*
X107465003Y-73236020D01*
X107470313Y-73227183D01*
X107564670Y-73036267D01*
X107568469Y-73026672D01*
X107630377Y-72822910D01*
X107632555Y-72812837D01*
X107633986Y-72801962D01*
X107631775Y-72787778D01*
X107618617Y-72784000D01*
X104983225Y-72784000D01*
X104969694Y-72787973D01*
X104968257Y-72797966D01*
X97000000Y-72797966D01*
X97000000Y-72264183D01*
X104964389Y-72264183D01*
X104965912Y-72272607D01*
X104978292Y-72276000D01*
X106027885Y-72276000D01*
X106043124Y-72271525D01*
X106044329Y-72270135D01*
X106046000Y-72262452D01*
X106046000Y-72257885D01*
X106554000Y-72257885D01*
X106558475Y-72273124D01*
X106559865Y-72274329D01*
X106567548Y-72276000D01*
X107618344Y-72276000D01*
X107631875Y-72272027D01*
X107633180Y-72262947D01*
X107591214Y-72095875D01*
X107587894Y-72086124D01*
X107502972Y-71890814D01*
X107498105Y-71881739D01*
X107382426Y-71702926D01*
X107376136Y-71694757D01*
X107232806Y-71537240D01*
X107225273Y-71530215D01*
X107058139Y-71398222D01*
X107049552Y-71392517D01*
X107012116Y-71371851D01*
X106962146Y-71321419D01*
X106947374Y-71251976D01*
X106972490Y-71185571D01*
X106999842Y-71158964D01*
X107175327Y-71033792D01*
X107183200Y-71027139D01*
X107334052Y-70876812D01*
X107340730Y-70868965D01*
X107465003Y-70696020D01*
X107470313Y-70687183D01*
X107564670Y-70496267D01*
X107568469Y-70486672D01*
X107630377Y-70282910D01*
X107632555Y-70272837D01*
X107633986Y-70261962D01*
X107631775Y-70247778D01*
X107618617Y-70244000D01*
X106572115Y-70244000D01*
X106556876Y-70248475D01*
X106555671Y-70249865D01*
X106554000Y-70257548D01*
X106554000Y-72257885D01*
X106046000Y-72257885D01*
X106046000Y-70262115D01*
X106041525Y-70246876D01*
X106040135Y-70245671D01*
X106032452Y-70244000D01*
X104983225Y-70244000D01*
X104969694Y-70247973D01*
X104968257Y-70257966D01*
X104998565Y-70392446D01*
X105001645Y-70402275D01*
X105081770Y-70599603D01*
X105086413Y-70608794D01*
X105197694Y-70790388D01*
X105203777Y-70798699D01*
X105343213Y-70959667D01*
X105350580Y-70966883D01*
X105514434Y-71102916D01*
X105522881Y-71108831D01*
X105592479Y-71149501D01*
X105641203Y-71201140D01*
X105654274Y-71270923D01*
X105627543Y-71336694D01*
X105587087Y-71370053D01*
X105578462Y-71374542D01*
X105569738Y-71380036D01*
X105399433Y-71507905D01*
X105391726Y-71514748D01*
X105244590Y-71668717D01*
X105238104Y-71676727D01*
X105118098Y-71852649D01*
X105113000Y-71861623D01*
X105023338Y-72054783D01*
X105019775Y-72064470D01*
X104964389Y-72264183D01*
X97000000Y-72264183D01*
X97000000Y-69724183D01*
X104964389Y-69724183D01*
X104965912Y-69732607D01*
X104978292Y-69736000D01*
X107618344Y-69736000D01*
X107631875Y-69732027D01*
X107633180Y-69722947D01*
X107591214Y-69555875D01*
X107587894Y-69546124D01*
X107502972Y-69350814D01*
X107498105Y-69341739D01*
X107382426Y-69162926D01*
X107376136Y-69154757D01*
X107232806Y-68997240D01*
X107225273Y-68990215D01*
X107058139Y-68858222D01*
X107049552Y-68852517D01*
X106863117Y-68749599D01*
X106853705Y-68745369D01*
X106853435Y-68745273D01*
X106853341Y-68745205D01*
X106848989Y-68743249D01*
X106849393Y-68742351D01*
X106795899Y-68703679D01*
X106769983Y-68637581D01*
X106783917Y-68567965D01*
X106833276Y-68516934D01*
X106895495Y-68500500D01*
X107169748Y-68500500D01*
X107179803Y-68498500D01*
X107216061Y-68491288D01*
X107216062Y-68491288D01*
X107228231Y-68488867D01*
X107294552Y-68444552D01*
X107338867Y-68378231D01*
X107350500Y-68319748D01*
X107350500Y-66580252D01*
X107338867Y-66521769D01*
X107294552Y-66455448D01*
X107228231Y-66411133D01*
X107216062Y-66408712D01*
X107216061Y-66408712D01*
X107175816Y-66400707D01*
X107169748Y-66399500D01*
X105430252Y-66399500D01*
X105424184Y-66400707D01*
X105383939Y-66408712D01*
X105383938Y-66408712D01*
X105371769Y-66411133D01*
X105305448Y-66455448D01*
X105261133Y-66521769D01*
X105249500Y-66580252D01*
X105249500Y-68319748D01*
X105261133Y-68378231D01*
X105305448Y-68444552D01*
X105371769Y-68488867D01*
X105383938Y-68491288D01*
X105383939Y-68491288D01*
X105420197Y-68498500D01*
X105430252Y-68500500D01*
X105705233Y-68500500D01*
X105773354Y-68520502D01*
X105819847Y-68574158D01*
X105829951Y-68644432D01*
X105800457Y-68709012D01*
X105763413Y-68738263D01*
X105578463Y-68834542D01*
X105569738Y-68840036D01*
X105399433Y-68967905D01*
X105391726Y-68974748D01*
X105244590Y-69128717D01*
X105238104Y-69136727D01*
X105118098Y-69312649D01*
X105113000Y-69321623D01*
X105023338Y-69514783D01*
X105019775Y-69524470D01*
X104964389Y-69724183D01*
X97000000Y-69724183D01*
X97000000Y-59235839D01*
X97020002Y-59167718D01*
X97073658Y-59121225D01*
X97143932Y-59111121D01*
X97208512Y-59140615D01*
X97243393Y-59190070D01*
X97261238Y-59235839D01*
X97267214Y-59251167D01*
X97429130Y-59556974D01*
X97431180Y-59559957D01*
X97431182Y-59559960D01*
X97623065Y-59839152D01*
X97623071Y-59839159D01*
X97625122Y-59842144D01*
X97852592Y-60102898D01*
X98108524Y-60335778D01*
X98389527Y-60537699D01*
X98691876Y-60705985D01*
X99011563Y-60838403D01*
X99015057Y-60839398D01*
X99015059Y-60839399D01*
X99340851Y-60932204D01*
X99340856Y-60932205D01*
X99344352Y-60933201D01*
X99580034Y-60971795D01*
X99682251Y-60988534D01*
X99682255Y-60988534D01*
X99685831Y-60989120D01*
X99689457Y-60989291D01*
X100027847Y-61005249D01*
X100027848Y-61005249D01*
X100031474Y-61005420D01*
X100042346Y-61004679D01*
X100373069Y-60982133D01*
X100373077Y-60982132D01*
X100376700Y-60981885D01*
X100380276Y-60981222D01*
X100380278Y-60981222D01*
X100713368Y-60919488D01*
X100713372Y-60919487D01*
X100716933Y-60918827D01*
X101047663Y-60817081D01*
X101364507Y-60677996D01*
X101663265Y-60503416D01*
X101666174Y-60501232D01*
X101937071Y-60297837D01*
X101937075Y-60297834D01*
X101939978Y-60295654D01*
X102190977Y-60057465D01*
X102412936Y-59792005D01*
X102565361Y-59559960D01*
X102600926Y-59505818D01*
X102600931Y-59505809D01*
X102602913Y-59502792D01*
X102731169Y-59247785D01*
X102756763Y-59196898D01*
X102756766Y-59196890D01*
X102758390Y-59193662D01*
X102759635Y-59190260D01*
X102876057Y-58872122D01*
X102876060Y-58872112D01*
X102877305Y-58868710D01*
X102878150Y-58865188D01*
X102878153Y-58865180D01*
X102957237Y-58535772D01*
X102957238Y-58535768D01*
X102958084Y-58532243D01*
X102958521Y-58528633D01*
X102999318Y-58191501D01*
X102999318Y-58191495D01*
X102999654Y-58188722D01*
X103005585Y-58000000D01*
X103000351Y-57909223D01*
X102985875Y-57658167D01*
X102985874Y-57658162D01*
X102985666Y-57654547D01*
X102985043Y-57650977D01*
X102926798Y-57317245D01*
X102926796Y-57317238D01*
X102926174Y-57313672D01*
X102827897Y-56981894D01*
X102790224Y-56893570D01*
X102693562Y-56666949D01*
X102693560Y-56666946D01*
X102692138Y-56663611D01*
X102520696Y-56363041D01*
X102461030Y-56281815D01*
X102317986Y-56087086D01*
X102315843Y-56084168D01*
X102080295Y-55830688D01*
X101817174Y-55605962D01*
X101529967Y-55412967D01*
X101222482Y-55254261D01*
X101219091Y-55252980D01*
X101219085Y-55252977D01*
X101194973Y-55243866D01*
X101138320Y-55201077D01*
X101113794Y-55134451D01*
X101129182Y-55065142D01*
X101179598Y-55015155D01*
X101239510Y-55000000D01*
X139762931Y-55000000D01*
X139831052Y-55020002D01*
G37*
G04 #@! TD.AperFunction*
G04 #@! TA.AperFunction,Conductor*
G36*
X126567933Y-69045502D02*
G01*
X126588907Y-69062405D01*
X127542717Y-70016215D01*
X127550144Y-70024319D01*
X127574373Y-70053194D01*
X127583922Y-70058707D01*
X127607013Y-70072039D01*
X127616284Y-70077945D01*
X127647144Y-70099554D01*
X127657794Y-70102408D01*
X127660962Y-70103885D01*
X127664238Y-70105077D01*
X127673783Y-70110588D01*
X127707527Y-70116538D01*
X127710886Y-70117130D01*
X127721613Y-70119508D01*
X127758021Y-70129264D01*
X127769006Y-70128303D01*
X127769008Y-70128303D01*
X127795556Y-70125980D01*
X127806538Y-70125500D01*
X128205214Y-70125500D01*
X128273335Y-70145502D01*
X128305177Y-70174796D01*
X128346218Y-70228282D01*
X128471659Y-70324536D01*
X128617738Y-70385044D01*
X128774500Y-70405682D01*
X128782688Y-70404604D01*
X128923074Y-70386122D01*
X128931262Y-70385044D01*
X129077341Y-70324536D01*
X129202782Y-70228282D01*
X129299036Y-70102841D01*
X129334278Y-70017760D01*
X129378825Y-69962480D01*
X129446188Y-69940059D01*
X129514980Y-69957617D01*
X129539781Y-69976884D01*
X129812595Y-70249698D01*
X129846621Y-70312010D01*
X129849500Y-70338793D01*
X129849500Y-72929593D01*
X129829498Y-72997714D01*
X129824808Y-73001778D01*
X129847995Y-73050992D01*
X129849500Y-73070407D01*
X129849500Y-73378280D01*
X129848627Y-73393089D01*
X129844636Y-73426810D01*
X129846328Y-73436074D01*
X129846328Y-73436075D01*
X129855172Y-73484501D01*
X129855822Y-73488404D01*
X129858723Y-73507695D01*
X129864551Y-73546462D01*
X129867679Y-73552975D01*
X129868975Y-73560073D01*
X129896025Y-73612147D01*
X129897768Y-73615637D01*
X129923191Y-73668579D01*
X129928077Y-73673865D01*
X129928110Y-73673913D01*
X129931421Y-73680288D01*
X129935725Y-73685328D01*
X129972952Y-73722555D01*
X129976381Y-73726120D01*
X130015146Y-73768056D01*
X130021505Y-73771749D01*
X130027663Y-73777266D01*
X130762595Y-74512198D01*
X130796621Y-74574510D01*
X130799500Y-74601293D01*
X130799500Y-75011207D01*
X130779498Y-75079328D01*
X130762595Y-75100302D01*
X130351889Y-75511008D01*
X130289577Y-75545034D01*
X130218762Y-75539969D01*
X130161926Y-75497422D01*
X130143270Y-75461788D01*
X130120620Y-75393895D01*
X130114445Y-75380714D01*
X130032212Y-75247827D01*
X130023176Y-75236426D01*
X129912571Y-75126014D01*
X129901160Y-75117002D01*
X129768120Y-75034996D01*
X129754939Y-75028849D01*
X129606186Y-74979509D01*
X129592810Y-74976642D01*
X129501903Y-74967328D01*
X129495486Y-74967000D01*
X129472115Y-74967000D01*
X129456876Y-74971475D01*
X129455671Y-74972865D01*
X129454000Y-74980548D01*
X129454000Y-76053000D01*
X129433998Y-76121121D01*
X129380342Y-76167614D01*
X129328000Y-76179000D01*
X129072000Y-76179000D01*
X129003879Y-76158998D01*
X128957386Y-76105342D01*
X128946000Y-76053000D01*
X128946000Y-74985115D01*
X128941525Y-74969876D01*
X128940135Y-74968671D01*
X128932452Y-74967000D01*
X128904562Y-74967000D01*
X128898047Y-74967337D01*
X128805943Y-74976894D01*
X128792544Y-74979788D01*
X128643893Y-75029381D01*
X128630714Y-75035555D01*
X128497827Y-75117788D01*
X128486426Y-75126824D01*
X128387284Y-75226140D01*
X128325001Y-75260220D01*
X128249893Y-75253532D01*
X128156762Y-75214956D01*
X128135539Y-75212162D01*
X128070611Y-75183441D01*
X128031518Y-75124176D01*
X128030673Y-75053185D01*
X128062888Y-74998145D01*
X129216215Y-73844818D01*
X129224319Y-73837391D01*
X129234059Y-73829218D01*
X129253194Y-73813162D01*
X129261518Y-73798744D01*
X129272039Y-73780522D01*
X129277945Y-73771251D01*
X129280182Y-73768056D01*
X129299554Y-73740391D01*
X129302408Y-73729740D01*
X129303888Y-73726567D01*
X129305079Y-73723295D01*
X129310588Y-73713752D01*
X129317134Y-73676631D01*
X129319508Y-73665924D01*
X129329263Y-73629514D01*
X129327895Y-73613870D01*
X129325979Y-73591976D01*
X129325500Y-73580995D01*
X129325500Y-73569286D01*
X129345502Y-73501165D01*
X129374796Y-73469323D01*
X129421736Y-73433305D01*
X129428282Y-73428282D01*
X129524536Y-73302841D01*
X129577468Y-73175053D01*
X129581884Y-73164391D01*
X129585044Y-73156762D01*
X129598578Y-73053961D01*
X129623505Y-72997613D01*
X129602604Y-72965091D01*
X129598578Y-72946039D01*
X129586122Y-72851426D01*
X129585044Y-72843238D01*
X129524536Y-72697159D01*
X129428282Y-72571718D01*
X129302841Y-72475464D01*
X129156762Y-72414956D01*
X129000000Y-72394318D01*
X128843238Y-72414956D01*
X128697159Y-72475464D01*
X128571718Y-72571718D01*
X128475464Y-72697159D01*
X128414956Y-72843238D01*
X128413878Y-72851426D01*
X128413878Y-72851427D01*
X128411327Y-72870804D01*
X128382605Y-72935732D01*
X128323341Y-72974824D01*
X128252349Y-72975669D01*
X128238187Y-72970768D01*
X128202093Y-72955817D01*
X128202090Y-72955816D01*
X128194463Y-72952657D01*
X128037701Y-72932019D01*
X127880939Y-72952657D01*
X127734860Y-73013165D01*
X127609419Y-73109419D01*
X127513165Y-73234860D01*
X127452657Y-73380939D01*
X127432019Y-73537701D01*
X127443681Y-73626280D01*
X127432742Y-73696427D01*
X127407854Y-73731820D01*
X127302079Y-73837595D01*
X127239767Y-73871621D01*
X127212984Y-73874500D01*
X126924745Y-73874500D01*
X126856624Y-73854498D01*
X126819980Y-73818503D01*
X126801443Y-73790761D01*
X126794552Y-73780448D01*
X126747438Y-73748967D01*
X126738547Y-73743026D01*
X126728231Y-73736133D01*
X126716062Y-73733712D01*
X126716061Y-73733712D01*
X126675816Y-73725707D01*
X126669748Y-73724500D01*
X125030252Y-73724500D01*
X125022023Y-73726137D01*
X125020869Y-73726033D01*
X125018021Y-73726314D01*
X125017968Y-73725774D01*
X124951311Y-73719810D01*
X124895243Y-73676256D01*
X124871623Y-73609304D01*
X124873863Y-73577980D01*
X124875500Y-73569748D01*
X124875500Y-72787016D01*
X124895502Y-72718895D01*
X124912405Y-72697921D01*
X125416215Y-72194111D01*
X125424319Y-72186684D01*
X125444749Y-72169541D01*
X125453194Y-72162455D01*
X125458707Y-72152906D01*
X125472039Y-72129815D01*
X125477945Y-72120544D01*
X125493230Y-72098715D01*
X125499554Y-72089684D01*
X125502408Y-72079034D01*
X125503885Y-72075866D01*
X125505077Y-72072590D01*
X125510588Y-72063045D01*
X125517130Y-72025942D01*
X125519509Y-72015210D01*
X125529264Y-71978807D01*
X125525979Y-71941257D01*
X125525500Y-71930276D01*
X125525500Y-70220286D01*
X125545502Y-70152165D01*
X125574796Y-70120323D01*
X125621736Y-70084305D01*
X125628282Y-70079282D01*
X125634161Y-70071621D01*
X125706535Y-69977300D01*
X125724536Y-69953841D01*
X125785044Y-69807762D01*
X125787850Y-69786452D01*
X125804604Y-69659188D01*
X125805682Y-69651000D01*
X125785044Y-69494238D01*
X125724536Y-69348159D01*
X125632492Y-69228204D01*
X125606892Y-69161983D01*
X125621157Y-69092434D01*
X125670758Y-69041639D01*
X125732455Y-69025500D01*
X126499812Y-69025500D01*
X126567933Y-69045502D01*
G37*
G04 #@! TD.AperFunction*
G04 #@! TD*
M02*
